<svg width="999" height="485" viewBox="0 0 999 485" fill="none" xmlns="http://www.w3.org/2000/svg">
<g clip-path="url(#clip0_2983_16664)">
<path d="M363.437 128.345C327.94 122.96 292.428 117.083 256.645 115.084C209.02 112.417 161.331 116.662 113.817 121.136C111.058 121.399 108.173 121.715 105.906 123.469C103.797 125.1 102.545 127.731 101.483 130.328C81.5859 179.007 105.208 236.79 138.248 275.751C194.292 341.814 274.196 375.617 352.466 402.246C487.859 448.311 627.596 479.343 768.807 491.552C810.82 495.184 959.118 500.113 999.942 488.535C1057.19 472.274 1000.13 428.015 1046.73 387.774C1055.54 380.161 1064.53 372.319 1070.41 361.794C1076.79 350.374 1078.94 336.674 1079.7 323.272C1082.48 274.575 1067.45 218.739 1036.18 183.164C1021 165.885 996.042 173.2 975.701 173.288C947.497 173.411 919.309 173.218 891.104 172.744C778.32 170.815 665.614 164.061 553.304 152.501C489.873 145.975 426.568 137.923 363.453 128.345H363.437Z" fill="#90CDDE"/>
<path d="M299.562 134.573C309.978 131.994 320.917 134.678 330.81 139.116C339.355 142.958 351.88 147.817 358.427 154.781C353.449 161.71 342.922 158.097 336.66 155.325C330.017 152.395 323.58 148.466 317.207 144.887C314.1 143.151 302.637 133.818 299.562 134.573Z" fill="#9CDBED"/>
<path d="M896.24 221.774C900.886 222.669 906.926 225.932 905.483 230.878C885.238 233.58 865.309 225.37 845.444 220.248C792.127 206.53 736.48 214.862 683.116 201.724C676.441 200.075 654.578 198.18 662.41 187.497C668.308 179.445 692.628 187.83 700.603 188.971C731.232 193.356 761.83 198.092 792.381 203.162C827.07 208.916 861.695 215.126 896.256 221.774H896.24Z" fill="#9CDBED"/>
<path d="M1028.08 305.607C1000.31 314.378 970.676 310.168 942.123 305.291C927.378 302.765 853.943 298.66 854.054 278.645C881.164 277.329 911.984 286.82 939.031 291.117C968.725 295.854 998.42 300.678 1028.08 305.607Z" fill="#9CDBED"/>
<path d="M801.149 300.783C819.048 303.853 838.326 307.695 850.756 322.272C823.059 330.465 793.586 323.851 766.223 314.414C751.954 309.502 737.907 303.783 723.591 299.029C715.157 296.24 699.271 292.135 714.761 285.96C724.368 282.136 747.499 291.574 757.836 293.346C772.279 295.819 786.706 298.292 801.149 300.783Z" fill="#9CDBED"/>
<path d="M970.516 498.411H-699C-695.544 492.798 -692.484 487.069 -689.646 481.263C-682.179 466.043 -676.154 448.162 -662.171 435.47C-647.744 422.411 -627.293 409.082 -607.317 401.134C-591.811 394.923 -575.434 392.666 -558.249 390.872C-508.61 385.645 -461.111 371.641 -413.597 359.893C-376.531 350.731 -337.546 340.334 -309.77 318.518C-274.986 291.223 -260.971 252.914 -251.284 216.592C-251.047 215.647 -249.636 215.203 -248.589 215.743C-230.722 224.752 -212.569 233.548 -193.798 241.476C-166.291 253.088 -128.385 269.831 -95.3132 264.642C-74.0848 261.324 -63.1297 247.532 -56.6296 232.892C-41.2671 198.306 -40.3793 156.853 -5.34204 129.114C16.3779 111.889 45.2162 106.353 75.418 103.498C128.592 98.425 181.639 109.053 229.693 126.009C281.313 144.218 328.51 168.812 373.742 194.911C412.394 217.209 449.207 241.765 489.507 262.347C513.526 274.615 532.281 292.959 554.413 307.272L610.14 334.894C615.055 338.251 621.079 339.794 627.722 339.196C640.294 338.096 651.503 333.39 662.807 329.416C668.387 327.41 675.886 324.054 682.339 324.594C691.217 325.365 696.164 335.512 700.428 340.469L714.142 363.018C720.737 373.82 729.822 383.716 741.157 391.953C757.946 404.182 778.255 398.337 795.853 408.927C807.49 415.929 820.712 428.467 834.267 426.288C893.672 416.662 938 450.882 970.516 498.392V498.411Z" fill="#C47458"/>
<mask id="mask0_2983_16664" style="mask-type:luminance" maskUnits="userSpaceOnUse" x="46" y="26" width="965" height="448">
<path d="M1010.1 26.479H46.041V473.344H1010.1V26.479Z" fill="white"/>
</mask>
<g mask="url(#mask0_2983_16664)">
</g>
<path d="M999.957 133.467L1010.1 201.846C810.613 188.567 604.02 159.886 405.608 141.326C404.879 141.238 405.053 140.431 405.767 140.484C461.303 144.887 517.204 147.273 573.121 147.939C700.254 149.36 826.784 142.484 953.077 133.467H999.957Z" fill="#C47458"/>
<path d="M46.041 245.246V158.483C121.649 169.552 195.671 185.498 264.746 209.144C266.316 209.635 265.539 211.004 264.302 211.39C194.767 231.054 120.745 240.755 46.041 245.246Z" fill="#99573D"/>
<path d="M686.238 322.921C679.833 337.288 667.023 346.778 652.833 347.533C637.059 348.392 622.108 338.323 615.18 322.079C619.841 319.623 623.741 318.659 626.547 318.238C630.765 317.624 632.778 317.536 635.172 315.747C637.439 314.063 638.914 311.484 640.293 307.011C640.293 307.011 640.293 307.011 640.293 306.976C640.531 306.327 640.8 305.906 641.006 305.66C642.956 303.134 643.908 300.748 644.399 299.205C644.827 297.836 645.762 295.223 644.78 292.907C644.161 291.469 643.099 290.784 641.942 290.03C640.039 288.767 637.344 286.908 633.92 284.276C636.853 283.487 639.785 282.68 642.718 281.891C646.016 282.171 659.952 283.364 663.249 283.645C666.246 283.908 669.226 284.154 672.223 284.417C671.462 289.328 670.812 293.433 670.32 296.468C668.64 306.853 667.958 310.344 669.908 312.94C671.018 314.431 672.207 314.115 675.314 315.922C679.294 318.22 682.94 320.588 686.238 322.921Z" fill="#DB8863"/>
<path d="M642.163 250.718L634.506 256.735C633.871 257.226 633.665 258.174 634.046 258.928C634.68 260.156 635.52 261.401 636.63 262.577C636.836 262.787 637.042 262.998 637.264 263.191C638.897 259.033 640.53 254.876 642.179 250.718H642.163Z" fill="#F2A580"/>
<path d="M667.832 289.065C670.416 284.644 674.173 278.575 679.785 270.119C679.785 270.102 679.817 270.067 679.833 270.049C683.654 264.278 694.72 247.595 690.075 234.527C685.366 221.265 665.691 214.792 656.084 221.581C651.486 224.826 648.49 231.615 646.984 235C644.923 239.684 643.94 243.912 643.432 246.876C640.816 251.577 638.882 255.489 637.535 258.349C636.599 260.331 636.044 261.576 635.521 263.208C634.966 264.892 634.079 268.032 633.698 272.049C633.666 272.4 633.65 272.68 633.635 272.944C633.508 275.382 633.555 277.189 633.587 277.855C633.635 279.048 633.65 280.75 633.508 283.03C633.46 283.714 633.809 284.363 634.364 284.662C636.504 285.819 641.244 287.802 646.904 286.293C651.55 285.065 654.514 282.083 655.751 280.68C659.778 283.486 663.82 286.275 667.847 289.082L667.832 289.065Z" fill="#F2A580"/>
<path d="M650.17 260.138C651.692 263.927 651.264 267.699 651.105 268.997C650.978 270.049 651.057 269.751 650.756 271.014C650.281 272.961 650.265 274.926 650.423 276.663C650.614 278.048 651.501 283.609 656.02 287.714C661.616 292.801 668.227 291.556 669.179 291.363C669.622 291.696 673.285 294.38 677.771 292.819C682.702 291.117 684.208 285.855 684.319 285.416C687.411 287.083 689.662 286.644 690.55 286.398C695.322 285.048 698.968 278.224 698.429 269.576C702.947 257.402 704.152 247.859 703.867 246.368C703.455 244.28 702.726 242.403 702.726 242.403C702.091 240.842 701.156 239.053 699.729 237.158C699.697 236.299 699.602 235.176 699.333 233.895C699.333 233.895 698.984 232.211 698.318 230.562C697.605 228.808 691.755 218.879 678.31 215.038C673.966 213.792 661.632 210.301 654.038 217.722C652.817 218.914 647.173 231.72 646.714 236.334C646.365 239.912 645.984 243.842 646.587 248.946C647.205 254.209 648.394 256.77 648.727 257.454C649.472 258.998 649.647 258.84 650.186 260.173L650.17 260.138Z" fill="#663B31"/>
<path d="M708.417 245.649C705.437 252.578 702.472 259.524 699.507 266.453C689.409 257.595 675.489 247.912 657.637 241.684C653.499 240.246 649.504 239.123 645.667 238.228L646.777 234.036C648.077 229.124 649.361 224.23 650.661 219.301C652.548 217.809 665.453 208.039 681.434 212.67C694.529 216.476 704.755 228.51 708.053 243.789C708.18 244.403 708.306 245 708.417 245.614V245.649Z" fill="#E76F35"/>
<path style="mix-blend-mode:multiply" d="M708.417 245.648C705.437 252.578 702.472 259.524 699.507 266.453C689.409 257.595 675.489 247.911 657.637 241.684C653.499 240.246 649.504 239.123 645.667 238.228L646.777 234.036C656.306 238.772 678.501 248.701 693.42 246.262C699.698 245.227 704.47 244.438 708.053 243.807C708.18 244.421 708.306 245.017 708.417 245.631V245.648Z" fill="url(#paint0_linear_2983_16664)"/>
<path d="M649.964 254.315C650.249 252.929 650.519 251.56 651.327 251.139C652.437 250.578 654.403 251.841 655.354 253.543C656.464 255.56 655.988 257.946 655.132 262.296C654.974 263.103 654.752 263.91 654.292 265.524C653.293 269.12 652.865 269.804 652.389 269.857C651.866 269.909 651.612 269.155 650.63 269.05C650.17 268.997 649.773 269.12 649.504 269.225C648.378 269.98 647.237 270.751 646.111 271.506C645.794 268.804 645.477 266.103 645.176 263.401C646.175 262.963 647.712 262.068 648.648 260.314C649.266 259.156 649.504 257.893 649.631 257.262C649.884 255.876 649.71 255.613 649.964 254.297V254.315Z" fill="#F2A580"/>
<path d="M791.635 242.07C793.03 238.913 795.487 234.51 799.847 230.826C801.654 229.3 801.797 229.51 803.921 227.738C807.124 225.072 808.075 223.406 814.227 215.389C818.412 209.933 820.711 207.127 820.077 206.162C819.807 205.758 819.125 205.829 818.634 205.881C816.763 206.074 815.939 207.513 814.258 208.969C811.309 211.565 807.584 212.687 807.33 212.249C807.314 212.214 807.33 212.179 807.33 212.091C807.552 211.109 808.25 210.442 808.979 209.618C809.233 209.319 809.486 209.021 809.724 208.723C810.263 208.056 811.008 207.092 812.039 205.618C813.133 204.057 814.766 201.671 816.288 198.321C817.191 196.356 818.238 194.023 817.572 193.339C817.492 193.268 817.175 192.97 816.097 193.374C813.006 194.531 810.422 198.847 809.328 200.829C808.931 201.408 805.333 206.478 803.382 205.548C803.256 205.478 803.113 205.39 803.002 205.267C803.953 202.636 805.396 198.285 806.585 193.146C806.585 193.146 807.695 188.304 808.44 182.796C808.472 182.585 808.789 180.094 808.234 179.691C807.695 179.305 806.522 179.884 805.824 180.41C803.097 182.463 803.382 186.234 801.892 191.251C800.212 196.865 796.962 201.811 795.884 201.408C795.012 201.092 795.408 197.198 795.535 195.882C795.693 194.251 796.153 193.251 797.104 188.936C798.182 184.112 798.864 182.796 798.436 180.586C798.325 180.059 797.865 177.621 796.787 177.498C796.074 177.428 795.265 178.393 794.758 179.831C792.855 185.234 790.953 190.62 789.05 196.023L785.689 206.776C785.436 206.478 785.166 206.127 784.928 205.653C784.643 205.127 784.611 204.916 784.389 204.355C784.152 203.723 783.93 203.267 783.85 203.092C783.185 201.618 784.849 196.952 783.597 194.268C783.089 193.198 781.932 192.023 780.965 192.216C779.76 192.444 778.777 195.952 777.541 203.145C777.271 204.741 781.219 219.353 781.266 219.441C781.472 219.81 781.504 220.546 781.25 221.879C780.791 224.195 780.03 226.37 779.443 227.809C778.698 229.212 777.794 230.843 776.764 232.633C778.476 234.475 780.188 236.317 781.9 238.158C785.15 239.474 788.385 240.79 791.635 242.105V242.07Z" fill="#F2A580"/>
<path d="M687.585 309.081C702.694 304.608 717.818 300.117 732.927 295.644C746.974 269.015 761.005 242.386 775.051 215.757C779.379 217.248 784.659 219.546 790.287 223.248C798.832 228.861 804.746 235.457 808.487 240.386C794.583 276.453 780.664 312.537 766.76 348.603C765.253 352.532 762.495 355.707 759.023 357.549C736.146 369.723 713.268 381.915 690.391 394.089C689.456 365.759 688.536 337.411 687.601 309.081H687.585Z" fill="#E76F35"/>
<path d="M537.274 220.213C536.576 216.213 535.038 210.442 531.17 204.846C529.569 202.53 529.347 202.723 527.444 200.022C524.606 195.952 523.988 193.777 519.311 182.708C516.125 175.182 514.317 171.271 515.3 170.411C515.712 170.06 516.458 170.358 516.997 170.586C519.026 171.428 519.581 173.323 521.039 175.533C523.624 179.428 527.492 181.954 527.888 181.533C527.92 181.498 527.92 181.463 527.92 181.357C527.936 180.164 527.349 179.2 526.763 178.024C526.557 177.603 526.366 177.182 526.176 176.761C525.764 175.849 525.193 174.498 524.448 172.499C523.655 170.376 522.482 167.166 521.689 162.903C521.23 160.395 520.691 157.43 521.626 156.886C521.721 156.834 522.165 156.606 523.275 157.43C526.43 159.763 528.126 165.482 528.792 168.06C529.077 168.832 531.709 175.726 534.151 175.34C534.325 175.305 534.484 175.253 534.658 175.147C534.325 171.885 533.897 166.517 533.992 160.359C533.992 160.359 534.071 154.553 534.753 148.15C534.785 147.905 535.102 145.01 535.831 144.73C536.545 144.466 537.686 145.537 538.32 146.361C540.809 149.571 539.446 153.711 539.747 159.833C540.08 166.692 542.379 173.323 543.695 173.235C544.757 173.165 545.375 168.674 545.597 167.166C545.867 165.271 545.629 164.026 545.74 158.868C545.867 153.097 545.454 151.396 546.548 149.062C546.818 148.501 548.007 145.922 549.244 146.168C550.052 146.326 550.686 147.677 550.876 149.466C551.526 156.149 552.161 162.833 552.811 169.516L553.619 182.708C554 182.462 554.38 182.164 554.792 181.708C555.252 181.217 555.347 180.989 555.76 180.428C556.203 179.796 556.584 179.357 556.711 179.2C557.852 177.779 557.281 171.99 559.422 169.411C560.278 168.376 561.895 167.464 562.941 167.99C564.226 168.657 564.368 172.92 563.766 181.392C563.639 183.269 555.173 198.32 555.109 198.391C554.777 198.741 554.539 199.548 554.459 201.127C554.333 203.864 554.586 206.565 554.856 208.389C555.316 210.214 555.855 212.336 556.52 214.705C554.095 216.196 551.669 217.669 549.244 219.16C545.248 219.546 541.253 219.915 537.258 220.3L537.274 220.213Z" fill="#F2A580"/>
<path d="M625.392 304.765C612.011 296.608 598.63 288.451 585.249 280.312C576.815 256.051 568.365 231.791 559.931 207.53C556.363 207.197 549.546 207.074 541.889 210.53C535.817 213.266 531.663 217.126 529.269 219.722C536.308 251.28 543.347 282.838 550.371 314.396C564.021 336.622 577.671 358.847 591.321 381.056C602.673 355.62 614.024 330.201 625.376 304.765H625.392Z" fill="#E76F35"/>
<path d="M725.619 560.861C703.566 563.474 678.992 565.194 652.262 565.176C625.929 565.159 601.672 563.457 579.873 560.861C576.148 505.375 576.909 438.102 589.354 363.426C589.639 361.706 589.925 360.022 590.226 358.321C594.269 334.955 599.088 312.975 604.383 292.451C616.163 296.503 627.974 300.573 639.754 304.625C639.912 302.537 640.071 300.467 640.213 298.38C642.116 297.783 644.209 297.31 646.444 297.029C657.637 295.661 666.832 299.959 671.969 302.993V308.309C683.32 306.747 694.688 305.169 706.055 303.572C710.351 320.079 715.868 344.708 719.293 375.144C722.464 403.456 721.988 422.209 722.432 457.1C722.701 477.87 723.288 507.059 724.794 542.863C725.032 548.687 725.302 554.668 725.603 560.826L725.619 560.861Z" fill="#E76F35"/>
<path d="M668.545 309.94C668.545 309.94 668.45 309.94 668.402 309.922C664.502 308.852 660.491 308.045 656.496 307.519C651.772 306.905 646.952 306.695 642.196 306.87C641.863 306.87 641.593 306.589 641.578 306.239C641.578 305.87 641.831 305.572 642.148 305.555C646.968 305.379 651.851 305.59 656.623 306.221C660.666 306.747 664.724 307.572 668.688 308.659C669.005 308.747 669.195 309.098 669.116 309.466C669.053 309.765 668.799 309.958 668.545 309.958V309.94Z" fill="#3C1F13"/>
<path d="M804.777 246.263C804.603 246.263 804.444 246.175 804.317 246.017C799.989 240.246 794.9 235.334 789.193 231.44C785.245 228.756 780.996 226.563 776.573 224.914C776.256 224.791 776.097 224.423 776.192 224.072C776.303 223.721 776.636 223.546 776.953 223.651C781.456 225.317 785.784 227.563 789.811 230.299C795.645 234.264 800.829 239.263 805.237 245.157C805.443 245.438 805.411 245.859 805.158 246.087C805.047 246.192 804.904 246.245 804.777 246.245V246.263Z" fill="#3C1F13"/>
<path d="M534.341 223.722C534.167 223.722 534.008 223.634 533.881 223.494C533.675 223.213 533.707 222.792 533.961 222.564C537.005 219.757 540.397 217.477 544.028 215.793C549.069 213.46 554.412 212.354 559.945 212.425C560.278 212.425 560.532 212.723 560.532 213.091C560.532 213.46 560.262 213.74 559.929 213.74C554.555 213.635 549.371 214.758 544.488 217.003C540.968 218.634 537.67 220.827 534.722 223.564C534.611 223.669 534.468 223.722 534.341 223.722Z" fill="#3C1F13"/>
<path d="M407.701 171.13C409.746 170.008 411.743 168.955 413.693 167.973C415.929 166.85 416.928 135.134 416.404 133.187C427.328 133.275 438.235 133.345 449.159 133.433C447.684 148.729 446.828 159.711 446.559 163.289C446.448 164.798 446.257 167.727 447.906 169.745C448.984 171.06 450.379 171.411 451.87 171.814C455.04 172.674 458.084 174.2 461.319 174.726C464.394 175.235 468.675 176.375 473.748 179.182C465.837 196.9 449.222 207.67 431.862 206.39C416.278 205.232 402.342 194.531 395.541 178.586C399.219 176.095 403.261 173.569 407.685 171.13H407.701Z" fill="#F2A580"/>
<path d="M465.346 112.207L469.849 122.504C470.213 123.346 469.96 124.398 469.23 124.872C468.026 125.679 466.615 126.398 464.997 126.872C464.696 126.959 464.395 127.029 464.094 127.1C464.506 122.135 464.934 117.153 465.346 112.189V112.207Z" fill="#F2A580"/>
<path d="M421.336 137.397C421.558 130.187 421.193 120.908 419.767 108.821C419.767 108.786 419.767 108.751 419.767 108.734C418.847 100.927 416.168 78.3508 426.917 68.4571C437.808 58.4406 459.893 63.7383 465.902 75.93C468.787 81.7715 468.422 90.0688 468.232 94.2087C467.978 99.9274 466.9 104.576 465.965 107.734C466.234 113.803 466.234 118.715 466.155 122.241C466.108 124.697 466.044 126.223 465.775 128.1C465.489 130.047 464.855 133.591 463.301 137.695C463.175 138.046 463.048 138.327 462.937 138.608C461.89 141.028 460.971 142.747 460.638 143.361C460.02 144.484 459.195 146.116 458.244 148.414C457.959 149.098 457.309 149.519 456.627 149.484C453.995 149.343 448.494 148.484 443.754 143.695C439.869 139.783 438.442 135.169 437.919 133.082C432.402 134.52 426.869 135.941 421.352 137.38L421.336 137.397Z" fill="#F2A580"/>
<path d="M464.109 72.5621C462.254 69.1589 457.418 60.5809 447.636 56.5638C439.408 53.1782 428.485 53.4237 420.891 59.7915C419.464 60.9843 418.322 62.4052 418.322 62.4052C417.45 63.4753 416.816 64.5103 416.372 65.3172C414.105 66.3171 412.329 67.4749 410.966 68.6151C410.966 68.6151 409.349 70.0009 407.954 71.7727C407.383 72.5094 400.376 83.7539 404.989 109.12C404.989 109.12 408.873 130.503 417.26 137.38C420.082 139.695 423.094 140.52 423.094 140.52C423.427 140.607 423.697 140.748 424.236 140.783C427.201 140.976 430.181 141.151 433.146 141.344C433.764 141.379 434.382 141.274 434.953 141.046C436.856 140.257 439.075 138.994 441.2 136.959C442.04 136.152 446.083 132.24 447.319 126.732C447.636 125.328 447.557 125.679 447.937 124.574C448.397 123.241 449.792 119.347 453.074 116.575C454.231 115.61 454.327 115.856 455.785 114.803C456.451 114.33 458.813 112.558 461.936 107.857C464.965 103.278 466.471 99.2785 467.85 95.6298C468.452 94.051 468.912 92.6126 469.293 91.3495C469.087 87.4903 468.215 80.1753 464.061 72.5621H464.109Z" fill="#663B31"/>
<path d="M470.309 84.859C470.118 87.5254 469.706 89.7532 469.342 91.332C462.112 90.8759 453.836 90.911 444.736 91.9635C427.725 93.9107 413.615 98.7347 403.088 103.418C401.883 99.1382 399.188 87.4201 403.452 74.1408C403.77 73.1409 404.34 71.5095 405.196 69.5098C408.225 62.4403 414.962 50.8275 427.693 47.1262C443.69 42.4775 461.922 52.3712 468.105 68.6853C470.34 74.5794 470.626 80.3156 470.293 84.8415L470.309 84.859Z" fill="#A1A5A7"/>
<path d="M470.309 84.859C470.118 87.5254 469.706 89.7532 469.342 91.332C462.112 90.8759 453.836 90.911 444.736 91.9635C427.725 93.9107 413.615 98.7347 403.088 103.418C401.883 99.1382 399.188 87.4201 403.452 74.1409C403.77 73.141 404.34 71.5096 405.196 69.5098C410.507 74.3514 416.881 77.8948 423.619 76.7722C441.09 73.8251 463.127 74.4566 470.293 84.8415L470.309 84.859Z" fill="#A1A5A7"/>
<path d="M456.104 111.084C456.5 109.576 456.896 108.102 456.31 107.225C455.517 106.032 452.996 106.085 451.284 107.19C449.255 108.488 448.557 111.067 447.305 115.75C447.067 116.61 446.908 117.522 446.56 119.364C445.799 123.416 445.878 124.328 446.322 124.662C446.797 125.03 447.4 124.434 448.399 124.907C448.874 125.135 449.191 125.469 449.397 125.732C450.127 127.135 450.84 128.521 451.569 129.924C453.171 127.504 454.772 125.083 456.357 122.662C455.596 121.645 454.55 119.89 454.487 117.645C454.439 116.171 454.819 114.803 455.01 114.137C455.422 112.645 455.723 112.505 456.104 111.084Z" fill="#F2A580"/>
<path d="M459.352 110.909C459.321 115.838 459.051 119.838 458.798 122.557C458.195 129.415 457.339 133.275 459.21 134.889C460.716 136.187 462.729 134.853 464.061 136.555C465.044 137.818 464.949 139.537 464.806 141.326C464.346 147.466 460.684 154.816 460.605 156.079C460.605 156.079 460.605 156.097 460.605 156.114C460.431 156.869 456.515 157.062 453.645 155.5C452.773 155.027 448.223 157.272 446.875 154.851C446.653 149.115 449.808 138.678 451.061 130.643C452.028 124.521 453.407 119.171 454.818 114.715C456.324 113.435 457.83 112.172 459.321 110.891L459.352 110.909Z" fill="#663B31"/>
<path d="M449.793 397.667C449.793 397.86 449.777 398.036 449.745 398.211C449.539 400.351 449.317 402.527 449.079 404.649C447.922 416.087 446.733 427.524 445.512 439.049C444.862 445.189 444.212 451.328 443.546 457.486C442.214 469.783 440.851 482.115 439.456 494.517C439.361 495.324 439.266 496.166 439.171 496.99C438.552 502.498 437.918 508.024 437.284 513.55C436.349 521.795 435.381 530.074 434.399 538.372C433.416 546.669 432.417 554.984 431.434 563.316C431.402 563.545 431.37 563.79 431.339 564.018C430.895 567.667 430.451 571.298 430.007 574.947C427.661 573.771 425.33 572.596 423.015 571.386C422.096 570.912 421.16 570.421 420.241 569.912C417.34 568.369 414.454 566.772 411.616 565.176C391.894 553.967 373.725 541.038 357.507 526.478C357.332 526.32 357.158 526.163 357 526.005C357.095 511.901 357.475 497.481 358.141 482.764C358.268 479.904 358.395 477.027 358.553 474.15C358.648 472.361 358.743 470.572 358.854 468.765C359.441 458.538 360.186 448.504 361.026 438.628C361.835 429.261 362.739 420.086 363.737 411.052C371.347 409.859 378.957 408.684 386.567 407.491C388.501 407.175 390.42 406.894 392.354 406.596C394.478 406.245 396.587 405.93 398.711 405.596C403.15 404.895 407.589 404.193 412.029 403.509C418.101 402.562 424.173 401.614 430.229 400.667C436.238 399.737 442.23 398.79 448.239 397.86C448.746 397.79 449.27 397.702 449.777 397.632L449.793 397.667Z" fill="#3C4D5A"/>
<path d="M543.331 611.083C535.389 609.733 527.525 608.154 519.757 606.4C517.093 605.803 514.43 605.172 511.782 604.523C496.848 600.857 482.278 596.418 468.184 591.243C465.679 582.473 462.048 570.754 456.943 557.352C455.913 554.633 454.961 552.213 454.058 550.002C451.727 544.248 449.761 539.898 447.78 535.706C444.799 529.39 441.755 523.426 437.332 513.55C435.429 509.305 433.257 504.323 430.737 498.288C430.15 496.885 429.548 495.429 428.929 493.921C428.929 493.885 428.913 493.85 428.882 493.815C424.569 483.325 419.861 470.783 416.468 455.205C415.327 449.925 414.328 444.294 413.551 438.277C413.297 436.19 413.06 434.12 412.869 432.103C411.839 421.595 411.728 411.947 412.061 403.527C412.061 403.334 412.061 403.141 412.077 402.948C412.108 402.246 412.14 401.544 412.172 400.843C412.457 394.949 412.98 389.668 413.551 385.16L455.849 394.019L461.604 395.212L463.095 395.527L474.684 397.966L505.472 404.404C507.406 413.736 509.325 423.104 511.243 432.506C512.004 436.19 512.733 439.874 513.478 443.54C514.62 449.224 515.761 454.907 516.903 460.573C518.25 467.309 519.598 474.045 520.914 480.764C522.674 489.675 524.418 498.587 526.13 507.48C532.028 537.881 537.719 568.141 543.189 598.278C543.236 602.523 543.284 606.786 543.316 611.048L543.331 611.083Z" fill="#3C4D5A"/>
<path d="M377.737 163.061C375.898 164.254 373.234 166.113 370.19 168.622C352.989 182.848 344.174 201.583 330.666 244.228C311.784 303.8 314.876 311.747 317.539 315.957C322.026 323.062 327.67 323.377 350.357 333.657C367.574 341.463 381.034 348.848 389.326 353.637C385.458 290.118 381.589 226.581 377.721 163.061H377.737Z" fill="#D1D3D4"/>
<path d="M521.866 480.431C504.205 487.378 474.035 496.482 436.112 494.359C400.742 492.377 373.172 481.431 356.509 473.151C360.283 445.207 362.09 422.297 363.041 406.614C364.563 381.652 364.88 359.128 365.197 330.149C365.229 327.833 365.245 325.465 365.277 323.079C365.641 286.504 365.039 282.61 366.291 264.91C366.941 255.841 367.702 248.333 372.236 209.583C374.472 190.55 376.374 174.604 377.754 163.061C389.803 158.448 407.733 153.343 429.723 153.29C459.718 153.22 483.071 162.57 496.278 169.183C501.24 226.739 506.075 284.276 510.784 341.849C514.034 381.494 517.205 421.157 520.312 460.819C520.835 467.345 521.343 473.905 521.866 480.431Z" fill="#D1D3D4"/>
<path style="mix-blend-mode:multiply" d="M521.866 480.431C504.205 487.378 474.035 496.482 436.112 494.36C400.742 492.377 373.172 481.431 356.509 473.151C360.283 445.207 362.09 422.297 363.041 406.614C364.563 381.652 364.88 359.128 365.197 330.149C368.574 345.446 373.489 361.111 380.655 375.758C409.937 435.717 382.557 454.153 430.183 456.802C466.219 458.784 503.618 459.661 520.328 460.819C520.851 467.345 521.359 473.906 521.882 480.431H521.866Z" fill="url(#paint1_linear_2983_16664)"/>
<path d="M585.249 374.021C588.927 375.547 594.143 378.372 598.789 383.862C600.707 386.143 600.485 386.371 602.72 389.055C606.081 393.089 608.047 394.195 617.75 401.615C624.345 406.667 627.754 409.456 628.737 408.474C629.149 408.053 628.99 407.141 628.863 406.474C628.42 403.948 626.723 402.983 624.884 400.878C621.634 397.177 619.922 392.212 620.397 391.826C620.429 391.791 620.477 391.791 620.572 391.826C621.697 392.019 622.522 392.879 623.537 393.774C623.901 394.089 624.266 394.388 624.63 394.686C625.423 395.335 626.596 396.229 628.372 397.457C630.243 398.756 633.096 400.703 637.012 402.387C639.311 403.369 642.038 404.509 642.72 403.527C642.799 403.422 643.084 402.948 642.498 401.51C640.833 397.422 635.712 394.423 633.366 393.195C632.684 392.721 626.58 388.441 627.389 385.652C627.437 385.459 627.532 385.266 627.659 385.09C630.718 386.055 635.728 387.511 641.61 388.493C641.61 388.493 647.143 389.423 653.358 389.774C653.596 389.774 656.418 389.932 656.798 389.125C657.179 388.353 656.37 386.827 655.704 385.932C653.088 382.459 648.919 383.319 643.148 381.88C636.679 380.266 630.782 376.425 631.099 374.916C631.353 373.688 635.728 373.758 637.219 373.776C639.058 373.793 640.215 374.284 645.145 375.074C650.647 375.951 652.2 376.723 654.61 375.881C655.197 375.67 657.86 374.741 657.844 373.267C657.844 372.285 656.655 371.302 655.007 370.776C648.76 368.846 642.514 366.899 636.267 364.97L623.869 361.689C624.171 361.303 624.535 360.9 625.027 360.514C625.582 360.075 625.804 359.988 626.406 359.619C627.088 359.198 627.563 358.865 627.738 358.742C629.292 357.655 634.698 359.356 637.536 357.321C638.661 356.514 639.834 354.778 639.501 353.48C639.105 351.866 635.062 350.954 626.913 350.129C625.09 349.954 609.284 357.128 609.205 357.199C608.824 357.532 608 357.672 606.494 357.462C603.862 357.111 601.341 356.339 599.661 355.708C598.012 354.848 596.078 353.831 593.953 352.638C592.114 355.199 590.275 357.76 588.42 360.321C587.342 364.899 586.28 369.496 585.202 374.074L585.249 374.021Z" fill="#F2A580"/>
<path d="M493.439 168.92C498.528 167.85 504.346 175.463 512.226 189.392C524.877 211.705 541.461 245.491 556.062 292.644C575.927 309.923 595.792 327.219 615.673 344.498C615.705 348.726 615.356 363.496 605.431 376.302C599.359 384.125 592.336 387.827 588.436 389.493C566.383 373.46 544.33 357.427 522.293 341.411C510.545 331.885 489.634 311.677 482.563 279.54C480.217 268.857 480.296 260.051 480.486 242.456C480.661 224.932 481.184 171.552 493.455 168.955L493.439 168.92Z" fill="#D1D3D4"/>
<path d="M363.04 406.632C363.04 406.632 363.008 406.632 362.992 406.632C362.659 406.632 362.406 406.316 362.406 405.965C362.437 404.579 365.18 267.752 365.18 266.84C365.18 266.471 365.45 266.173 365.783 266.191C366.116 266.191 366.369 266.489 366.369 266.857C366.369 267.769 363.706 400.352 363.595 406C363.595 406.351 363.341 406.632 363.04 406.649V406.632Z" fill="#989898"/>
<path d="M512.811 365.741C512.51 365.741 512.24 365.478 512.225 365.127L506.359 281.943C506.327 281.575 506.581 281.259 506.914 281.241C507.231 281.189 507.532 281.487 507.548 281.838L513.414 365.022C513.445 365.39 513.192 365.706 512.859 365.724C512.859 365.724 512.827 365.724 512.811 365.724V365.741Z" fill="#989898"/>
<path d="M579.875 375.144C579.732 375.144 579.574 375.092 579.463 374.969C579.225 374.723 579.225 374.302 579.447 374.039C583.505 369.355 587.405 364.391 591.02 359.269C594.714 354.024 598.218 348.498 601.404 342.867C601.579 342.551 601.944 342.463 602.229 342.656C602.514 342.849 602.594 343.253 602.419 343.569C599.217 349.252 595.697 354.813 591.971 360.093C588.341 365.251 584.409 370.25 580.319 374.969C580.208 375.109 580.049 375.179 579.891 375.179L579.875 375.144Z" fill="#989898"/>
</g>
<defs>
<linearGradient id="paint0_linear_2983_16664" x1="684.113" y1="228.492" x2="652.857" y2="279.16" gradientUnits="userSpaceOnUse">
<stop stop-color="white"/>
<stop offset="1" stop-color="#E6B49C"/>
</linearGradient>
<linearGradient id="paint1_linear_2983_16664" x1="443.88" y1="404.983" x2="216.008" y2="572.065" gradientUnits="userSpaceOnUse">
<stop stop-color="white"/>
<stop offset="0.99" stop-color="#CEC8E4"/>
</linearGradient>
<clipPath id="clip0_2983_16664">
<rect width="999" height="485" fill="white" transform="translate(0 0.442871)"/>
</clipPath>
</defs>
</svg>
