<svg width="938" height="602" viewBox="0 0 938 602" fill="none" xmlns="http://www.w3.org/2000/svg">
<path d="M878.523 283.226C878.521 283.232 878.518 283.239 878.515 283.245L878.532 283.206C878.529 283.213 878.526 283.219 878.523 283.226C895.65 244.791 908.619 201.743 918.172 151.607C918.787 148.458 918.401 144.601 910.08 142.684C902.892 141.028 891.323 141.897 888.183 148.945C887.887 149.608 887.67 150.317 887.54 151.051C878.556 198.143 866.621 238.06 850.992 273.055C834.914 309.132 815.174 339.921 790.666 367.242C738.035 425.863 664.398 459.671 577.736 464.999C535.424 467.597 487.333 475.535 437.365 479.619C355.787 468.398 280.261 447.38 238.615 430.332C230.563 431.241 241.296 448.441 237.215 444.36C233.134 440.279 231.688 461.78 233.389 452.012C298.344 483.608 369.582 485.16 437.365 479.619C497.707 487.92 561.36 490.861 617.062 482.871C739.311 465.343 827.287 398.18 878.523 283.226Z" fill="#3C3C3C"/>
<path d="M878.515 283.245C878.518 283.239 878.521 283.232 878.523 283.226C878.526 283.219 878.529 283.213 878.532 283.206L878.515 283.245Z" fill="#3C3C3C"/>
<path d="M59.1157 278.565C59.1186 278.572 59.1216 278.578 59.1245 278.585L59.1071 278.546C59.11 278.552 59.1128 278.558 59.1157 278.565C41.9893 240.131 29.0199 197.082 19.467 146.946C18.8526 143.797 19.2384 139.94 27.5593 138.023C34.747 136.367 46.3157 137.236 49.4565 144.284C49.7523 144.948 49.9694 145.656 50.0991 146.39C59.0827 193.482 71.0182 233.399 86.6469 268.394C102.725 304.471 122.465 335.261 146.973 362.581C199.604 421.202 273.241 455.01 359.903 460.338C412.008 463.537 471.06 474.715 531.672 476.827C586.82 469.126 635.076 456.673 668.267 443.086C676.318 443.995 693.517 444.616 697.598 440.536C701.679 436.455 699.299 456.68 697.599 446.912C643.726 473.117 587.048 478.756 531.672 476.827C466.441 485.935 391.568 488.393 320.577 478.21C198.328 460.682 110.353 393.519 59.1157 278.565Z" fill="#3C3C3C"/>
<path d="M59.1245 278.585C59.1216 278.578 59.1186 278.572 59.1157 278.565C59.1128 278.558 59.11 278.552 59.1071 278.546L59.1245 278.585Z" fill="#3C3C3C"/>
<path d="M750.841 456.758C754.141 442.713 757.078 428.601 752.379 414.466C747.709 400.421 735.207 398.192 727.907 410.414C727.879 410.482 727.823 410.549 727.795 410.617C725.138 407.578 721.474 405.688 718.09 405.125C705.168 402.964 694.652 414.826 685.255 429.388C680.612 421.533 671.047 419.822 665.033 427.34C661.621 431.617 658.349 436.028 655.104 440.507C652.14 431.752 642.043 426.372 635.722 432.359C634.799 433.215 633.96 434.16 633.093 435.083C631.555 423.964 622.661 415.343 613.487 422.321C612.592 423.019 611.725 423.761 610.858 424.482C610.41 423.266 609.963 422.051 609.348 420.925C604.034 411.314 593.965 409.919 587.868 418.247C587.085 415.794 586.106 413.453 584.679 411.269C580.428 404.765 569.94 404.562 565.745 411.269C564.262 413.633 562.808 416.019 561.353 418.404C557.606 409.851 548.264 406.003 540.489 414.286C535.483 419.62 531.008 425.607 526.784 431.887C526.896 431.031 527.064 430.221 527.176 429.366C528.994 414.713 518.561 403.189 507.486 410.234C498.424 416.019 491.712 424.594 485.754 434.092C485.67 431.189 485.419 428.24 484.943 425.202C483.321 415.051 472.078 408.996 465.253 415.073C454.989 424.234 448.948 427.88 440.529 439.809C441.536 432.337 440.249 430.581 438.599 424.684C434.795 411.179 422.909 409.964 416.196 417.212C411.386 422.411 407.05 428.15 402.939 434.137C402.631 430.851 402.1 427.543 401.205 424.234C397.961 412.08 386.41 407.691 378.802 416.761C376.453 419.575 374.131 422.456 371.866 425.359C373.432 419.462 374.747 413.43 375.642 407.218C377.907 391.508 363.224 377.71 353.239 390.742C344.009 402.784 335.535 415.636 327.116 428.555C329.997 417.594 332.654 406.543 334.64 395.221C337.437 379.331 321.942 366.006 312.237 378.746C298.224 397.157 285.471 416.919 272.773 436.771C275.682 425.99 278.423 415.163 280.716 404.134C283.737 389.684 271.235 377.8 261.026 385.003C243.462 397.405 232.386 416.559 222.178 436.793C226.429 418.382 231.631 400.263 236.889 382.189C242.93 361.707 217.059 352.862 211.13 373.186C198.6 416.154 187.189 459.189 186.014 505.352C185.623 520.365 200.782 527.252 208.893 517.326C219.269 504.61 226.988 488.426 234.736 472.266C231.575 484.105 228.638 496.034 226.289 508.233C223.213 524.169 239.155 537.358 248.692 524.709C262.676 506.163 275.402 486.311 288.128 466.436C285.471 475.957 282.954 485.545 280.772 495.269C276.94 512.375 293.47 522.458 303.175 511.744C311.482 502.561 319.033 492.545 326.305 482.169C325.83 484.713 325.382 487.278 325.046 489.889C322.921 506.185 337.017 518.542 347.449 506.365C355.141 497.362 362.329 487.774 369.461 478.073C368.286 482.619 367.307 487.053 366.832 491.172C364.986 506.95 378.858 520.59 389.234 507.648C392.982 502.989 396.422 498.015 399.779 492.928C399.667 493.536 399.527 494.166 399.415 494.774C396.842 509.381 408.561 520.95 419.105 513.905C430.824 506.072 439.718 494.706 448.22 482.777C447.102 486.491 446.207 490.159 445.703 493.693C443.801 507.243 454.709 521.4 465.393 512.825C472.189 507.378 477.671 500.153 482.65 492.298C482.23 493.671 481.783 495.044 481.391 496.417C477.308 509.989 491.768 523.674 501.081 515.548C503.794 513.162 506.367 510.619 508.828 507.963C510.423 520.095 523.931 526.532 531.679 517.011C536.713 510.799 541.496 504.317 546.083 497.632C548.544 505.105 555.648 509.876 562.276 507.941C564.038 507.423 565.689 506.68 567.339 505.825C570.303 517.169 581.323 525.002 588.903 513.365C592.762 507.468 596.146 500.716 599.531 493.806C603.083 503.191 613.207 506.658 620.927 498.69C622.661 496.912 624.283 494.954 625.849 492.95C625.877 493.13 625.877 493.288 625.905 493.468C628.031 505.96 641.568 509.786 648.308 500.941C651.021 497.384 653.65 493.716 656.251 490.024C660.083 498.622 671.074 501.098 677.955 494.188C680.668 491.465 684.304 485.658 688.331 478.815C687.772 489.822 695.1 501.121 704.861 497.002C710.454 494.661 715.237 490.655 719.516 485.658C720.607 493.108 726.928 500.018 732.773 499.32C745.611 497.767 752.351 489.709 755.736 474.111C757.414 466.369 754.98 460.269 751.009 456.69L750.841 456.758Z" fill="#2372B9"/>
</svg>
