<svg width="232" height="182" viewBox="0 0 232 182" fill="none" xmlns="http://www.w3.org/2000/svg">
<path d="M252.33 92.8467C245.832 51.5295 198.699 21.5643 157.678 8.34876C99.8431 -10.2858 41.2108 1.73028 10.3123 51.2296C0.914718 66.2871 -2.63656 95.2456 2.07432 111.588C18.9851 170.062 100.93 188.889 159.828 178.18C204.787 169.998 259.699 139.669 252.33 92.8681V92.8467ZM92.8613 163.808C59.1604 156.825 24.4208 137.355 16.8109 105.27C10.264 77.5964 20.2897 45.0181 65.5382 20.4933C91.2669 11.3474 121.32 12.0757 150.479 21.0502C187.586 32.4665 239.212 63.0529 237.062 103.106C234.067 158.86 140.043 173.575 92.8372 163.786L92.8613 163.808Z" fill="#FFE50D"/>
</svg>
