<svg width="228" height="183" viewBox="0 0 228 183" fill="none" xmlns="http://www.w3.org/2000/svg">
<path d="M227.341 93.8376C220.945 52.0638 174.557 21.7675 134.185 8.40596C77.2645 -10.4345 19.5593 1.71435 -10.8507 51.7606C-20.0997 66.9845 -23.5949 96.263 -18.9585 112.786C-2.31501 171.906 78.3345 190.942 136.301 180.114C180.549 171.841 234.593 141.177 227.341 93.8592V93.8376ZM70.3932 165.583C37.2251 158.523 3.03467 138.838 -4.45489 106.398C-10.8983 78.4187 -1.03109 45.4805 43.5021 20.6847C68.8239 11.4377 98.4017 12.174 127.1 21.2478C163.62 32.7902 214.43 63.7145 212.314 104.211C209.366 160.58 116.828 175.458 70.3694 165.561L70.3932 165.583Z" fill="#FFE50D"/>
</svg>
