<svg width="88" height="85" viewBox="0 0 88 85" fill="none" xmlns="http://www.w3.org/2000/svg">
<path d="M80.8497 25.3108C79.3766 21.4415 76.9103 18.003 73.7926 15.2897C73.2966 14.8458 72.7673 14.4061 72.2422 13.9996C70.5207 12.4271 68.2009 11.2011 65.3162 10.3176C63.5844 9.72673 61.8158 9.37723 60.0392 9.23156C59.6606 9.17836 59.2529 9.16266 58.841 9.11369L58.4998 9.08951C56.9272 8.9517 55.3382 8.9512 53.8078 9.14606C50.0819 9.62051 47.0485 11.021 44.6684 12.5073C42.1599 10.5955 38.9286 9.11372 35.012 8.09113C32.2483 7.36122 29.3195 7.19325 26.3254 7.5745C20.936 8.26076 14.6697 11.0871 11.9558 13.9344C7.24475 18.3545 4.40887 24.2262 3.9786 30.6705C3.9786 30.6705 3.9786 30.6705 3.98284 30.7038L3.99131 30.7703C3.58945 36.9068 5.44195 42.959 9.23843 47.8171C11.3799 51.0942 20.6922 65.0202 32.3627 77.0231C35.0854 79.8205 37.9864 80.5667 40.0581 80.641C40.8444 80.7099 41.6223 80.7123 42.3875 80.6148C44.4168 80.3564 46.3366 79.5034 48.1511 78.0891C61.3053 67.7595 72.4202 55.2216 74.9841 52.2582C79.3752 47.9803 82.0242 42.2338 82.4551 36.0599C82.4551 36.0599 82.4423 35.9601 82.4381 35.9268C82.5312 34.7993 82.5202 33.6513 82.447 32.545C82.4712 32.2038 82.4373 31.9377 82.4034 31.6715C82.1988 29.5339 81.6573 27.4054 80.8164 25.315L80.8497 25.3108Z" fill="white"/>
<path d="M59.4266 14.2453C53.39 13.8307 47.8422 16.1937 43.9622 20.2375C40.6491 15.7236 35.4548 12.6324 29.4182 12.2178C18.5764 11.5023 9.20684 19.6935 8.48711 30.502C8.12451 35.6192 9.78276 40.4115 12.7572 44.1235C14.5272 46.8731 24.2278 61.4596 36.3321 73.9482C37.4953 75.1186 38.7656 75.802 40.184 75.7904C41.5988 76.0159 42.9537 75.5053 44.2451 74.4957C57.9224 63.7614 69.4976 50.5902 71.6175 48.1228C75.0542 44.8454 77.3524 40.3269 77.6818 35.2139C78.3972 24.3721 70.2061 15.0025 59.3976 14.2828L59.4266 14.2453Z" fill="#ECEAEA"/>
<path opacity="0.2" d="M12.5941 32.7514C12.5941 32.7514 7.94168 17.4544 23.2617 13.7795C29.1651 12.3516 37.2321 18.3563 37.2321 18.3563C37.2321 18.3563 28.7285 14.2328 22.5415 17.1505C11.0982 22.5969 12.5899 32.7181 12.5899 32.7181L12.5941 32.7514Z" fill="white"/>
<path opacity="0.5" d="M73.8958 36.5411C73.6273 37.3528 73.2547 38.144 72.8114 38.9104C70.8736 42.8084 63.1778 51.6654 59.3256 55.1309C53.8603 60.7965 45.9376 68.6682 40.6207 68.331C36.6642 68.0573 28.9625 59.8762 24.3016 53.5393C21.0023 49.6659 13.341 39.147 11.9465 35.0987C11.5285 34.2053 11.2393 33.2618 11.0832 32.3012C10.8147 33.113 10.6544 33.9786 10.5982 34.8647C10.4653 36.741 10.8313 38.5538 11.6172 40.2117C13.0159 44.2933 20.673 54.7789 23.9765 58.6856C28.6416 65.0558 36.5582 74.3927 40.1402 74.6465C43.2064 74.8308 50.3108 69.2946 59.0005 60.2772C62.8527 56.8117 70.5485 47.9546 72.4863 44.0567C73.3814 42.5905 73.9142 40.9337 74.0599 39.1572C74.0599 39.1572 74.0599 39.1572 74.0556 39.1239C74.0635 38.92 74.0671 38.6829 74.0707 38.4458C74.0568 37.8053 74.0095 37.1689 73.8958 36.5411Z" fill="#C1B8B7"/>
<path d="M71.8446 45.3895C69.7247 47.8569 58.1495 61.0281 44.4722 71.7624C43.1808 72.772 41.826 73.2826 40.4111 73.0571C38.9927 73.0687 37.6934 72.4228 36.5634 71.2482C24.4259 58.7638 14.7585 44.173 12.9885 41.4234C10.2978 38.081 8.70735 33.821 8.66775 29.2621C8.59399 29.7448 8.55349 30.2233 8.51299 30.7017C8.15039 35.8189 9.80864 40.6112 12.783 44.3232C14.5488 47.0395 24.2204 61.6635 36.358 74.1479C37.5212 75.3183 38.7915 76.0017 40.2099 75.9901C41.6247 76.2157 42.9796 75.7051 44.2709 74.6955C57.9482 63.9611 69.5235 50.7899 71.6434 48.3225C75.0801 45.0451 77.3783 40.5266 77.7076 35.4136C77.7481 34.9351 77.7511 34.4276 77.7584 33.9534C77.1157 38.464 74.9535 42.4581 71.8489 45.4228L71.8446 45.3895Z" fill="#9C9898"/>
<path style="mix-blend-mode:multiply" opacity="0.5" d="M28.6069 59.2119C28.6069 59.2119 37.0715 68.0734 40.6535 68.3272C45.9746 68.6976 55.4161 59.2127 55.4161 59.2127C55.4161 59.2127 53.5842 63.9423 49.2385 68.0454C46.9764 70.1928 43.0358 73.2301 40.4107 73.0573C37.7522 72.8887 34.0229 68.2925 32.2626 66.1502C28.8672 62.0524 28.6444 59.2409 28.6444 59.2409L28.6069 59.2119Z" fill="#E2DBDB"/>
</svg>
