<svg width="41" height="40" viewBox="0 0 41 40" fill="none" xmlns="http://www.w3.org/2000/svg">
<path d="M35.7203 12.6594C35.002 10.9922 33.8567 9.53239 32.4398 8.40258C32.2141 8.21746 31.974 8.03481 31.7363 7.86666C30.9525 7.21024 29.9131 6.71694 28.6328 6.38429C27.863 6.15811 27.0816 6.03836 26.3006 6.00805C26.1337 5.99188 25.9548 5.99269 25.7735 5.97901L25.6236 5.97485C24.932 5.94414 24.2359 5.97389 23.5692 6.08811C21.9459 6.36622 20.6435 7.03692 19.6289 7.73292C18.4939 6.9427 17.0504 6.35454 15.3154 5.98043C14.091 5.7128 12.8048 5.69445 11.5003 5.91793C9.15235 6.32019 6.46057 7.6765 5.3254 8.975C3.34497 11.0002 2.21339 13.6258 2.14643 16.457C2.14643 16.457 2.14643 16.457 2.14891 16.4715L2.15388 16.5005C2.09356 19.1963 3.01922 21.8126 4.77396 23.8692C5.77386 25.2644 10.1159 31.1894 15.4548 36.2274C16.7003 37.4015 17.9852 37.6737 18.8941 37.6672C19.2399 37.6826 19.5807 37.6689 19.9141 37.6118C20.7982 37.4603 21.6231 37.0505 22.3913 36.3967C27.959 31.6235 32.5916 25.9214 33.6589 24.5749C35.5018 22.6181 36.5539 20.0508 36.6262 17.338C36.6262 17.338 36.6188 17.2945 36.6163 17.28C36.6358 16.7844 36.6094 16.2816 36.5564 15.7984C36.5606 15.6485 36.5407 15.5325 36.5208 15.4166C36.3909 14.484 36.1136 13.5618 35.7058 12.6619L35.7203 12.6594Z" fill="#74696A"/>
<path d="M36.5152 10.6358C35.7969 8.96852 34.6516 7.5087 33.2347 6.3789C33.0091 6.19377 32.7689 6.01113 32.5312 5.84298C31.7474 5.18656 30.7081 4.69326 29.4277 4.36061C28.6579 4.13443 27.8765 4.01468 27.0955 3.98437C26.9287 3.9682 26.7498 3.96901 26.5684 3.95533L26.4185 3.95117C25.7269 3.92046 25.0308 3.9502 24.3641 4.06443C22.7408 4.34254 21.4384 5.01324 20.4238 5.70924C19.2889 4.91902 17.8454 4.33086 16.1103 3.95675C14.8859 3.68912 13.5997 3.67076 12.2953 3.89424C9.94727 4.29651 7.25549 5.65282 6.12032 6.95132C4.13989 8.97647 3.00831 11.6022 2.94135 14.4333C2.94135 14.4333 2.94135 14.4333 2.94383 14.4478L2.9488 14.4768C2.88848 17.1726 3.81414 19.789 5.56888 21.8456C6.56878 23.2408 10.9108 29.1657 16.2497 34.2038C17.4952 35.3779 18.7801 35.65 19.6891 35.6435C20.0348 35.6589 20.3756 35.6452 20.709 35.5881C21.5931 35.4367 22.418 35.0268 23.1862 34.373C28.7539 29.5998 33.3866 23.8978 34.4538 22.5512C36.2968 20.5944 37.3488 18.0271 37.4212 15.3143C37.4212 15.3143 37.4137 15.2708 37.4112 15.2564C37.4308 14.7607 37.4043 14.258 37.3513 13.7747C37.3555 13.6248 37.3356 13.5089 37.3158 13.3929C37.1858 12.4603 36.9085 11.5381 36.5007 10.6382L36.5152 10.6358Z" fill="white"/>
<path d="M26.9226 6.19276C24.2703 6.12499 21.8846 7.26476 20.2611 9.10941C18.7246 7.19446 16.3909 5.93826 13.7386 5.87049C8.97565 5.76151 5.02559 9.52651 4.91413 14.275C4.85179 16.5235 5.66859 18.5916 7.04158 20.1616C7.86883 21.3327 12.3935 27.5397 17.9315 32.7824C18.4632 33.2731 19.0325 33.5485 19.6537 33.5167C20.2777 33.5888 20.8616 33.3396 21.4083 32.873C27.1975 27.9127 32.0198 21.9245 32.902 20.8036C34.3457 19.3031 35.2672 17.2803 35.3151 15.0342C35.4241 10.2713 31.6591 6.3212 26.9106 6.20974L26.9226 6.19276Z" fill="#AFAFAF"/>
<path opacity="0.2" d="M6.75636 15.1824C6.75636 15.1824 4.4298 8.56904 11.0717 6.67025C13.6309 5.93342 17.2781 8.41175 17.2781 8.41175C17.2781 8.41175 13.4751 6.76574 10.8198 8.16057C5.90957 10.7623 6.75388 15.1679 6.75388 15.1679L6.75636 15.1824Z" fill="white"/>
<path opacity="0.5" d="M33.6817 15.6868C33.5794 16.0475 33.4311 16.4011 33.2514 16.7452C32.476 18.4893 29.2717 22.5144 27.6495 24.1052C25.3622 26.6902 22.0399 30.288 19.7044 30.2405C17.9661 30.1952 14.4379 26.7566 12.2766 24.0685C10.7582 22.4339 7.20364 17.9704 6.51641 16.2232C6.31644 15.8397 6.17196 15.4318 6.08546 15.014C5.98314 15.3747 5.92927 15.7569 5.92136 16.1461C5.8985 16.9706 6.09305 17.7578 6.46856 18.4693C7.15827 20.2309 10.7104 24.6799 12.2312 26.329C14.395 29.0317 18.0391 32.9726 19.6131 33.0162C20.9597 33.0392 23.9676 30.4799 27.6042 26.3658C29.2264 24.775 32.4307 20.7499 33.206 19.0058C33.5705 18.3466 33.7727 17.6107 33.803 16.8297C33.803 16.8297 33.803 16.8297 33.8005 16.8153C33.8001 16.7258 33.7972 16.6219 33.7943 16.5179C33.7761 16.2376 33.7434 15.9597 33.6817 15.6868Z" fill="#CACACA"/>
<path d="M32.9486 19.6013C32.0665 20.7221 27.2441 26.7103 21.4549 31.6707C20.9083 32.1373 20.3244 32.3865 19.7003 32.3144C19.0792 32.3462 18.4978 32.0878 17.9807 31.5945C12.4281 26.3544 7.91799 20.1449 7.09074 18.9738C5.849 17.5603 5.07193 15.7241 4.9686 13.7277C4.94539 13.9406 4.93668 14.151 4.92796 14.3613C4.86561 16.6099 5.68242 18.678 7.05541 20.2479C7.88018 21.4046 12.3928 27.6285 17.9453 32.8687C18.477 33.3595 19.0463 33.6349 19.6675 33.6031C20.2915 33.6752 20.8754 33.426 21.4221 32.9593C27.2113 27.999 32.0337 22.0108 32.9158 20.8899C34.3595 19.3894 35.2811 17.3666 35.3289 15.1206C35.3376 14.9102 35.3294 14.6878 35.3236 14.4799C35.1271 16.468 34.2553 18.2585 32.9511 19.6158L32.9486 19.6013Z" fill="#C8C8C8"/>
</svg>
