<svg width="839" height="502" viewBox="0 0 839 502" fill="none" xmlns="http://www.w3.org/2000/svg">
<path d="M819.49 187.569C836.384 149.661 834.5 157.376 834.5 151.876C834 149.376 833.881 144.092 825.675 142.201C819.868 140.863 811.161 141.197 806.5 145.183C806.537 144.975 806.329 145.203 806.021 145.619C805.212 146.406 804.55 147.321 804.08 148.376C803.872 148.842 805.256 146.652 806.021 145.619C806.176 145.469 806.335 145.323 806.5 145.183C803 153.876 807.761 143.008 792.348 177.519C776.492 213.097 757.025 243.461 732.856 270.404C680.953 328.214 608.334 361.555 522.871 366.808C481.143 369.371 433.718 377.199 384.44 381.227C303.99 370.16 229.508 349.433 188.438 332.621C180.498 333.518 191.083 350.48 187.058 346.455C183.033 342.431 181.608 363.635 183.285 354.002C247.342 385.16 317.594 386.691 384.44 381.227C443.948 389.413 506.721 392.313 561.652 384.433C682.217 367.147 768.98 300.907 819.507 187.53L819.49 187.569Z" fill="#DA91C8"/>
<path d="M11.4297 182.97C11.4299 182.971 11.4301 182.971 11.4303 182.971L11.4132 182.933C11.4187 182.945 11.4242 182.958 11.4297 182.97C11.4123 182.931 11.339 182.732 4.99891 165.57C4.39297 162.464 8.29322 156.495 16.4991 154.605C22.9995 151.911 23.0001 151.911 23.0001 151.911C24.5001 150.911 24.9995 150.911 25.5001 150.911C26.5001 150.911 29 150.911 38.5722 172.921C54.4279 208.5 73.8948 238.864 98.0638 265.806C149.967 323.617 222.586 356.957 308.049 362.211C359.434 365.366 417.67 376.39 477.444 378.472C531.829 370.878 579.417 358.597 612.15 345.198C620.09 346.095 637.05 346.707 641.075 342.683C645.1 338.658 642.753 358.604 641.076 348.971C587.948 374.814 532.054 380.374 477.444 378.472C413.115 387.454 339.277 389.878 269.268 379.836C148.716 362.552 61.9594 296.324 11.4297 182.97Z" fill="#DA91C8"/>
<path d="M11.4303 182.971C11.4301 182.971 11.4299 182.971 11.4297 182.97C11.4242 182.958 11.4187 182.945 11.4132 182.933L11.4303 182.971Z" fill="#DA91C8"/>
<path d="M687.492 363.593C690.46 350.962 693.101 338.27 688.875 325.558C684.675 312.926 673.431 310.922 666.866 321.914C666.841 321.975 666.791 322.035 666.766 322.096C664.376 319.363 661.081 317.663 658.037 317.157C646.417 315.214 636.959 325.881 628.507 338.978C624.332 331.914 615.729 330.375 610.321 337.136C607.253 340.982 604.31 344.95 601.392 348.978C598.726 341.104 589.645 336.266 583.961 341.65C583.131 342.419 582.376 343.27 581.596 344.099C580.213 334.1 572.214 326.347 563.964 332.622C563.159 333.25 562.379 333.918 561.599 334.565C561.197 333.472 560.794 332.379 560.241 331.367C555.462 322.724 546.407 321.469 540.923 328.958C540.219 326.752 539.339 324.647 538.056 322.683C534.232 316.833 524.8 316.651 521.027 322.683C519.694 324.809 518.386 326.954 517.078 329.1C513.707 321.408 505.306 317.946 498.313 325.396C493.811 330.193 489.786 335.577 485.988 341.225C486.089 340.456 486.24 339.727 486.34 338.958C487.975 325.78 478.593 315.416 468.632 321.752C460.483 326.954 454.446 334.667 449.088 343.209C449.013 340.598 448.786 337.946 448.359 335.213C446.9 326.084 436.788 320.639 430.651 326.104C421.42 334.343 415.986 337.622 408.415 348.35C409.321 341.63 408.164 340.051 406.68 334.748C403.259 322.602 392.569 321.509 386.532 328.027C382.205 332.703 378.307 337.865 374.609 343.249C374.332 340.294 373.854 337.318 373.05 334.343C370.132 323.412 359.743 319.465 352.902 327.622C350.789 330.153 348.701 332.744 346.664 335.355C348.072 330.051 349.254 324.626 350.059 319.04C352.097 304.91 338.891 292.502 329.911 304.222C321.611 315.052 313.989 326.61 306.418 338.229C309.009 328.371 311.399 318.432 313.184 308.25C315.7 293.959 301.765 281.976 293.037 293.433C280.435 309.991 268.965 327.764 257.545 345.618C260.161 335.922 262.626 326.185 264.689 316.266C267.405 303.271 256.162 292.583 246.981 299.06C231.184 310.214 221.224 327.44 212.043 345.638C215.866 329.08 220.545 312.785 225.273 296.53C230.707 278.11 207.44 270.155 202.107 288.433C190.838 327.076 180.576 365.779 179.519 407.296C179.167 420.797 192.8 426.991 200.095 418.065C209.427 406.628 216.369 392.074 223.337 377.54C220.494 388.187 217.853 398.915 215.74 409.887C212.973 424.218 227.311 436.08 235.888 424.704C248.465 408.024 259.91 390.171 271.354 372.297C268.965 380.859 266.701 389.483 264.739 398.227C261.293 413.611 276.159 422.68 284.887 413.045C292.357 404.786 299.149 395.778 305.689 386.446C305.261 388.734 304.859 391.041 304.557 393.389C302.645 408.045 315.323 419.158 324.705 408.207C331.622 400.11 338.086 391.487 344.5 382.762C343.444 386.851 342.564 390.839 342.136 394.543C340.476 408.733 352.952 421 362.284 409.36C365.654 405.17 368.748 400.697 371.767 396.122C371.666 396.669 371.54 397.235 371.44 397.782C369.126 410.919 379.665 421.324 389.148 414.988C399.687 407.944 407.686 397.721 415.332 386.993C414.326 390.333 413.521 393.632 413.069 396.81C411.358 408.996 421.168 421.729 430.777 414.016C436.889 409.118 441.819 402.62 446.296 395.555C445.919 396.79 445.516 398.025 445.164 399.26C441.492 411.466 454.496 423.773 462.872 416.466C465.312 414.32 467.626 412.032 469.84 409.644C471.274 420.554 483.423 426.344 490.39 417.781C494.918 412.194 499.219 406.365 503.344 400.353C505.558 407.073 511.947 411.364 517.908 409.624C519.493 409.158 520.977 408.49 522.461 407.721C525.127 417.923 535.037 424.967 541.854 414.502C545.325 409.199 548.369 403.126 551.412 396.911C554.607 405.353 563.712 408.47 570.655 401.304C572.214 399.705 573.673 397.944 575.082 396.142C575.107 396.304 575.107 396.446 575.132 396.608C577.043 407.842 589.218 411.283 595.28 403.328C597.72 400.13 600.084 396.831 602.423 393.511C605.869 401.243 615.755 403.47 621.942 397.256C624.382 394.806 627.652 389.584 631.274 383.43C630.771 393.329 637.361 403.49 646.14 399.786C651.171 397.681 655.472 394.078 659.32 389.584C660.301 396.284 665.986 402.498 671.243 401.871C682.788 400.474 688.85 393.227 691.894 379.2C693.403 372.236 691.215 366.751 687.643 363.532L687.492 363.593Z" fill="#FEE33E"/>
</svg>
