<svg width="24" height="25" viewBox="0 0 24 25" fill="none" xmlns="http://www.w3.org/2000/svg">
<path d="M8.39002 20.7406C8.64362 21.4891 9.62438 21.6615 10.1181 21.0443L13.0628 17.363C13.2802 17.0912 13.6234 16.952 13.9687 16.9955L18.6231 17.5822C19.333 17.6716 19.9045 17.0083 19.7109 16.3194L15.8716 2.66106C15.7099 2.08553 15.0826 1.7796 14.5295 2.00646L4.43555 6.14648C3.94703 6.34684 3.69847 6.89247 3.86789 7.39256L8.39002 20.7406Z" fill="#AFAFAF"/>
<path d="M13.8377 1.39768L3.70411 5.04956C2.58941 5.45127 1.43857 6.89821 1.84095 8.01478L7.39636 23.4304C7.63824 24.1016 8.485 24.3109 9.01168 23.8296L14.1099 19.1712C14.3064 18.9917 14.5664 18.8979 14.8323 18.9106L21.7453 19.2421C22.4577 19.2763 22.9758 18.5752 22.734 17.9042L17.1783 2.4876C16.7759 1.37103 14.9524 0.995969 13.8377 1.39768ZM18.7995 15.1663C19.043 15.8417 18.5164 16.546 17.7997 16.5036L13.8921 16.2722C13.6188 16.2561 13.3509 16.3526 13.1507 16.5394L10.289 19.2102C9.76416 19.7001 8.90938 19.4936 8.66597 18.8182L4.5111 7.28889C4.32386 6.76931 4.59327 6.19632 5.11285 6.00908L13.3649 3.03526C13.8845 2.84802 14.4574 3.11743 14.6447 3.637L18.7995 15.1663Z" fill="#746969"/>
<path d="M13.6726 0.940765L3.53901 4.59265C2.42432 4.99436 1.84152 6.23659 2.24391 7.35316L7.58227 22.1665C7.82576 22.8422 8.6809 23.0485 9.2057 22.5582L13.7792 18.2857C13.9795 18.0986 14.2478 18.0019 14.5214 18.0183L20.7689 18.3911C21.4858 18.4339 22.0128 17.7295 21.7693 17.0539L16.4309 2.24052C16.0285 1.12395 14.7873 0.539058 13.6726 0.940765ZM20.717 16.0308C20.9795 16.682 20.5067 17.394 19.8046 17.4046L14.0062 17.492C13.7468 17.4959 13.499 17.6005 13.3152 17.7837L9.52142 21.5659C9.00288 22.0829 8.12286 21.8856 7.87462 21.1968L5.24405 13.8973L3.52288 7.55954C3.38633 7.05673 3.65873 6.53332 4.14889 6.35668L14.3038 2.69709C14.8098 2.51477 15.3693 2.76521 15.5703 3.26398L20.717 16.0308Z" fill="white"/>
<path d="M13.6202 2.28247L3.8822 5.79179C2.50266 6.28894 2.71357 6.8742 3.1354 8.04473L7.8751 21.1969C8.12334 21.8857 9.00336 22.083 9.5219 21.566L13.3157 17.7838C13.4995 17.6006 13.7472 17.496 14.0067 17.4921L19.8618 17.4038C20.5481 17.3935 21.0202 16.7106 20.7875 16.0649L16.2708 3.53148C15.5678 1.58061 14.9997 1.78532 13.6202 2.28247ZM18.3843 14.5591C18.6242 15.2248 18.1158 15.9222 17.4086 15.8975L13.4257 15.7583C13.1359 15.7482 12.856 15.8643 12.6585 16.0766L10.3857 18.5202C9.87582 19.0684 8.96652 18.8825 8.7127 18.1782L7.15959 13.8685L4.95119 7.74041C4.76395 7.22084 5.03336 6.64785 5.55293 6.46061L13.3857 3.63789C13.9052 3.45065 14.4782 3.72006 14.6655 4.23963L18.3843 14.5591Z" fill="#BCBCBC"/>
<path d="M13.6202 2.28247L3.8822 5.79179C2.50266 6.28894 2.71357 6.8742 3.1354 8.04473L7.8751 21.1969C8.12334 21.8857 9.00336 22.083 9.5219 21.566L13.3157 17.7838C13.4995 17.6006 13.7472 17.496 14.0067 17.4921L19.8618 17.4038C20.5481 17.3935 21.0202 16.7106 20.7875 16.0649L16.2708 3.53148C15.5678 1.58061 14.9997 1.78532 13.6202 2.28247ZM19.1981 15.2163C19.4395 15.8861 18.9235 16.5864 18.2123 16.5544L13.6148 16.3472C13.3377 16.3347 13.0679 16.4379 12.8698 16.632L10.0242 19.4207C9.50387 19.9306 8.63045 19.7309 8.38346 19.0456L6.59154 14.0732L4.1887 7.40556C4.00145 6.88598 4.27086 6.31299 4.79044 6.12575L13.7018 2.91432C14.2214 2.72708 14.7944 2.99649 14.9816 3.51606L17.1735 9.59844L19.1981 15.2163Z" fill="#C8C8C8"/>
<path opacity="0.2" d="M11.6838 5.03436C11.6838 5.03436 13.1165 3.53808 14.4418 4.98533C14.9538 5.54226 14.7639 6.81555 14.7639 6.81555C14.7639 6.81555 14.7174 5.6154 14.0219 5.12322C12.7299 4.21613 11.6872 5.03175 11.6872 5.03175L11.6838 5.03436Z" fill="white"/>
<path opacity="0.2" d="M7.29762 10.5358C7.29762 10.5358 5.88536 8.39925 6.6705 7.64612C7.02014 6.87007 9.07711 6.56308 9.07711 6.56308C9.07711 6.56308 7.06271 7.15413 6.91291 7.99495C6.64107 9.55409 7.29762 10.5358 7.29762 10.5358Z" fill="white"/>
<path opacity="0.2" d="M11.387 14.3664L8.63533 17.9651L11.6738 14.6984C12.0919 14.2489 12.6933 14.0163 13.3051 14.0675L18.2922 14.485L13.322 13.6115C12.5866 13.4822 11.8405 13.7733 11.387 14.3664Z" fill="white"/>
</svg>
