<svg width="49" height="56" viewBox="0 0 49 56" fill="none" xmlns="http://www.w3.org/2000/svg">
<path d="M10.1724 1.40489C10.3862 1.08426 10.8137 0.763637 11.2412 0.763637C11.6687 0.763637 11.9893 1.08426 12.2031 1.40489L14.8749 5.89363C15.3024 6.64175 15.5162 7.38988 15.5162 8.24487V8.45862C15.5162 10.9167 13.5924 12.7336 11.2412 12.7336C8.78306 12.7336 6.96619 10.9167 6.96619 8.45862V8.24487C6.96619 7.38988 7.17994 6.64175 7.50056 5.89363L10.1724 1.40489ZM23.8524 1.40489C24.0662 1.08426 24.4937 0.763637 24.9212 0.763637C25.3487 0.763637 25.6693 1.08426 25.883 1.40489L28.5549 5.89363C28.9824 6.64175 29.1962 7.38988 29.1962 8.24487V8.45862C29.1962 10.9167 27.2724 12.7336 24.9212 12.7336C22.463 12.7336 20.6462 10.9167 20.6462 8.45862V8.24487C20.6462 7.38988 20.8599 6.64175 21.1805 5.89363L23.8524 1.40489ZM34.8605 5.89363L37.5324 1.40489C37.7461 1.08426 38.1736 0.763637 38.6011 0.763637C39.0286 0.763637 39.3493 1.08426 39.563 1.40489L42.2349 5.89363C42.6624 6.64175 42.8761 7.38988 42.8761 8.24487V8.45862C42.8761 10.9167 40.9524 12.7336 38.6011 12.7336C36.143 12.7336 34.3261 10.9167 34.3261 8.45862V8.24487C34.3261 7.38988 34.5399 6.64175 34.8605 5.89363ZM14.6612 19.5736V24.7036H21.5012V19.5736C21.5012 17.7567 22.9974 16.1536 24.9212 16.1536C26.738 16.1536 28.3412 17.7567 28.3412 19.5736V24.7036H35.1811V19.5736C35.1811 17.7567 36.6774 16.1536 38.6011 16.1536C40.418 16.1536 42.0211 17.7567 42.0211 19.5736V24.7036C45.7617 24.7036 48.8611 27.803 48.8611 31.5436V39.1317C47.8992 39.7729 46.9374 40.0936 45.7617 40.0936C44.2655 40.0936 42.8761 39.4523 41.7005 38.7042C41.0593 38.3836 40.6318 37.9561 40.3111 37.6354C40.0974 37.5286 39.9905 37.4217 39.8836 37.3148C39.8836 37.3148 39.7768 37.3148 39.7768 37.2079C39.4561 36.8873 39.0286 36.6736 38.4943 36.7805C38.0668 36.7805 37.6393 36.9942 37.3186 37.3148C37.2118 37.3148 37.2118 37.3148 37.2118 37.4217C37.1049 37.4217 36.998 37.5286 36.8911 37.7423C36.5705 37.9561 36.143 38.3836 35.6086 38.7042C34.5399 39.4523 33.1505 40.0936 31.7611 40.0936C30.2649 40.0936 28.9824 39.4523 27.8068 38.7042C27.2724 38.3836 26.8449 37.9561 26.6312 37.7423C26.4174 37.5286 26.3105 37.4217 26.2037 37.4217C26.2037 37.3148 26.2037 37.3148 26.2037 37.3148C25.883 36.9942 25.3487 36.7805 24.9212 36.7805C24.3868 36.7805 23.9593 36.8873 23.6387 37.3148C23.5318 37.3148 23.5318 37.3148 23.5318 37.4217C23.4249 37.4217 23.318 37.5286 23.2112 37.7423C22.8905 37.9561 22.463 38.3836 21.9287 38.7042C20.8599 39.4523 19.4705 40.0936 18.0812 40.0936C16.5849 40.0936 15.3024 39.4523 14.1268 38.7042C13.5924 38.3836 13.1649 37.9561 12.9512 37.7423C12.7374 37.5286 12.6306 37.4217 12.5237 37.4217C12.5237 37.3148 12.5237 37.3148 12.5237 37.3148C12.2031 36.9942 11.7756 36.7805 11.2412 36.7805C10.8137 36.6736 10.2793 36.8873 9.95869 37.2079C9.95869 37.3148 9.95869 37.3148 9.85181 37.3148C9.74494 37.4217 9.63806 37.5286 9.53119 37.6354C9.21056 37.9561 8.67619 38.3836 8.14181 38.7042C6.96619 39.4523 5.46994 40.0936 3.9737 40.0936C2.90495 40.0936 1.8362 39.7729 0.981201 39.1317V31.5436C0.981201 27.803 3.9737 24.7036 7.82119 24.7036V19.5736C7.82119 17.7567 9.31744 16.1536 11.2412 16.1536C13.0581 16.1536 14.6612 17.7567 14.6612 19.5736ZM48.8611 42.9792V52.0635C48.8611 53.9873 47.258 55.4835 45.4411 55.4835H4.4012C2.47745 55.4835 0.981201 53.9873 0.981201 52.0635V42.9792C1.8362 43.2998 2.90495 43.5136 3.9737 43.5136C6.43182 43.5136 8.56931 42.5517 9.95869 41.5898C10.3862 41.2692 10.8137 40.9486 11.1343 40.7348C11.4549 40.9486 11.7756 41.2692 12.2031 41.5898C13.5924 42.4448 15.6231 43.5136 18.0812 43.5136C20.4324 43.5136 22.463 42.4448 23.8524 41.5898C24.2799 41.2692 24.6005 41.0554 24.9212 40.7348C25.1349 41.0554 25.4555 41.2692 25.883 41.5898C27.2724 42.4448 29.303 43.5136 31.7611 43.5136C34.1124 43.5136 36.143 42.4448 37.5324 41.5898C37.9599 41.2692 38.2805 40.9486 38.6011 40.7348C38.9218 40.9486 39.3493 41.2692 39.7768 41.5898C41.1661 42.5517 43.3036 43.5136 45.7617 43.5136C46.8305 43.5136 47.8992 43.2998 48.8611 42.9792Z" fill="#4C2668"/>
</svg>
