<svg width="20" height="22" viewBox="0 0 20 22" fill="none" xmlns="http://www.w3.org/2000/svg">
<g filter="url(#filter0_d_2609_3534)">
<path d="M19.5435 5.68388C19.4988 4.67234 19.3353 3.97697 19.1009 3.37436C18.8592 2.73474 18.4873 2.16211 18.0001 1.68605C17.524 1.20259 16.9476 0.826904 16.3154 0.588968C15.7093 0.354676 15.0175 0.191044 14.006 0.146491C12.9869 0.0980708 12.6634 0.0869141 10.0788 0.0869141C7.49413 0.0869141 7.17062 0.0980708 6.15532 0.142698C5.14381 0.187325 4.44841 0.351031 3.84598 0.585174C3.20618 0.826904 2.63354 1.1988 2.15748 1.68605C1.67402 2.16207 1.29853 2.7385 1.0604 3.37072C0.826112 3.97697 0.662516 4.66862 0.617927 5.68009C0.569544 6.69918 0.55835 7.02269 0.55835 9.60734C0.55835 12.192 0.569544 12.5155 0.614133 13.5308C0.65876 14.5423 0.822467 15.2377 1.0568 15.8403C1.29853 16.4799 1.67402 17.0526 2.15748 17.5286C2.63354 18.0121 3.20997 18.3878 3.84219 18.6257C4.44837 18.86 5.14002 19.0236 6.15171 19.0682C7.16683 19.113 7.49052 19.124 10.0752 19.124C12.6598 19.124 12.9833 19.113 13.9986 19.0682C15.0101 19.0236 15.7055 18.86 16.308 18.6257C16.9407 18.3811 17.5153 18.0069 17.995 17.5273C18.4747 17.0476 18.8489 16.473 19.0935 15.8403C19.3277 15.2341 19.4914 14.5423 19.536 13.5308C19.5806 12.5155 19.5918 12.192 19.5918 9.60734C19.5918 7.02269 19.588 6.69915 19.5435 5.68388ZM17.8291 13.4564C17.7881 14.3861 17.632 14.8882 17.5018 15.2229C17.1819 16.0522 16.5237 16.7105 15.6943 17.0304C15.3596 17.1605 14.854 17.3167 13.9279 17.3575C12.9237 17.4023 12.6226 17.4133 10.0826 17.4133C7.54251 17.4133 7.2376 17.4023 6.2371 17.3575C5.30737 17.3167 4.80531 17.1605 4.47061 17.0304C4.05792 16.8778 3.68228 16.6361 3.37732 16.32C3.06122 16.0113 2.81949 15.6394 2.66694 15.2267C2.53678 14.892 2.38062 14.3861 2.33982 13.4602C2.29505 12.4561 2.28404 12.1548 2.28404 9.61474C2.28404 7.07468 2.29505 6.76977 2.33982 5.76945C2.38062 4.83973 2.53678 4.33767 2.66694 4.00297C2.81949 3.5901 3.06122 3.21452 3.38112 2.9095C3.68964 2.59339 4.06153 2.35166 4.47441 2.1993C4.80911 2.06913 5.31495 1.91294 6.24089 1.87199C7.245 1.82737 7.5463 1.81621 10.0862 1.81621C12.63 1.81621 12.9311 1.82737 13.9316 1.87199C14.8614 1.91298 15.3634 2.0691 15.6981 2.19926C16.1108 2.35166 16.4865 2.59339 16.7914 2.9095C17.1075 3.2182 17.3493 3.5901 17.5018 4.00297C17.632 4.33767 17.7881 4.84333 17.8291 5.76945C17.8737 6.77356 17.8849 7.07468 17.8849 9.61474C17.8849 12.1548 17.8737 12.4523 17.8291 13.4564Z" fill="white"/>
</g>
<g filter="url(#filter1_d_2609_3534)">
<path d="M10.0789 4.71685C7.37899 4.71685 5.18848 6.90722 5.18848 9.60723C5.18848 12.3072 7.37899 14.4976 10.0789 14.4976C12.7788 14.4976 14.9692 12.3072 14.9692 9.60723C14.9692 6.90722 12.7788 4.71685 10.0789 4.71685ZM10.0789 12.7795C8.32732 12.7795 6.90654 11.3589 6.90654 9.60723C6.90654 7.85554 8.32732 6.43499 10.0788 6.43499C11.8305 6.43499 13.2511 7.85554 13.2511 9.60723C13.2511 11.3589 11.8305 12.7795 10.0789 12.7795ZM16.3044 4.52347C16.3044 5.15397 15.7931 5.66518 15.1625 5.66518C14.5321 5.66518 14.0209 5.15397 14.0209 4.52347C14.0209 3.89289 14.5321 3.38184 15.1626 3.38184C15.7931 3.38184 16.3044 3.89285 16.3044 4.52347Z" fill="white"/>
</g>
<defs>
<filter id="filter0_d_2609_3534" x="0.55835" y="0.0869141" width="19.0334" height="21.0371" filterUnits="userSpaceOnUse" color-interpolation-filters="sRGB">
<feFlood flood-opacity="0" result="BackgroundImageFix"/>
<feColorMatrix in="SourceAlpha" type="matrix" values="0 0 0 0 0 0 0 0 0 0 0 0 0 0 0 0 0 0 127 0" result="hardAlpha"/>
<feOffset dy="2"/>
<feComposite in2="hardAlpha" operator="out"/>
<feColorMatrix type="matrix" values="0 0 0 0 0 0 0 0 0 0 0 0 0 0 0 0 0 0 0.25 0"/>
<feBlend mode="normal" in2="BackgroundImageFix" result="effect1_dropShadow_2609_3534"/>
<feBlend mode="normal" in="SourceGraphic" in2="effect1_dropShadow_2609_3534" result="shape"/>
</filter>
<filter id="filter1_d_2609_3534" x="5.18848" y="3.38184" width="11.116" height="13.1157" filterUnits="userSpaceOnUse" color-interpolation-filters="sRGB">
<feFlood flood-opacity="0" result="BackgroundImageFix"/>
<feColorMatrix in="SourceAlpha" type="matrix" values="0 0 0 0 0 0 0 0 0 0 0 0 0 0 0 0 0 0 127 0" result="hardAlpha"/>
<feOffset dy="2"/>
<feComposite in2="hardAlpha" operator="out"/>
<feColorMatrix type="matrix" values="0 0 0 0 0 0 0 0 0 0 0 0 0 0 0 0 0 0 0.25 0"/>
<feBlend mode="normal" in2="BackgroundImageFix" result="effect1_dropShadow_2609_3534"/>
<feBlend mode="normal" in="SourceGraphic" in2="effect1_dropShadow_2609_3534" result="shape"/>
</filter>
</defs>
</svg>
