<svg width="108" height="109" viewBox="0 0 108 109" fill="none" xmlns="http://www.w3.org/2000/svg">
<path d="M78.9971 108.276C76.4848 108.276 71.5816 107.668 66.6379 103.616C65.787 102.927 64.936 102.198 64.1256 101.469C60.2355 98.0647 57.6421 95.9981 54.1166 95.9576C51.1585 95.9576 49.1324 97.4569 45.4449 100.374C42.8921 102.401 40.015 104.67 36.2059 106.534C33.3694 107.912 30.4113 108.236 28.4257 108.236C26.7643 108.236 24.4546 108.033 22.6716 107.061C13.8378 102.279 15.094 94.4582 16.026 88.7446C16.2286 87.5695 16.4312 86.2728 16.5933 84.9356L17.0796 80.8834C17.3632 78.6141 17.5658 76.9933 17.6469 75.4534C17.6469 72.5764 13.5947 68.1595 11.6496 66.5386L4.88246 60.906L5.73342 60.4603C3.6668 57.4212 2.45114 53.369 3.6668 47.3312C5.81446 36.9576 18.5384 34.6073 25.3461 33.3511L27.129 33.0269C32.0727 32.0139 33.491 31.7302 35.0713 27.5565C35.4765 26.4624 35.8818 25.3278 36.287 24.2337C38.8399 16.9397 42.73 5.91772 54.9271 5.91772H55.5754C67.0837 6.32294 70.0823 16.3319 72.2705 23.6663C72.7162 25.1657 73.162 26.665 73.6888 28.1238C74.7018 30.393 77.1736 31.5276 80.5775 32.8243L81.1043 33.0269C81.7121 33.2701 82.8062 33.4727 84.1434 33.7968C91.1132 35.4177 102.824 38.0922 106.349 46.2371C110.604 56.0029 103.391 62.9727 98.7718 66.7817C98.5287 66.9843 96.9484 68.281 96.9484 68.281L95.5301 69.3751C91.5589 72.4143 89.5734 73.9136 90.9511 82.1396C91.1132 83.0716 91.2753 84.0036 91.4374 84.9356C92.6936 91.7433 94.5981 102.036 84.3055 107.263C82.482 108.195 80.3749 108.398 78.9161 108.398L78.9971 108.276Z" fill="#9E4000" fill-opacity="0.5"/>
<path d="M76.7066 103.015C74.1942 103.015 69.2911 102.407 64.3474 98.3552C63.4964 97.6664 62.6455 96.937 61.835 96.2076C57.9449 92.8037 55.3515 90.7371 51.8261 90.6966C48.868 90.6966 46.8419 92.1959 43.1544 95.1135C40.6015 97.1396 37.7245 99.4088 33.9154 101.273C31.0789 102.651 28.1208 102.975 26.1352 102.975C24.4738 102.975 22.164 102.772 20.3811 101.8C11.5473 97.018 12.8035 89.1973 13.7355 83.4837C13.9381 82.3085 14.1407 81.0118 14.3028 79.6746L14.789 75.6224C15.0727 73.3532 15.2753 71.7323 15.3563 70.1924C15.3563 67.3154 11.3042 62.8985 9.3591 61.2776L2.59193 55.6451L3.44289 55.1993C1.37627 52.1602 0.160612 48.108 1.37627 42.0702C3.52394 31.6966 16.2478 29.3463 23.0555 28.0901L24.8385 27.7659C29.7822 26.7529 31.2004 26.4692 32.7808 22.2955C33.186 21.2014 33.5912 20.0668 33.9965 18.9727C36.5493 11.6787 40.4394 0.656738 52.6366 0.656738H53.2849C64.7931 1.06196 67.7918 11.0709 69.98 18.4054C70.4257 19.9047 70.8714 21.404 71.3982 22.8628C72.4113 25.132 74.8831 26.2666 78.287 27.5633L78.8137 27.7659C79.4216 28.0091 80.5157 28.2117 81.8529 28.5359C88.8227 30.1567 100.534 32.8312 104.059 40.9761C108.314 50.7419 101.101 57.7117 96.4813 61.5207C96.2382 61.7234 94.6578 63.0201 94.6578 63.0201L93.2396 64.1142C89.2684 67.1533 87.2828 68.6526 88.6606 76.8786C88.8227 77.8106 88.9848 78.7426 89.1468 79.6746C90.403 86.4823 92.3076 96.7749 82.015 102.002C80.1915 102.934 78.0844 103.137 76.6256 103.137L76.7066 103.015Z" fill="white"/>
<path d="M98.791 43.2047C95.7113 36.1539 80.1914 34.3709 76.747 33.0742C73.3432 31.7775 68.2374 30.0756 65.9277 24.7267C62.9696 16.2576 62.1186 6.65389 53.0822 6.37024C43.1948 6.04606 41.2093 16.3792 38.1296 24.3215C35.3741 31.5749 31.0788 32.3448 25.973 33.3984C20.8267 34.452 8.46751 35.8297 6.9682 43.2452C5.42836 50.7418 8.75116 53.1731 12.9654 56.8606C12.9654 56.8606 21.0698 63.5062 21.0293 70.6381C20.8672 72.9884 20.462 75.6628 19.9352 80.3634C19.0843 88.022 16.5719 93.2899 23.0554 96.8153C24.0685 97.3421 28.1612 97.7068 31.3219 96.1669C39.791 92.0337 43.5595 84.9423 51.745 84.9829C58.7148 85.0234 62.929 89.886 67.8727 93.9382C72.6948 97.8689 77.7601 97.6257 79.381 96.7748C86.7965 93.0062 84.2031 85.307 82.9469 77.6889C80.8803 64.9245 86.1886 62.2906 91.0513 58.4005C96.1571 54.3483 101.628 49.6882 98.791 43.2047Z" fill="#FFCB39"/>
<g opacity="0.7">
<path d="M90.3223 56.3337C90.3223 56.3337 90.4033 56.2527 90.4438 56.2122C90.4033 56.2122 90.3628 56.2932 90.3223 56.3337Z" fill="#DF6211"/>
<path d="M78.692 84.2941C77.0711 85.0235 71.1144 83.8078 66.4138 79.9582C61.6322 76.0276 58.7552 73.7179 51.988 73.6773C44.0052 73.5963 38.3321 79.5125 30.5924 84.3751C22.5285 89.4404 21.3939 79.9177 20.7456 78.8641C19.8541 85.7529 17.909 90.6155 23.9063 93.8573C24.8788 94.3841 28.85 94.7488 31.9296 93.2494C40.1556 89.2378 43.8026 82.349 51.8259 82.3896C58.5931 82.4301 62.6858 87.1711 67.5079 91.1018C72.1679 94.9514 77.1116 94.6677 78.692 93.8978C85.0945 90.656 83.8383 84.4157 82.6226 77.9321C82.6226 77.9321 83.5951 82.1869 78.7325 84.3346L78.692 84.2941Z" fill="url(#paint0_linear_676_58063)"/>
</g>
<path style="mix-blend-mode:multiply" opacity="0.3" d="M98.872 43.2047C95.7924 36.1539 80.2725 34.3709 76.8281 33.0742C73.4242 31.7775 68.3185 30.0756 66.0087 24.7267C63.0506 16.2576 62.1997 6.65389 53.1633 6.37024C43.2759 6.04606 41.2903 16.3792 38.2106 24.3215C35.4552 31.5749 31.1598 32.3448 26.0541 33.3984C20.9078 34.452 8.54856 35.8297 7.04925 43.2452C5.50942 50.7418 8.83222 53.1731 13.0465 56.8606C13.0465 56.8606 21.1509 63.5062 21.1104 70.6381C20.9483 72.9884 20.5836 75.6628 20.0568 80.3634C19.2058 88.022 16.6935 93.2899 23.177 96.8153C24.1495 97.3421 28.2828 97.7068 31.403 96.1669C39.872 92.0337 43.6406 84.9423 51.8665 84.9829C58.8363 85.0234 63.0506 89.886 67.9943 93.9382C72.8164 97.8689 77.8817 97.6257 79.5025 96.7748C86.9181 93.0062 84.3247 85.307 83.0685 77.6889C81.0019 64.9245 86.3102 62.2906 91.1729 58.4005C96.2786 54.3483 101.749 49.6882 98.9126 43.2047H98.872Z" fill="url(#paint1_linear_676_58063)"/>
<path style="mix-blend-mode:multiply" opacity="0.3" d="M25.0815 88.711C25.0815 88.711 28.8906 93.3305 37.1166 87.6575C45.3425 81.9439 48.5438 79.7962 53.8927 80.7282C59.2821 81.6602 68.6021 92.4391 75.8556 91.7097C81.4881 91.1424 81.245 84.5778 81.245 84.5778C81.245 84.5778 80.6372 91.7502 72.1681 88.5084C66.3734 86.2797 61.3487 76.8786 50.6509 77.7296C39.9531 78.5805 32.0108 90.9803 25.041 88.7516L25.0815 88.711Z" fill="url(#paint2_linear_676_58063)"/>
<path style="mix-blend-mode:multiply" opacity="0.5" d="M35.2119 88.6296C35.2119 88.6296 43.762 77.5266 52.3527 77.5266C60.9434 77.5266 66.4138 87.7787 66.4138 87.7787C66.4138 87.7787 59.3225 79.5527 50.205 80.4442C44.6941 80.971 35.2119 88.6296 35.2119 88.6296Z" fill="url(#paint3_linear_676_58063)"/>
<path style="mix-blend-mode:multiply" opacity="0.5" d="M21.7586 75.1768C21.7586 75.1768 20.624 85.753 24.2304 88.8732C27.8369 92.0339 32.4564 89.6026 32.4564 89.6026C32.4564 89.6026 24.7167 93.5332 22.0422 89.5215C19.3678 85.5099 21.7991 75.1362 21.7991 75.1362L21.7586 75.1768Z" fill="url(#paint4_linear_676_58063)"/>
<path style="mix-blend-mode:multiply" opacity="0.5" d="M81.8125 75.1768C81.8125 75.1768 82.9066 85.753 79.3002 88.8732C75.6937 92.0339 71.1147 89.6026 71.1147 89.6026C71.1147 89.6026 78.8544 93.5332 81.5694 89.5215C84.2439 85.5099 81.8125 75.1362 81.8125 75.1362V75.1768Z" fill="url(#paint5_linear_676_58063)"/>
<path d="M66.4141 76.3113C66.4141 76.3113 72.0061 81.0524 75.572 81.1739C79.0974 81.2955 80.3131 79.7962 80.1915 77.9727C80.1915 77.9727 78.9759 79.9177 75.1263 79.553C72.0061 79.2289 69.5343 77.1217 66.4141 76.3113Z" fill="#FFE66F"/>
<path d="M47.6523 26.3882C47.6523 26.3882 49.719 22.7817 53.1633 22.7817C56.6077 22.7817 56.6482 25.4967 56.6482 25.4967C56.6482 25.4967 54.9058 23.9164 52.4745 23.9164C50.0431 23.9164 47.6523 26.3882 47.6523 26.3882Z" fill="#FFC000"/>
<defs>
<linearGradient id="paint0_linear_676_58063" x1="51.6233" y1="71.4081" x2="51.6233" y2="106.014" gradientUnits="userSpaceOnUse">
<stop stop-color="#CA4E06"/>
<stop offset="1" stop-color="#EC7D17"/>
</linearGradient>
<linearGradient id="paint1_linear_676_58063" x1="53.1632" y1="104.717" x2="53.1632" y2="21.8496" gradientUnits="userSpaceOnUse">
<stop stop-color="#FE9000"/>
<stop offset="0.39" stop-color="#FA6D00"/>
<stop offset="1" stop-color="#FFCB39"/>
</linearGradient>
<linearGradient id="paint2_linear_676_58063" x1="53.1633" y1="96.5723" x2="53.1633" y2="79.9178" gradientUnits="userSpaceOnUse">
<stop stop-color="#FFD42C"/>
<stop offset="1" stop-color="#FF6A00"/>
</linearGradient>
<linearGradient id="paint3_linear_676_58063" x1="50.8129" y1="77.5266" x2="50.8129" y2="88.6296" gradientUnits="userSpaceOnUse">
<stop stop-color="#E87400"/>
<stop offset="0.63" stop-color="#FFDC3D"/>
</linearGradient>
<linearGradient id="paint4_linear_676_58063" x1="26.9454" y1="82.7544" x2="21.637" y2="95.073" gradientUnits="userSpaceOnUse">
<stop stop-color="#E87400"/>
<stop offset="0.63" stop-color="#FFDC3D"/>
</linearGradient>
<linearGradient id="paint5_linear_676_58063" x1="76.6257" y1="82.7544" x2="81.9341" y2="95.073" gradientUnits="userSpaceOnUse">
<stop stop-color="#E87400"/>
<stop offset="0.63" stop-color="#FFDC3D"/>
</linearGradient>
</defs>
</svg>
