<svg width="50" height="38" viewBox="0 0 50 38" fill="none" xmlns="http://www.w3.org/2000/svg">
<path d="M4.70412 0.25909H45.0014C47.5199 0.25909 49.651 2.39019 49.651 4.90877C49.651 6.45867 48.8761 7.81482 47.7137 8.68664L26.6932 24.4762C25.5308 25.348 24.0778 25.348 22.9154 24.4762L1.89494 8.68664C0.732522 7.81482 0.0544434 6.45867 0.0544434 4.90877C0.0544434 2.39019 2.08868 0.25909 4.70412 0.25909ZM0.0544434 11.1083L21.0749 26.9948C23.3029 28.6415 26.3058 28.6415 28.5337 26.9948L49.651 11.1083V31.257C49.651 34.7442 46.8419 37.4565 43.4515 37.4565H6.25402C2.76676 37.4565 0.0544434 34.7442 0.0544434 31.257V11.1083Z" fill="#4C2668"/>
</svg>
