<svg width="640" height="237" viewBox="0 0 640 237" fill="none" xmlns="http://www.w3.org/2000/svg">
<path d="M7.42972 32.9701C7.42992 32.9705 7.43012 32.971 7.43032 32.9714L7.41316 32.9329C7.41868 32.9453 7.4242 32.9577 7.42972 32.9701C7.41232 32.9306 7.33895 32.7321 0.998914 15.5697C0.392968 12.4636 4.29322 6.49513 12.4991 4.60477C18.9995 1.91065 19.0001 1.91064 19.0001 1.91064C20.5001 0.910637 20.9995 0.910649 21.5001 0.910761C22.5001 0.910631 25 0.910916 34.5722 22.9214C50.4279 58.4996 69.8948 88.8636 94.0638 115.806C145.967 173.617 218.586 206.957 304.049 212.211C355.434 215.366 413.67 226.39 473.444 228.472C527.829 220.878 575.417 208.597 608.15 195.198C616.09 196.095 633.05 196.707 637.075 192.683C641.1 188.658 638.753 208.604 637.076 198.971C583.948 224.814 528.054 230.374 473.444 228.472C409.115 237.454 335.277 239.878 265.268 229.836C144.716 212.552 57.9594 146.324 7.42972 32.9701Z" fill="#DA91C8"/>
<path d="M7.43032 32.9714C7.43012 32.971 7.42992 32.9705 7.42972 32.9701C7.4242 32.9577 7.41868 32.9453 7.41316 32.9329L7.43032 32.9714Z" fill="#DA91C8"/>
</svg>
