<svg width="49" height="56" viewBox="0 0 49 56" fill="none" xmlns="http://www.w3.org/2000/svg">
<path d="M24.9212 27.8794C20.0049 27.8794 15.5162 25.3145 13.0581 21.0395C10.5999 16.8713 10.5999 11.6345 13.0581 7.35948C15.5162 3.19137 20.0049 0.519496 24.9212 0.519496C29.7305 0.519496 34.2193 3.19137 36.6774 7.35948C39.1355 11.6345 39.1355 16.8713 36.6774 21.0395C34.2193 25.3145 29.7305 27.8794 24.9212 27.8794ZM20.0049 33.0094H29.7305C40.3111 33.0094 48.8611 41.5594 48.8611 52.14C48.8611 53.85 47.3649 55.2394 45.6549 55.2394H4.08057C2.37057 55.2394 0.981201 53.85 0.981201 52.14C0.981201 41.5594 9.42431 33.0094 20.0049 33.0094Z" fill="#4C2668"/>
</svg>
