<svg width="32" height="29" viewBox="0 0 32 29" fill="none" xmlns="http://www.w3.org/2000/svg">
<path d="M26.8033 13.8248C26.6246 12.6523 26.1418 11.5405 25.4328 10.5923C25.3207 10.438 25.1991 10.2829 25.0766 10.1374C24.6896 9.59304 24.1141 9.10959 23.3597 8.68788C22.9105 8.41779 22.4363 8.21305 21.9477 8.06492C21.8449 8.02714 21.7317 7.99811 21.6193 7.95951L21.5252 7.93212C21.0932 7.7985 20.6483 7.70235 20.208 7.66444C19.136 7.57216 18.202 7.78102 17.4457 8.05339C16.8588 7.36647 16.0435 6.75631 15.0086 6.23331C14.2788 5.86193 13.4689 5.63792 12.6074 5.56376C11.0569 5.43027 9.13144 5.84305 8.19947 6.47635C6.61322 7.42938 5.46433 8.90217 4.95446 10.6807C4.95446 10.6807 4.95446 10.6807 4.95363 10.6903L4.95198 10.7094C4.46866 12.4034 4.62168 14.2101 5.3912 15.7998C5.79283 16.8468 7.55892 21.309 10.1016 25.3752C10.6949 26.323 11.4622 26.7073 12.0378 26.8532C12.2538 26.92 12.4715 26.9677 12.6916 26.9867C13.2755 27.0369 13.8646 26.9141 14.4581 26.6277C18.7657 24.5301 22.6356 21.6909 23.5326 21.016C25.0206 20.0835 26.1096 18.6345 26.6033 16.9317C26.6033 16.9317 26.6058 16.903 26.6066 16.8934C26.7008 16.5833 26.7671 16.2612 26.8135 15.947C26.8409 15.8529 26.8474 15.7764 26.854 15.6998C26.9259 15.0889 26.9029 14.4601 26.7938 13.824L26.8033 13.8248Z" fill="#74696A"/>
<path d="M27.6397 12.6773C27.4611 11.5049 26.9782 10.393 26.2692 9.44487C26.1571 9.29058 26.0355 9.13548 25.913 8.98994C25.526 8.44558 24.9505 7.96213 24.1961 7.54042C23.7469 7.27033 23.2728 7.06559 22.7841 6.91746C22.6813 6.87968 22.5681 6.85065 22.4557 6.81204L22.3616 6.78466C21.9296 6.65104 21.4847 6.55489 21.0444 6.51698C19.9724 6.42469 19.0384 6.63356 18.2821 6.90593C17.6952 6.21901 16.8799 5.60885 15.845 5.08585C15.1153 4.71447 14.3053 4.49046 13.4439 4.4163C11.8933 4.28281 9.96787 4.69559 9.03589 5.32889C7.44964 6.28192 6.30076 7.75471 5.79088 9.53322C5.79088 9.53322 5.79088 9.53322 5.79006 9.54279L5.78841 9.56193C5.30509 11.2559 5.45811 13.0626 6.22763 14.6523C6.62925 15.6994 8.39535 20.1615 10.938 24.2277C11.5314 25.1755 12.2986 25.5598 12.8742 25.7058C13.0902 25.7726 13.3079 25.8202 13.528 25.8392C14.1119 25.8895 14.701 25.7666 15.2946 25.4802C19.6021 23.3826 23.472 20.5435 24.369 19.8686C25.8571 18.936 26.9461 17.487 27.4398 15.7842C27.4398 15.7842 27.4422 15.7555 27.4431 15.746C27.5373 15.4359 27.6036 15.1137 27.6499 14.7995C27.6773 14.7055 27.6839 14.6289 27.6905 14.5523C27.7623 13.9414 27.7393 13.3127 27.6302 12.6765L27.6397 12.6773Z" fill="white"/>
<path d="M22.3097 8.2842C20.6444 7.80336 18.9482 8.1298 17.6174 9.02768C16.9624 7.56351 15.6947 6.38407 14.0294 5.90323C11.0368 5.04777 7.91826 6.77526 7.06362 9.7583C6.65288 11.1693 6.82764 12.6114 7.43622 13.8305C7.76571 14.7074 9.60064 19.378 12.2354 23.6064C12.4904 24.0044 12.8048 24.2725 13.2027 24.355C13.5852 24.5036 13.9954 24.4425 14.418 24.2379C18.8965 22.0585 22.9336 19.0698 23.6763 18.507C24.8367 17.797 25.7532 16.6706 26.1544 15.2588C27.0099 12.2661 25.2824 9.14759 22.2993 8.29295L22.3097 8.2842Z" fill="#BFBABA"/>
<path opacity="0.2" d="M8.07745 10.6363C8.07745 10.6363 7.69902 6.07181 12.2109 5.96848C13.9502 5.92537 15.8463 8.09421 15.8463 8.09421C15.8463 8.09421 13.7143 6.42574 11.8055 6.86889C8.27216 7.7025 8.07827 10.6267 8.07827 10.6267L8.07745 10.6363Z" fill="white"/>
<path opacity="0.5" d="M25.0139 15.4016C24.8897 15.6126 24.7375 15.8117 24.5671 15.9995C23.789 16.9739 21.0988 18.9889 19.8108 19.7266C17.9381 20.9828 15.2439 22.7082 13.7755 22.2926C12.6842 21.9768 11.0219 19.2206 10.0997 17.1646C9.40992 15.8806 7.90023 12.4722 7.75437 11.2544C7.6913 10.979 7.66734 10.6973 7.68167 10.4189C7.55743 10.63 7.46026 10.8627 7.39098 11.1074C7.24037 11.6248 7.23334 12.1545 7.3532 12.6662C7.49824 13.8936 9.00875 17.2924 9.69771 18.586C10.6191 20.6516 12.2717 23.7444 13.2594 24.0319C14.1068 24.2688 16.4307 23.1479 19.4088 21.148C20.6968 20.4103 23.387 18.3952 24.1651 17.4209C24.5044 17.0644 24.7536 16.6326 24.9018 16.144C24.9018 16.144 24.9018 16.144 24.9026 16.1344C24.9171 16.0778 24.9325 16.0116 24.9478 15.9455C24.9826 15.7653 25.0078 15.5842 25.0139 15.4016Z" fill="#CACACA"/>
<path d="M23.9051 17.7552C23.1624 18.3181 19.1253 21.3068 14.6469 23.4861C14.2243 23.6907 13.814 23.7518 13.4315 23.6032C13.0336 23.5207 12.7088 23.2614 12.4634 22.8642C9.81908 18.635 7.99372 13.9652 7.66423 13.0883C7.11277 11.9898 6.92482 10.7008 7.1892 9.42189C7.13938 9.55259 7.09913 9.68412 7.05888 9.81565C6.64814 11.2266 6.8229 12.6688 7.43148 13.8879C7.76179 14.7552 9.58633 19.4345 12.2306 23.6637C12.4857 24.0618 12.8001 24.3299 13.1979 24.4123C13.5805 24.561 13.9907 24.4999 14.4133 24.2952C18.8918 22.1159 22.9289 19.1272 23.6716 18.5644C24.8319 17.8543 25.7485 16.7279 26.1497 15.3161C26.1899 15.1846 26.2214 15.0427 26.2521 14.9103C25.7996 16.1345 24.9528 17.1223 23.9043 17.7648L23.9051 17.7552Z" fill="#C8C8C8"/>
</svg>
