<svg width="103" height="98" viewBox="0 0 103 98" fill="none" xmlns="http://www.w3.org/2000/svg">
<mask id="mask0_2310_19954" style="mask-type:luminance" maskUnits="userSpaceOnUse" x="0" y="0" width="103" height="98">
<path d="M0 0.190674H103V97.103H0V0.190674Z" fill="white"/>
</mask>
<g mask="url(#mask0_2310_19954)">
<path opacity="0.4" d="M100.931 73.8279L64.4845 7.70519C61.7054 3.02401 56.873 0.190674 51.4964 0.190674C46.1199 0.190674 41.2873 3.02401 38.5083 7.70519C38.5083 7.76621 38.4483 7.76621 38.4483 7.82812L2.12224 73.7049C-0.65634 78.5707 -0.716734 84.3604 2.00146 89.2262C4.71987 94.0917 9.6127 96.9868 15.1103 96.9868H87.8824C93.3798 96.9868 98.2729 94.092 100.991 89.2262C103.71 84.3601 103.649 78.5705 100.931 73.8279Z" fill="#C7201A"/>
<path d="M15.2112 90.9202H87.6753C91.0203 90.9202 93.8815 89.2249 95.5332 86.2725C97.1615 83.3595 97.1555 79.9052 95.4094 76.8565L59.1092 11.0133C57.4588 8.23115 54.57 6.54416 51.4433 6.47192C48.3166 6.54416 45.4278 8.23115 43.7774 11.0133L7.47722 76.8565C5.73105 79.9052 5.72512 83.3595 7.35335 86.2725C9.00508 89.2249 11.8665 90.9202 15.2112 90.9202Z" fill="#C7201A"/>
<path d="M56.4 74.7054C56.4 77.5768 54.2916 79.7305 51.4803 79.7305C48.6692 79.7305 46.5609 77.5768 46.5609 74.7054C46.5609 71.8337 48.6692 69.6801 51.4803 69.6801C54.2916 69.3214 56.4 71.8339 56.4 74.7054ZM56.0486 61.3896L58.5083 37.6097C59.211 33.3023 55.6972 29.354 51.4806 29.354C47.2637 29.354 43.7498 33.3023 44.4528 37.6097L46.9128 61.3896C47.2641 63.543 49.0211 65.3379 51.4808 65.3379C53.9403 65.6968 55.6972 63.9021 56.0486 61.3896Z" fill="#ECECF1"/>
</g>
</svg>
