<svg width="653" height="249" viewBox="0 0 653 249" fill="none" xmlns="http://www.w3.org/2000/svg">
<path d="M637.49 46.5687C654.384 8.66095 652.5 16.3756 652.5 10.8756C652 8.37598 651.881 3.09156 643.675 1.20119C637.868 -0.136587 629.161 0.196998 624.5 4.1826C624.537 3.97496 624.329 4.2033 624.021 4.61903C623.212 5.4059 622.55 6.32057 622.08 7.37565C621.872 7.8424 623.256 5.65213 624.021 4.61903C624.176 4.46893 624.335 4.32348 624.5 4.1826C621 12.8757 625.761 2.00761 610.348 36.5186C594.492 72.0968 575.025 102.461 550.856 129.404C498.953 187.214 426.334 220.555 340.871 225.808C299.143 228.371 251.718 236.199 202.44 240.227C121.99 229.16 47.5085 208.433 6.43817 191.621C-1.50189 192.518 9.08258 209.48 5.05802 205.455C1.03346 201.431 -0.392322 222.635 1.28458 213.002C65.3416 244.16 135.594 245.691 202.44 240.227C261.948 248.413 324.721 251.313 379.652 243.433C500.217 226.147 586.98 159.907 637.507 46.5302L637.49 46.5687Z" fill="#DA91C8"/>
</svg>
