<svg width="44" height="50" viewBox="0 0 44 50" fill="none" xmlns="http://www.w3.org/2000/svg">
<path d="M21.753 6.26202C17.3939 6.26202 14.0035 9.74928 14.0035 14.0115V18.6612H29.5024V14.0115C29.5024 9.74928 26.0152 6.26202 21.753 6.26202ZM7.80391 14.0115C7.80391 6.35889 14.0035 0.0624447 21.753 0.0624447C29.4056 0.0624447 35.702 6.35889 35.702 14.0115V18.6612H37.2519C40.6423 18.6612 43.4515 21.4704 43.4515 24.8607V43.4595C43.4515 46.9467 40.6423 49.659 37.2519 49.659H6.25402C2.76676 49.659 0.0544434 46.9467 0.0544434 43.4595V24.8607C0.0544434 21.4704 2.76676 18.6612 6.25402 18.6612H7.80391V14.0115ZM24.8527 31.0603C24.8527 29.4136 23.3997 27.9605 21.753 27.9605C20.0093 27.9605 18.6532 29.4136 18.6532 31.0603V37.2599C18.6532 39.0035 20.0093 40.3597 21.753 40.3597C23.3997 40.3597 24.8527 39.0035 24.8527 37.2599V31.0603Z" fill="#4C2668"/>
</svg>
