<svg width="125" height="123" viewBox="0 0 125 123" fill="none" xmlns="http://www.w3.org/2000/svg">
<mask id="path-1-outside-1_676_50516" maskUnits="userSpaceOnUse" x="0.154785" y="0.496094" width="125" height="122" fill="black">
<rect fill="white" x="0.154785" y="0.496094" width="125" height="122"/>
<path fill-rule="evenodd" clip-rule="evenodd" d="M56.9042 114.421L56.7231 114.471C56.4634 114.545 56.1962 114.594 55.9222 114.617C56.2603 114.59 56.5883 114.524 56.9042 114.421ZM53.5011 114.216C49.2415 112.623 45.2868 106.692 42.7185 97.9657C39.0496 85.4635 35.6991 72.6047 34.9981 69.9147C34.915 69.5956 34.8691 69.4196 34.8644 69.4042L34.8375 69.3002L34.8375 69.3002L34.8375 69.3C34.5178 68.0616 31.4368 56.1272 27.8533 43.7171L27.853 43.7172C31.4368 56.1281 34.5179 68.0633 34.8372 69.3002C34.8531 69.3617 34.8621 69.3968 34.8641 69.4041C34.8688 69.4195 34.9146 69.5955 34.9977 69.9145C35.6987 72.6044 39.0493 85.4633 42.7181 97.9657C45.2865 106.692 49.2413 112.623 53.5011 114.216ZM16.0891 23.3807L16.0893 23.3807C15.4972 23.0685 14.8979 22.8292 14.2937 22.6661C14.8978 22.8292 15.4971 23.0686 16.0891 23.3807ZM11.3427 22.5845L67.9843 6.68254C68.7254 6.47065 69.5219 6.43719 70.3626 6.59332C75.6503 7.53013 80.6393 14.3332 83.7035 24.7719C87.495 37.6845 90.941 50.9644 91.5092 53.1544L91.5093 53.1545L91.5565 53.3365C91.577 53.4152 91.5885 53.4594 91.5907 53.4673C91.5954 53.4826 91.641 53.6576 91.7236 53.9749L91.7238 53.9756L91.7241 53.9768L91.7244 53.978L91.7245 53.9786C92.3705 56.4593 95.2643 67.5716 98.584 79.072L109.146 76.1068C109.633 75.9729 110.153 75.9506 110.706 76.0398C112.62 76.3856 114.533 77.8688 116.093 80.2109C117.653 82.564 118.693 85.4972 118.991 88.486C119.368 92.144 118.814 95.4229 117.421 97.7091C117.21 98.066 116.978 98.3783 116.735 98.6571C115.949 99.5939 115.02 100.218 113.991 100.508L57.7281 116.304C56.8604 116.644 55.9114 116.732 54.9085 116.557C49.6098 115.609 44.6319 108.795 41.5566 98.356C37.4305 84.315 33.7136 69.8168 33.6804 69.6718C33.6496 69.537 30.4337 57.0497 26.6831 44.0456L16.5919 46.8787C15.9803 47.1559 15.2951 47.2439 14.5541 47.1103C12.6514 46.7757 10.7377 45.2924 9.16687 42.9392C7.59606 40.5526 6.56729 37.6195 6.26861 34.6529C5.8925 30.9838 6.45667 27.7161 7.83943 25.4187C8.0496 25.0729 8.27085 24.7495 8.51421 24.4595H8.52527C9.32805 23.4976 10.2835 22.8632 11.3427 22.5845ZM15.9466 44.9334C15.4682 45.1486 14.9329 45.2171 14.355 45.114C12.7952 44.8352 11.2244 43.6195 9.93016 41.6902C8.64696 39.7608 7.79518 37.3407 7.55181 34.9094C7.48262 34.2335 7.45048 33.5732 7.45461 32.9335C7.45181 33.5626 7.48403 34.2116 7.552 34.8756C7.80642 37.3068 8.64714 39.7269 9.93034 41.6563C11.2246 43.5857 12.7844 44.8013 14.3552 45.0801C14.7866 45.1582 15.2069 45.147 15.5831 45.0355L15.9466 44.9334Z"/>
</mask>
<path d="M56.9042 114.421L58.6649 119.787L55.3775 108.983L56.9042 114.421ZM56.7231 114.471L55.1964 109.034L55.1852 109.037L56.7231 114.471ZM55.9222 114.617L55.4548 108.988L56.3651 120.247L55.9222 114.617ZM53.5011 114.216L51.5224 119.506L55.4802 108.927L53.5011 114.216ZM42.7185 97.9657L37.2993 99.556L37.3005 99.5604L42.7185 97.9657ZM34.9981 69.9147L40.4634 68.4906L40.4634 68.4906L34.9981 69.9147ZM34.8644 69.4042L29.3966 70.8182L29.4271 70.9362L29.4627 71.0529L34.8644 69.4042ZM34.8375 69.3002L29.3584 70.67L29.364 70.6921L29.3697 70.7142L34.8375 69.3002ZM34.8375 69.3L40.3166 67.9302L40.3114 67.9092L40.3059 67.8883L34.8375 69.3ZM27.8533 43.7171L33.2794 42.1503L31.7245 36.7656L26.3281 38.2792L27.8533 43.7171ZM27.853 43.7172L26.3278 38.2793L20.8481 39.8163L22.427 45.284L27.853 43.7172ZM34.8372 69.3002L40.3057 67.8886L40.3057 67.8885L34.8372 69.3002ZM34.8641 69.4041L29.4041 70.8484L29.4313 70.9511L29.4623 71.0528L34.8641 69.4041ZM34.9977 69.9145L40.463 68.4904L40.463 68.4904L34.9977 69.9145ZM42.7181 97.9657L37.2989 99.556L37.3002 99.5603L42.7181 97.9657ZM16.0891 23.3807L13.455 28.3766L15.4661 29.4369L17.651 28.8082L16.0891 23.3807ZM16.0893 23.3807L17.6511 28.8082L31.1342 24.9281L18.7232 18.3848L16.0893 23.3807ZM14.2937 22.6661L15.7661 17.2136L12.8211 28.1184L14.2937 22.6661ZM11.3427 22.5845L12.7798 28.0464L12.8246 28.0346L12.8692 28.022L11.3427 22.5845ZM67.9843 6.68254L69.5108 12.1201L69.5238 12.1164L69.5368 12.1127L67.9843 6.68254ZM70.3626 6.59332L69.3314 12.1461L69.3543 12.1504L69.3773 12.1545L70.3626 6.59332ZM83.7035 24.7719L78.2844 26.3626L78.2845 26.3631L83.7035 24.7719ZM91.5092 53.1544L96.9884 51.7847L96.9823 51.7603L96.9759 51.7359L91.5092 53.1544ZM91.5093 53.1545L86.0302 54.5243L86.0363 54.549L86.0427 54.5736L91.5093 53.1545ZM91.5565 53.3365L86.09 54.7556L86.0902 54.7567L91.5565 53.3365ZM91.5907 53.4673L86.1567 55.0063L86.1723 55.0613L86.189 55.1159L91.5907 53.4673ZM91.7236 53.9749L97.2083 52.6278L97.199 52.5897L97.1891 52.5517L91.7236 53.9749ZM91.7238 53.9756L86.239 55.3227L86.2447 55.3458L86.2506 55.3688L91.7238 53.9756ZM91.7241 53.9768L86.2509 55.37L86.2528 55.3774L86.2547 55.3848L91.7241 53.9768ZM91.7244 53.978L86.255 55.386L86.2627 55.4162L86.2708 55.4463L91.7244 53.978ZM91.7245 53.9786L97.19 52.5553L97.1841 52.5328L97.1781 52.5103L91.7245 53.9786ZM98.584 79.072L93.1578 80.6384L94.7127 86.025L100.111 84.5096L98.584 79.072ZM109.146 76.1068L107.649 70.6611L107.634 70.6651L107.62 70.6692L109.146 76.1068ZM110.706 76.0398L111.71 70.4821L111.658 70.4726L111.605 70.4642L110.706 76.0398ZM116.093 80.2109L120.801 77.0906L120.794 77.0803L116.093 80.2109ZM118.991 88.486L113.372 89.0476L113.372 89.0556L113.373 89.0637L118.991 88.486ZM117.421 97.7091L112.598 94.7693L112.576 94.806L112.554 94.8431L117.421 97.7091ZM116.735 98.6571L112.48 94.9431L112.443 94.9855L112.407 95.0286L116.735 98.6571ZM113.991 100.508L115.518 105.946L115.524 105.944L113.991 100.508ZM57.7281 116.304L56.2015 110.867L55.931 110.943L55.6693 111.045L57.7281 116.304ZM54.9085 116.557L53.9139 122.116L53.9255 122.118L53.9371 122.12L54.9085 116.557ZM41.5566 98.356L36.138 99.9483L36.1391 99.952L41.5566 98.356ZM33.6804 69.6718L28.1751 70.932H28.1751L33.6804 69.6718ZM26.6831 44.0456L32.1096 42.4805L30.5556 37.0923L25.1565 38.6081L26.6831 44.0456ZM16.5919 46.8787L15.0653 41.4412L14.6517 41.5573L14.2605 41.7346L16.5919 46.8787ZM14.5541 47.1103L15.5564 41.5522L15.5443 41.55L15.5322 41.5479L14.5541 47.1103ZM9.16687 42.9392L4.44925 46.0442L4.45935 46.0596L4.46954 46.0748L9.16687 42.9392ZM6.26861 34.6529L11.888 34.0872L11.8869 34.077L6.26861 34.6529ZM7.83943 25.4187L3.0135 22.4848L3.00699 22.4955L3.00054 22.5062L7.83943 25.4187ZM8.51421 24.4595V18.8118H5.88102L4.18821 20.8288L8.51421 24.4595ZM8.52527 24.4595V30.1073H11.168L12.8614 28.0783L8.52527 24.4595ZM14.355 45.114L13.3612 50.6736L13.3624 50.6738L14.355 45.114ZM15.9466 44.9334L18.2627 50.0844L14.4201 39.4959L15.9466 44.9334ZM9.93016 41.6902L5.22752 44.8178L5.23372 44.8271L5.23996 44.8364L9.93016 41.6902ZM7.55181 34.9094L13.1715 34.3469L13.1702 34.3343L7.55181 34.9094ZM7.45461 32.9335L13.1023 32.9586L1.80699 32.897L7.45461 32.9335ZM7.552 34.8756L1.9336 35.4507L1.93493 35.4634L7.552 34.8756ZM9.93034 41.6563L5.2277 44.784L5.2339 44.7933L5.24014 44.8026L9.93034 41.6563ZM14.3552 45.0801L15.3608 39.5226L15.3515 39.521L15.3422 39.5193L14.3552 45.0801ZM15.5831 45.0355L14.0565 39.598L14.0169 39.6091L13.9775 39.6208L15.5831 45.0355ZM55.3775 108.983L55.1964 109.034L58.2497 119.909L58.4308 119.858L55.3775 108.983ZM55.1852 109.037C55.2724 109.012 55.3635 108.996 55.4548 108.988L56.3897 120.245C57.0288 120.192 57.6544 120.077 58.261 119.906L55.1852 109.037ZM56.3651 120.247C57.1472 120.185 57.9178 120.032 58.6649 119.787L55.1434 109.054C55.2588 109.016 55.3734 108.995 55.4793 108.986L56.3651 120.247ZM55.4802 108.927C54.9015 108.71 53.6809 107.9 52.1797 105.64C50.7312 103.46 49.3077 100.351 48.1364 96.3711L37.3005 99.5604C38.6976 104.307 40.5355 108.526 42.7714 111.891C44.9545 115.177 47.8412 118.129 51.5221 119.506L55.4802 108.927ZM48.1377 96.3754C44.4951 83.9627 41.1631 71.1761 40.4634 68.4906L29.5329 71.3387C30.235 74.0333 33.6042 86.9643 37.2993 99.556L48.1377 96.3754ZM40.4634 68.4906C40.416 68.3086 40.3162 67.9196 40.2662 67.7555L29.4627 71.0529C29.4489 71.0077 29.4388 70.9724 29.4349 70.9587C29.4299 70.9414 29.426 70.9276 29.4239 70.9197C29.4195 70.9042 29.4165 70.893 29.4157 70.89C29.4139 70.8833 29.4136 70.8821 29.4158 70.8905C29.4199 70.9059 29.427 70.9328 29.4379 70.9747C29.4595 71.0573 29.491 71.178 29.5329 71.3387L40.4634 68.4906ZM40.3323 67.9902L40.3054 67.8862L29.3697 70.7142L29.3966 70.8182L40.3323 67.9902ZM40.3167 67.9304L40.3166 67.9304L29.3584 70.67L29.3584 70.67L40.3167 67.9304ZM40.3166 67.9304L40.3166 67.9302L29.3584 70.6698L29.3584 70.67L40.3166 67.9304ZM40.3059 67.8883C39.9833 66.6386 36.886 54.6406 33.2794 42.1503L22.4273 45.2839C25.9876 57.6138 29.0522 69.4846 29.369 70.7117L40.3059 67.8883ZM26.3281 38.2792L26.3278 38.2793L29.3783 49.1551L29.3786 49.155L26.3281 38.2792ZM22.427 45.284C25.9875 57.6147 29.0523 69.4863 29.3687 70.7119L40.3057 67.8885C39.9834 66.6403 36.886 54.6416 33.2791 42.1504L22.427 45.284ZM29.3687 70.7119C29.3802 70.7562 29.3965 70.8194 29.4041 70.8484L40.324 67.9598C40.3254 67.9653 40.3265 67.9694 40.327 67.9712C40.3276 67.9733 40.3279 67.9748 40.3281 67.9754C40.3284 67.9766 40.3285 67.9768 40.3281 67.9753C40.3273 67.9724 40.326 67.9672 40.3239 67.959C40.3197 67.9428 40.3137 67.9197 40.3057 67.8886L29.3687 70.7119ZM29.4623 71.0528C29.4485 71.0076 29.4384 70.9723 29.4345 70.9586C29.4295 70.9413 29.4257 70.9275 29.4235 70.9196C29.4192 70.9041 29.4162 70.8929 29.4154 70.8899C29.4135 70.8832 29.4132 70.882 29.4155 70.8904C29.4195 70.9058 29.4266 70.9327 29.4376 70.9746C29.4592 71.0572 29.4906 71.1778 29.5325 71.3386L40.463 68.4904C40.4156 68.3086 40.3159 67.9195 40.2658 67.7554L29.4623 71.0528ZM29.5325 71.3386C30.2346 74.033 33.6038 86.9641 37.2989 99.556L48.1374 96.3754C44.4947 83.9625 41.1627 71.1758 40.463 68.4904L29.5325 71.3386ZM37.3002 99.5603C38.6973 104.307 40.5353 108.526 42.7713 111.891C44.9545 115.177 47.8412 118.129 51.5224 119.506L55.4799 108.927C54.9012 108.71 53.6807 107.9 52.1794 105.64C50.731 103.46 49.3074 100.351 48.1361 96.371L37.3002 99.5603ZM17.651 28.8082L17.6511 28.8082L14.5274 17.9532L14.5273 17.9532L17.651 28.8082ZM18.7232 18.3848C17.7935 17.8946 16.806 17.4945 15.7661 17.2136L12.8213 28.1185C12.9897 28.164 13.201 28.2425 13.4553 28.3766L18.7232 18.3848ZM12.8211 28.1184C12.9894 28.1639 13.2006 28.2424 13.455 28.3766L18.7232 18.3849C17.7936 17.8947 16.8062 17.4946 15.7663 17.2137L12.8211 28.1184ZM12.8692 28.022L69.5108 12.1201L66.4577 1.24503L9.81608 17.147L12.8692 28.022ZM69.5368 12.1127C69.465 12.1332 69.401 12.1416 69.3542 12.1434C69.3086 12.1452 69.2986 12.14 69.3314 12.1461L71.3939 1.04053C69.7622 0.737507 68.0773 0.781905 66.4318 1.25237L69.5368 12.1127ZM69.3773 12.1545C70.0099 12.2665 71.4545 12.927 73.3133 15.4604C75.1083 17.9068 76.8773 21.569 78.2844 26.3626L89.1226 23.1812C87.4655 17.536 85.2078 12.5773 82.4203 8.77833C79.6967 5.06636 76.003 1.85693 71.3479 1.03219L69.3773 12.1545ZM78.2845 26.3631C82.049 39.1834 85.4759 52.389 86.0426 54.573L96.9759 51.7359C96.4061 49.5398 92.9411 36.1856 89.1224 23.1807L78.2845 26.3631ZM86.0301 54.5242L86.0302 54.5243L96.9884 51.7847L96.9884 51.7847L86.0301 54.5242ZM86.0427 54.5736L86.09 54.7556L97.0231 51.9174L96.9758 51.7355L86.0427 54.5736ZM86.0902 54.7567C86.0957 54.7777 86.1324 54.9202 86.1567 55.0063L97.0247 51.9282C97.0282 51.9406 97.0311 51.9508 97.033 51.9579C97.0351 51.9653 97.0368 51.9715 97.0381 51.9762C97.0406 51.9853 97.0425 51.9924 97.0436 51.9965C97.0447 52.0008 97.0456 52.0041 97.0461 52.006C97.0467 52.0081 97.047 52.0095 97.0472 52.0101C97.0475 52.0112 97.0474 52.011 97.0469 52.0088C97.0463 52.0068 97.0456 52.0039 97.0445 51.9998C97.0423 51.9915 97.0395 51.9805 97.0357 51.9662C97.0321 51.952 97.0277 51.9354 97.0228 51.9163L86.0902 54.7567ZM86.189 55.1159C86.1751 55.0706 86.165 55.0353 86.1611 55.0215C86.1561 55.0041 86.1522 54.9903 86.15 54.9823C86.1457 54.9667 86.1426 54.9554 86.1418 54.9524C86.14 54.9456 86.1397 54.9443 86.1419 54.9526C86.1459 54.9678 86.1529 54.9945 86.1638 55.0362C86.1853 55.1183 86.2165 55.2382 86.2581 55.3981L97.1891 52.5517C97.1423 52.372 97.0427 51.9832 96.9925 51.8186L86.189 55.1159ZM86.2389 55.3221L86.239 55.3227L97.2085 52.6285L97.2083 52.6278L86.2389 55.3221ZM86.2506 55.3688L86.2509 55.37L97.1973 52.5837L97.197 52.5824L86.2506 55.3688ZM86.2547 55.3848L86.255 55.386L97.1938 52.57L97.1935 52.5689L86.2547 55.3848ZM86.2708 55.4463L86.271 55.4469L97.1781 52.5103L97.1779 52.5097L86.2708 55.4463ZM86.2591 55.4019C86.9069 57.8895 89.8163 69.0623 93.1578 80.6384L104.01 77.5057C100.712 66.0809 97.8342 55.029 97.19 52.5553L86.2591 55.4019ZM100.111 84.5096L110.673 81.5443L107.62 70.6692L97.0575 73.6345L100.111 84.5096ZM110.643 81.5524C110.268 81.6557 109.964 81.6409 109.806 81.6155L111.605 70.4642C110.342 70.2603 108.998 70.2902 107.649 70.6611L110.643 81.5524ZM109.702 81.5976C109.591 81.5776 109.726 81.5721 110.074 81.842C110.421 82.1104 110.889 82.5851 111.392 83.3415L120.794 77.0803C118.769 74.0396 115.704 71.2037 111.71 70.4821L109.702 81.5976ZM111.386 83.3311C112.418 84.889 113.161 86.9374 113.372 89.0476L124.611 87.9244C124.225 84.0569 122.888 80.2391 120.801 77.0906L111.386 83.3311ZM113.373 89.0637C113.671 91.9567 113.143 93.8752 112.598 94.7693L122.243 100.649C124.485 96.9706 125.064 92.3314 124.61 87.9084L113.373 89.0637ZM112.554 94.8431C112.539 94.8692 112.518 94.9 112.48 94.9431L120.99 102.371C121.439 101.857 121.882 101.263 122.287 100.575L112.554 94.8431ZM112.407 95.0286C112.322 95.1297 112.28 95.1539 112.297 95.1424C112.305 95.1369 112.324 95.1251 112.354 95.1113C112.384 95.0973 112.42 95.0837 112.459 95.0725L115.524 105.944C117.786 105.307 119.649 103.972 121.063 102.286L112.407 95.0286ZM112.465 95.0709L56.2015 110.867L59.2547 121.742L115.518 105.946L112.465 95.0709ZM55.6693 111.045C55.7375 111.018 55.8056 111.004 55.8604 110.999C55.9132 110.994 55.9235 111.001 55.8799 110.993L53.9371 122.12C55.8808 122.46 57.8848 122.308 59.7869 121.563L55.6693 111.045ZM55.9031 110.997C55.2617 110.883 53.8143 110.216 51.9544 107.677C50.1576 105.225 48.3876 101.558 46.9742 96.76L36.1391 99.952C37.8009 105.593 40.0575 110.552 42.8431 114.354C45.5657 118.069 49.2566 121.283 53.9139 122.116L55.9031 110.997ZM46.9752 96.7637C42.8651 82.7773 39.1832 68.4003 39.1858 68.4116L28.1751 70.932C28.244 71.2332 31.9958 85.8527 36.138 99.9483L46.9752 96.7637ZM39.1858 68.4116C39.1189 68.1195 35.8678 55.5107 32.1096 42.4805L21.2566 45.6107C24.9996 58.5886 28.1802 70.9545 28.1751 70.932L39.1858 68.4116ZM25.1565 38.6081L15.0653 41.4412L18.1185 52.3162L28.2097 49.4831L25.1565 38.6081ZM14.2605 41.7346C14.4791 41.6356 14.7188 41.568 14.9633 41.5393C15.2063 41.5108 15.4099 41.5258 15.5564 41.5522L13.5518 52.6684C15.3674 52.9958 17.2203 52.7946 18.9233 52.0228L14.2605 41.7346ZM15.5322 41.5479C15.6659 41.5714 15.5428 41.5865 15.1942 41.3165C14.8482 41.0485 14.3759 40.5702 13.8642 39.8036L4.46954 46.0748C6.49478 49.1088 9.56444 51.9673 13.576 52.6727L15.5322 41.5479ZM13.8845 39.8342C12.8338 38.2379 12.0989 36.1822 11.8879 34.0872L0.64928 35.2187C1.0357 39.0568 2.35828 42.8673 4.44925 46.0442L13.8845 39.8342ZM11.8869 34.077C11.5914 31.1939 12.1178 29.2624 12.6783 28.3311L3.00054 22.5062C0.795544 26.1698 0.19363 30.7736 0.650311 35.2288L11.8869 34.077ZM12.6654 28.3525C12.7203 28.262 12.7628 28.1975 12.7941 28.1527C12.8253 28.1081 12.8408 28.0897 12.8402 28.0903L4.18821 20.8288C3.70536 21.404 3.31968 21.9812 3.0135 22.4848L12.6654 28.3525ZM8.51421 30.1073H8.52527V18.8118H8.51421V30.1073ZM12.8614 28.0783C12.9476 27.975 12.9882 27.9534 12.9656 27.9684C12.9548 27.9755 12.9324 27.9892 12.8984 28.0046C12.8642 28.0201 12.824 28.0347 12.7798 28.0464L9.90549 17.1227C7.55953 17.74 5.63563 19.1076 4.18917 20.8408L12.8614 28.0783ZM13.3624 50.6738C15.0093 50.9678 16.7024 50.786 18.2627 50.0844L13.6306 39.7824C14.234 39.5111 14.8564 39.4665 15.3476 39.5541L13.3624 50.6738ZM5.23996 44.8364C6.98853 47.4431 9.70898 50.0207 13.3612 50.6736L15.3488 39.5544C15.6458 39.6075 15.6881 39.7005 15.4993 39.5544C15.3132 39.4104 14.9943 39.1014 14.6204 38.5439L5.23996 44.8364ZM1.93216 35.472C2.26285 38.7757 3.40968 42.0845 5.22752 44.8178L14.6328 38.5625C13.8842 37.437 13.3275 35.9057 13.1715 34.3469L1.93216 35.472ZM1.80699 32.897C1.80148 33.7502 1.84441 34.6149 1.93343 35.4846L13.1702 34.3343C13.1208 33.8521 13.0995 33.3961 13.1022 32.9699L1.80699 32.897ZM13.1704 34.3005C13.1219 33.8268 13.1004 33.3784 13.1023 32.9586L1.80693 32.9083C1.80319 33.7469 1.84616 34.5964 1.93362 35.4507L13.1704 34.3005ZM14.633 38.5287C13.8935 37.4168 13.3359 35.8819 13.1691 34.2878L1.93493 35.4634C2.27696 38.7318 3.4008 42.0371 5.2277 44.784L14.633 38.5287ZM15.3422 39.5193C15.6356 39.5714 15.6815 39.6649 15.4993 39.5236C15.3171 39.3823 14.999 39.0743 14.6205 38.51L5.24014 44.8026C6.98186 47.399 9.69204 49.9885 13.3681 50.641L15.3422 39.5193ZM13.9775 39.6208C14.5963 39.4373 15.0881 39.4733 15.3608 39.5226L13.3496 50.6376C14.4851 50.8431 15.8176 50.8568 17.1887 50.4502L13.9775 39.6208ZM14.4201 39.4959L14.0565 39.598L17.1096 50.473L17.4732 50.371L14.4201 39.4959Z" fill="white" mask="url(#path-1-outside-1_676_50516)"/>
<path d="M11.8057 24.5945L68.532 8.6687C67.6581 8.91406 66.8616 9.44938 66.1979 10.2524C65.9877 10.4977 65.7996 10.7765 65.6226 11.0665C64.4279 13.0293 63.9523 15.8175 64.2731 18.9625C64.5164 21.3937 65.3682 23.8138 66.6514 25.7432C67.9457 27.6726 69.5165 28.877 71.0762 29.167C71.5077 29.2451 71.928 29.2228 72.3041 29.1224L15.5778 45.0482C15.2017 45.1597 14.7814 45.1708 14.3499 45.0928C12.7791 44.814 11.2194 43.5983 9.92511 41.6689C8.64191 39.7396 7.8012 37.3195 7.54677 34.8882C7.22597 31.7544 7.70164 28.9551 8.89634 26.9923C9.07333 26.6911 9.26139 26.4235 9.47157 26.167C10.1353 25.364 10.9318 24.8287 11.8057 24.5833V24.5945Z" fill="url(#paint0_linear_676_50516)"/>
<path d="M72.8469 31.0964L16.1206 47.0222C16.8286 46.8214 17.4481 46.3976 17.968 45.7731C19.1516 44.3456 19.7711 41.9032 19.4724 39.0035C19.0521 34.8659 16.541 31.1187 13.9082 30.6391L70.6124 14.7134C73.2562 15.1929 75.7562 18.9402 76.1877 23.0778C76.4863 25.9886 75.8779 28.4198 74.6832 29.8473C74.1744 30.4607 73.5438 30.8957 72.8358 31.0964H72.8469Z" fill="url(#paint1_linear_676_50516)"/>
<path d="M111.431 98.6245C106.73 97.7881 102.25 91.5873 99.4398 82.0408C95.3357 68.0667 91.6299 53.6242 91.5857 53.4792C91.5414 53.3231 87.8246 38.836 83.6984 24.7839C80.6342 14.3451 75.6452 7.5421 70.3576 6.60529C69.5169 6.44915 68.7204 6.48261 67.9792 6.69451L11.2529 22.6203C12.0052 22.4084 12.8016 22.3861 13.6313 22.5311C18.9189 23.4679 23.9079 30.2709 26.9721 40.7208C31.0983 54.7618 34.8151 69.2489 34.8594 69.4162C34.9036 69.5611 38.6094 83.9925 42.7135 97.9777C45.5232 107.524 49.9923 113.725 54.7047 114.561C55.4127 114.695 56.0875 114.662 56.718 114.483L113.444 98.5576C112.814 98.7361 112.139 98.7584 111.431 98.6357V98.6245Z" fill="url(#paint2_linear_676_50516)"/>
<path d="M54.439 106.442L111.165 90.5166L111.375 92.5017L54.6491 108.439L54.439 106.442Z" fill="url(#paint3_linear_676_50516)"/>
<path d="M52.9681 94.0185L109.694 78.0928C109.141 78.2489 108.655 78.5835 108.256 79.063C107.327 80.1783 106.851 82.0854 107.073 84.3605C107.393 87.394 109.23 90.1598 111.166 90.5167L54.4393 106.442C52.5035 106.097 50.6561 103.331 50.3464 100.297C50.1141 98.0223 50.5897 96.1152 51.53 95C51.9283 94.5204 52.415 94.1858 52.9681 94.0297V94.0185Z" fill="url(#paint4_linear_676_50516)"/>
<path d="M52.415 92.0448L109.141 76.119C109.628 75.9852 110.148 75.9628 110.701 76.0521C112.615 76.3978 114.529 77.8811 116.088 80.2231C117.648 82.5763 118.688 85.5094 118.987 88.4983C119.363 92.1563 118.81 95.4351 117.416 97.7214C117.206 98.0783 116.973 98.3905 116.73 98.6693C115.945 99.6061 115.015 100.231 113.987 100.521L57.2602 116.446C58.289 116.156 59.2182 115.532 60.0036 114.595C60.2359 114.316 60.4682 114.004 60.6895 113.636C62.0833 111.35 62.6364 108.071 62.2603 104.413C61.9616 101.424 60.9328 98.4909 59.362 96.1377C57.8023 93.7957 55.8885 92.3236 53.9748 91.9667C53.4217 91.8663 52.9018 91.8998 52.415 92.0336V92.0448Z" fill="url(#paint5_linear_676_50516)"/>
<path d="M8.52039 24.4717C9.86996 22.8546 11.651 22.1631 13.6311 22.5312C18.9187 23.468 23.9077 30.271 26.9719 40.7209C31.0981 54.7619 34.8149 69.249 34.8592 69.4163C34.9034 69.5613 38.6092 83.9926 42.7132 97.9778C45.523 107.524 49.9921 113.725 54.7045 114.562C56.4081 114.874 57.9347 114.272 59.0741 112.889C59.2842 112.643 59.4723 112.376 59.6493 112.086C60.844 110.123 61.3086 107.312 60.9878 104.201C60.7444 101.747 59.8926 99.3384 58.6094 97.409C57.3262 95.4797 55.7554 94.264 54.1846 93.9741C53.1227 93.7845 52.2045 94.186 51.5297 95.0001C50.6005 96.1153 50.1248 98.0224 50.3461 100.298C50.6558 103.342 52.5032 106.097 54.439 106.443L54.6382 108.439C51.9943 107.97 49.4832 104.212 49.0629 100.063C48.7642 97.1637 49.3726 94.7213 50.5673 93.2938C51.4302 92.2454 52.6138 91.7436 53.9744 91.9889C55.8882 92.3347 57.8019 93.8179 59.3617 96.16C60.9214 98.5131 61.9502 101.446 62.2599 104.435C62.636 108.082 62.0829 111.372 60.6891 113.658C60.4789 114.015 60.2466 114.327 60.0033 114.617C58.6537 116.234 56.8838 116.915 54.9037 116.569C49.6049 115.621 44.627 108.807 41.5517 98.3682C37.4256 84.3272 33.7087 69.8289 33.6755 69.6839C33.6424 69.539 29.9255 55.1076 25.8215 41.1112C23.0228 31.5758 18.5426 25.3751 13.8412 24.5386C12.1487 24.2263 10.6222 24.8174 9.47173 26.2003C9.26155 26.4457 9.07349 26.7245 8.8965 27.0256C7.7018 28.9885 7.22613 31.7877 7.54693 34.9216C7.79029 37.3528 8.64207 39.7729 9.92527 41.7023C11.2195 43.6317 12.7903 44.8473 14.3501 45.1261C15.4121 45.3157 16.3302 44.9254 17.0161 44.1113C17.9453 42.996 18.4209 41.0889 18.1886 38.8138C17.8789 35.7692 16.0426 33.0257 14.0957 32.6799L13.8966 30.6836C16.5404 31.1632 19.0404 34.9104 19.4608 39.048C19.7595 41.9588 19.151 44.3901 17.9563 45.8176C17.0824 46.8659 15.9099 47.3678 14.5492 47.1224C12.6465 46.7878 10.7328 45.3046 9.16199 42.9514C7.59118 40.5648 6.5624 37.6316 6.26373 34.6651C5.88762 30.9959 6.45178 27.7282 7.83454 25.4308C8.04472 25.0851 8.26596 24.7617 8.50933 24.4717H8.52039Z" fill="url(#paint6_linear_676_50516)"/>
<defs>
<linearGradient id="paint0_linear_676_50516" x1="35.0913" y1="6.57203" x2="41.1256" y2="37.5354" gradientUnits="userSpaceOnUse">
<stop stop-color="#EED7A1"/>
<stop offset="1" stop-color="#E09755"/>
</linearGradient>
<linearGradient id="paint1_linear_676_50516" x1="33.2779" y1="17.7246" x2="46.7368" y2="33.8773" gradientUnits="userSpaceOnUse">
<stop stop-color="#EED7A1"/>
<stop offset="1" stop-color="#E09755"/>
</linearGradient>
<linearGradient id="paint2_linear_676_50516" x1="48.0675" y1="18.8061" x2="76.3186" y2="100.145" gradientUnits="userSpaceOnUse">
<stop stop-color="#EED7A1"/>
<stop offset="1" stop-color="#E09755"/>
</linearGradient>
<linearGradient id="paint3_linear_676_50516" x1="58.5319" y1="88.8549" x2="89.8508" y2="102.275" gradientUnits="userSpaceOnUse">
<stop stop-color="#E09755"/>
<stop offset="1" stop-color="#9C5640"/>
</linearGradient>
<linearGradient id="paint4_linear_676_50516" x1="84.7937" y1="104.915" x2="78.4166" y2="84.6577" gradientUnits="userSpaceOnUse">
<stop stop-color="#EED7A1"/>
<stop offset="1" stop-color="#E09755"/>
</linearGradient>
<linearGradient id="paint5_linear_676_50516" x1="83.6543" y1="86.4574" x2="92.0987" y2="115.172" gradientUnits="userSpaceOnUse">
<stop stop-color="#EED7A1"/>
<stop offset="1" stop-color="#E09755"/>
</linearGradient>
<linearGradient id="paint6_linear_676_50516" x1="41.7066" y1="52.7098" x2="7.11399" y2="129.698" gradientUnits="userSpaceOnUse">
<stop stop-color="#EED7A1"/>
<stop offset="1" stop-color="#E09755"/>
</linearGradient>
</defs>
</svg>
