<svg width="56" height="56" viewBox="0 0 56 56" fill="none" xmlns="http://www.w3.org/2000/svg">
<path d="M38.6011 28.063C38.6011 30.5212 38.3874 32.7655 38.1736 34.903H18.4018C18.188 32.7655 18.0812 30.5212 18.0812 28.063C18.0812 25.7118 18.188 23.4674 18.4018 21.2231H38.1736C38.3874 23.4674 38.6011 25.7118 38.6011 28.063ZM41.5936 21.2231H54.7392C55.3805 23.4674 55.7011 25.7118 55.7011 28.063C55.7011 30.5212 55.3805 32.7655 54.7392 34.903H41.5936C41.8074 32.7655 42.0211 30.4143 42.0211 28.063C42.0211 25.7118 41.8074 23.4674 41.5936 21.2231ZM53.6705 17.8031H41.1661C40.0974 11.0699 37.9599 5.29871 35.288 1.66496C43.6243 3.90933 50.4642 9.89432 53.6705 17.8031ZM37.7461 17.8031H18.8293C19.4705 13.9556 20.5393 10.5356 21.7149 7.75683C22.8905 5.19183 24.0662 3.37496 25.3487 2.19934C26.5243 1.13059 27.4862 0.70309 28.3412 0.70309C29.0893 0.70309 30.0512 1.13059 31.2268 2.19934C32.5093 3.37496 33.6849 5.19183 34.8605 7.75683C36.0361 10.5356 37.1049 13.9556 37.7461 17.8031ZM15.4093 17.8031H2.90495C6.11119 9.89432 12.9512 3.90933 21.2874 1.66496C18.6155 5.29871 16.478 11.0699 15.4093 17.8031ZM1.8362 21.2231H14.9818C14.7681 23.4674 14.6612 25.7118 14.6612 28.063C14.6612 30.4143 14.7681 32.7655 14.9818 34.903H1.8362C1.19495 32.7655 0.981201 30.5212 0.981201 28.063C0.981201 25.7118 1.19495 23.4674 1.8362 21.2231ZM21.7149 48.4761C20.5393 45.6974 19.4705 42.2774 18.8293 38.323H37.7461C37.1049 42.2774 36.0361 45.6974 34.8605 48.4761C33.6849 51.0411 32.5093 52.858 31.2268 54.0336C30.0512 55.1024 29.0893 55.423 28.3412 55.423C27.4862 55.423 26.5243 55.1024 25.3487 54.0336C24.0662 52.858 22.8905 51.0411 21.7149 48.4761ZM15.4093 38.323C16.478 45.163 18.6155 50.9343 21.2874 54.568C12.9512 52.3236 6.11119 46.3386 2.90495 38.323H15.4093ZM53.6705 38.323C50.4642 46.3386 43.6243 52.3236 35.288 54.568C38.0668 50.9343 40.0974 45.163 41.1661 38.323H53.6705Z" fill="#4C2668"/>
</svg>
