<svg width="115" height="109" viewBox="0 0 115 109" fill="none" xmlns="http://www.w3.org/2000/svg">
<path d="M113.023 36.2384C111.61 30.3912 108.686 24.9824 104.691 20.4995C104.057 19.7686 103.375 19.0377 102.693 18.3555C100.5 15.773 97.3817 13.5802 93.386 11.7773C90.9984 10.6079 88.5133 9.77949 85.9795 9.24349C85.4435 9.09731 84.8588 8.99986 84.274 8.85367L83.7868 8.75622C81.5453 8.26895 79.2551 7.97658 77.0137 7.97658C71.5562 7.97658 66.9271 9.4384 63.2238 11.1439C59.9591 7.92785 55.5736 5.19912 50.1162 3.00639C46.2667 1.44712 42.0762 0.66748 37.6907 0.66748C29.7969 0.66748 20.2463 3.59112 15.8121 7.19694C8.21067 12.7031 3.04557 20.6457 1.24266 29.8552C1.24266 29.8552 1.24266 29.8552 1.24266 29.9039V30.0013C-0.462799 38.7723 1.09648 47.8355 5.67684 55.5345C8.16194 60.6508 19.0281 82.432 33.6463 101.874C37.0572 106.406 41.1016 108.014 44.074 108.501C45.1947 108.745 46.3154 108.891 47.4362 108.891C50.4085 108.891 53.3322 108.014 56.2071 106.308C77.0624 93.8342 95.3839 77.8028 99.6232 74.0021C106.737 68.6421 111.61 60.8457 113.364 52.0261C113.364 52.0261 113.364 51.8799 113.364 51.8312C113.705 50.2232 113.9 48.5665 113.998 46.9585C114.095 46.4712 114.095 46.0814 114.095 45.6915C114.193 42.573 113.803 39.4057 112.974 36.2384H113.023Z" fill="white"/>
<path d="M84.1765 16.3576C75.5517 14.6522 67.1219 17.0398 60.7873 22.1562C56.8404 15.042 49.9211 9.63327 41.2964 7.92781C25.8011 4.90671 10.7931 14.9933 7.772 30.4398C6.31018 37.7489 7.82072 44.9606 11.4265 50.8566C13.4731 55.1446 24.7778 77.949 39.932 98.1708C41.3939 100.071 43.0993 101.289 45.1459 101.533C47.1437 102.118 49.1902 101.63 51.2368 100.412C72.9204 87.4508 92.0216 70.5912 95.5299 67.4239C101.085 63.3308 105.227 57.2399 106.64 49.9308C109.661 34.4355 99.5743 19.4275 84.1277 16.4064L84.1765 16.3576Z" fill="#D3493F"/>
<path style="mix-blend-mode:screen" d="M84.1765 16.3576C75.5517 14.6522 67.1219 17.0398 60.7873 22.1562C56.8404 15.042 49.9211 9.63327 41.2964 7.92781C25.8011 4.90671 10.7931 14.9933 7.772 30.4398C6.31018 37.7489 7.82072 44.9606 11.4265 50.8566C13.4731 55.1446 24.7778 77.949 39.932 98.1708C41.3939 100.071 43.0993 101.289 45.1459 101.533C47.1437 102.118 49.1902 101.63 51.2368 100.412C72.9204 87.4508 92.0216 70.5912 95.5299 67.4239C101.085 63.3308 105.227 57.2399 106.64 49.9308C109.661 34.4355 99.5743 19.4275 84.1277 16.4064L84.1765 16.3576Z" fill="url(#paint0_linear_676_58157)"/>
<path style="mix-blend-mode:multiply" opacity="0.4" d="M84.1765 16.3576C75.5517 14.6522 67.1219 17.0398 60.7873 22.1562C56.8404 15.042 49.9211 9.63327 41.2964 7.92781C25.8011 4.90671 10.7931 14.9933 7.772 30.4398C6.31018 37.7489 7.82072 44.9606 11.4265 50.8566C13.4731 55.1446 24.7778 77.949 39.932 98.1708C41.3939 100.071 43.0993 101.289 45.1459 101.533C47.1437 102.118 49.1902 101.63 51.2368 100.412C72.9204 87.4508 92.0216 70.5912 95.5299 67.4239C101.085 63.3308 105.227 57.2399 106.64 49.9308C109.661 34.4355 99.5743 19.4275 84.1277 16.4064L84.1765 16.3576Z" fill="url(#paint1_linear_676_58157)"/>
<path opacity="0.2" d="M13.2783 34.4354C13.2783 34.4354 9.38007 11.5335 32.1357 9.04845C40.9067 8.07391 51.4318 18.2092 51.4318 18.2092C51.4318 18.2092 39.9321 10.7052 30.479 13.775C12.9859 19.5248 13.2783 34.3867 13.2783 34.3867V34.4354Z" fill="white"/>
<path opacity="0.5" d="M100.939 51.1488C100.403 52.2695 99.7204 53.3415 98.9408 54.3648C95.4324 59.6274 82.7146 70.9808 76.5262 75.2688C67.6091 82.4318 54.7451 92.3234 47.1436 90.8616C41.4913 89.7409 31.892 76.5358 26.3371 66.5467C22.2927 60.3583 13.1807 43.791 11.9138 37.7001C11.4752 36.3357 11.2316 34.9226 11.1829 33.5095C10.6469 34.6303 10.257 35.8484 10.0134 37.1153C9.47741 39.7953 9.67232 42.4753 10.5007 45.0092C11.7676 51.1488 20.8796 67.6674 24.924 73.9045C30.4789 83.9423 40.1756 98.8529 45.292 99.8762C49.6775 100.705 60.9335 94.0289 75.1131 82.6267C81.3015 78.3387 94.0193 66.9852 97.5277 61.7226C99.087 59.7736 100.159 57.4834 100.695 54.9495C100.695 54.9495 100.695 54.9496 100.695 54.9008C100.744 54.6085 100.792 54.2674 100.841 53.9263C100.939 53.0005 100.987 52.0746 100.939 51.1488Z" fill="url(#paint2_linear_676_58157)"/>
<path d="M96.3583 63.5256C92.8499 66.6929 73.7488 83.5525 52.0651 96.514C50.0186 97.7322 47.972 98.2195 45.9742 97.6347C43.9277 97.3911 42.1735 96.2216 40.7604 94.3213C25.5575 74.0994 14.3015 51.295 12.2549 47.007C8.99018 41.6957 7.47963 35.2637 8.25927 28.6855C8.06436 29.3677 7.91818 30.0499 7.772 30.7321C6.31018 38.0412 7.82072 45.2528 11.4265 51.1488C13.4731 55.3881 24.7291 78.2412 39.932 98.4631C41.3939 100.363 43.0993 101.582 45.1459 101.825C47.1437 102.41 49.1902 101.923 51.2368 100.705C72.9204 87.7431 92.0216 70.8834 95.5299 67.7161C101.085 63.623 105.227 57.5321 106.64 50.223C106.786 49.5408 106.883 48.8099 106.981 48.1278C105.227 54.511 101.377 59.871 96.3583 63.5743V63.5256Z" fill="#FF473C"/>
<path style="mix-blend-mode:multiply" opacity="0.5" d="M31.502 75.5127C31.502 75.5127 42.0758 89.8385 47.1922 90.8618C54.7936 92.3724 70.1427 80.4341 70.1427 80.4341C70.1427 80.4341 66.6344 86.9149 59.6176 92.0313C55.9631 94.7113 49.726 98.3658 45.974 97.6349C42.1732 96.904 37.6416 89.5949 35.4976 86.184C31.3558 79.6545 31.5507 75.5614 31.5507 75.5614L31.502 75.5127Z" fill="url(#paint3_linear_676_58157)"/>
<defs>
<linearGradient id="paint0_linear_676_58157" x1="46.6705" y1="93.8614" x2="57.2617" y2="39.9767" gradientUnits="userSpaceOnUse">
<stop stop-color="#D3493F"/>
<stop offset="0.06" stop-color="#D84037"/>
<stop offset="0.3" stop-color="#E9241F"/>
<stop offset="0.53" stop-color="#F5100D"/>
<stop offset="0.77" stop-color="#FC0403"/>
<stop offset="1" stop-color="#FF0000"/>
</linearGradient>
<linearGradient id="paint1_linear_676_58157" x1="940.13" y1="277.123" x2="964.167" y2="180.095" gradientUnits="userSpaceOnUse">
<stop stop-color="#D3493F"/>
<stop offset="0.06" stop-color="#D84037"/>
<stop offset="0.3" stop-color="#E9241F"/>
<stop offset="0.53" stop-color="#F5100D"/>
<stop offset="0.77" stop-color="#FC0403"/>
<stop offset="1" stop-color="#FF0000"/>
</linearGradient>
<linearGradient id="paint2_linear_676_58157" x1="55.6901" y1="44.435" x2="43.9147" y2="104.344" gradientUnits="userSpaceOnUse">
<stop stop-color="#D3493F"/>
<stop offset="0.06" stop-color="#D0403B"/>
<stop offset="0.3" stop-color="#C8242F"/>
<stop offset="0.53" stop-color="#C31026"/>
<stop offset="0.77" stop-color="#C00421"/>
<stop offset="1" stop-color="#BF0020"/>
</linearGradient>
<linearGradient id="paint3_linear_676_58157" x1="48.8584" y1="88.0344" x2="46.462" y2="100.227" gradientUnits="userSpaceOnUse">
<stop stop-color="#D3493F"/>
<stop offset="0.06" stop-color="#D0403B"/>
<stop offset="0.3" stop-color="#C8242F"/>
<stop offset="0.53" stop-color="#C31026"/>
<stop offset="0.77" stop-color="#C00421"/>
<stop offset="1" stop-color="#BF0020"/>
</linearGradient>
</defs>
</svg>
