<svg width="107" height="107" viewBox="0 0 107 107" fill="none" xmlns="http://www.w3.org/2000/svg">
<circle cx="53.5" cy="53.5" r="49.5" fill="url(#paint0_linear_2466_4709)" stroke="white" stroke-width="8"/>
<rect x="46.916" y="42.0085" width="13.4717" height="43.7547" rx="6.73585" fill="url(#paint1_linear_2466_4709)" stroke="white" stroke-width="3"/>
<path style="mix-blend-mode:multiply" opacity="0.5" d="M59.0073 76.6434C59.0073 76.6434 60.0792 84.142 52.8213 84.1488C47.2217 83.0715 48.2931 76.6429 48.2931 76.6429C48.2931 76.6429 48.7934 83.0494 54.2294 82.6553C57.5149 82.4241 59.0073 76.6434 59.0073 76.6434Z" fill="#7E2275"/>
<path style="mix-blend-mode:multiply" opacity="0.5" d="M58.9959 75.7983C58.9959 75.7983 59.439 83.5859 52.8222 83.304C47.2227 83.0676 48.3035 75.7983 48.3035 75.7983C48.3035 75.7983 48.8026 82.2047 54.2274 81.8104C57.5063 81.5791 58.9959 75.7983 58.9959 75.7983Z" fill="#7E2275"/>
<path style="mix-blend-mode:multiply" opacity="0.5" d="M59.0079 73.6579C59.0079 73.6579 60.1308 82.7647 52.8084 81.8735C46.8202 81.8858 48.2967 73.6792 48.2967 73.6792C48.2967 73.6792 48.7839 80.6801 54.219 80.2384C57.5041 79.979 59.0079 73.6579 59.0079 73.6579Z" fill="#DA71D0"/>
<path style="mix-blend-mode:multiply" opacity="0.5" d="M59.3165 69.379C59.3165 69.379 60.4098 79.8409 53.0897 78.8407C47.1011 78.8743 48.6046 69.4385 48.6046 69.4385C48.6046 69.4385 49.0688 77.4824 54.5059 76.957C57.792 76.6481 59.3165 69.379 59.3165 69.379Z" fill="#FF00B3"/>
<path style="mix-blend-mode:multiply" opacity="0.5" d="M59.0384 72.3561C59.0384 72.3561 59.0089 80.9274 53.1314 80.3701C47.1429 80.3932 48.6332 71.5626 48.6332 71.5626C48.6332 71.5626 49.1087 79.093 54.5448 78.6088C57.8305 78.3242 59.0384 72.3561 59.0384 72.3561Z" fill="#9900FF"/>
<rect x="46.916" y="42.0085" width="13.4717" height="43.7547" rx="6.73585" stroke="white" stroke-width="3"/>
<circle cx="53.5" cy="29.5" r="7.5" fill="url(#paint2_linear_2466_4709)" stroke="white" stroke-width="2"/>
<path d="M51.375 34.821C51.375 34.821 55.5058 34.0284 56.9323 32.4796C58.3431 30.9489 58.2773 29.1585 57.4715 28.5571C57.4715 28.5571 57.8119 29.7994 56.1748 31.3875C54.836 32.6644 52.9162 33.719 51.375 34.821Z" fill="#300B5C"/>
<path d="M56.0654 24.4058C56.0654 24.4058 51.4305 24.9591 49.7298 26.5617C48.0479 28.1456 47.9803 30.1327 48.8252 30.8616C48.8252 30.8616 48.5458 29.4597 50.4827 27.8301C52.0649 26.5217 54.2729 25.5048 56.0654 24.4058Z" fill="#704A9E"/>
<defs>
<linearGradient id="paint0_linear_2466_4709" x1="53.5144" y1="-0.852105" x2="53.5144" y2="102.455" gradientUnits="userSpaceOnUse">
<stop stop-color="#F0CA57"/>
<stop offset="1" stop-color="#D45B1A"/>
</linearGradient>
<linearGradient id="paint1_linear_2466_4709" x1="53.6526" y1="43.1969" x2="53.6526" y2="82.5493" gradientUnits="userSpaceOnUse">
<stop offset="0.56" stop-color="#542D71"/>
<stop offset="1" stop-color="#381353"/>
</linearGradient>
<linearGradient id="paint2_linear_2466_4709" x1="53.5012" y1="20.87" x2="53.5012" y2="37.285" gradientUnits="userSpaceOnUse">
<stop offset="0.56" stop-color="#542D71"/>
<stop offset="1" stop-color="#381353"/>
</linearGradient>
</defs>
</svg>
