<svg width="214" height="197" viewBox="0 0 214 197" fill="none" xmlns="http://www.w3.org/2000/svg">
<path d="M252.122 100.912C245.639 55.989 198.614 23.4087 157.687 9.0399C99.9848 -11.2209 41.4871 1.84384 10.6595 55.6629C1.28347 72.0345 -2.25966 103.52 2.44041 121.289C19.3124 184.866 101.069 205.336 159.832 193.692C204.688 184.796 259.474 151.82 252.122 100.935V100.912ZM93.0191 178.066C59.3955 170.474 24.7356 149.305 17.1432 114.419C10.6113 84.3307 20.614 48.9093 65.7587 22.2443C91.4283 12.3003 121.412 13.0921 150.504 22.8498C187.526 35.2624 239.034 68.518 236.889 112.067C233.9 172.686 140.092 188.685 92.995 178.043L93.0191 178.066Z" fill="#3DB47D"/>
</svg>
