<svg width="201" height="197" viewBox="0 0 201 197" fill="none" xmlns="http://www.w3.org/2000/svg">
<path d="M199.961 100.912C193.477 55.989 146.452 23.4087 105.526 9.0399C47.8234 -11.2209 -10.6743 1.84384 -41.5019 55.6629C-50.8779 72.0346 -54.421 103.52 -49.721 121.289C-32.8489 184.866 48.9081 205.336 107.671 193.692C152.526 184.796 207.312 151.82 199.961 100.935V100.912ZM40.8577 178.066C7.23415 170.474 -27.4258 149.305 -35.0182 114.419C-41.5501 84.3307 -31.5474 48.9093 13.5973 22.2443C39.2669 12.3003 69.2509 13.0921 98.3431 22.8498C135.365 35.2624 186.873 68.518 184.728 112.067C181.739 172.686 87.9306 188.685 40.8336 178.043L40.8577 178.066Z" fill="#3DB47D"/>
</svg>
