<svg width="46" height="48" viewBox="0 0 46 48" fill="none" xmlns="http://www.w3.org/2000/svg">
<path d="M35.1019 28.006C35.1019 28.006 36.9984 34.8148 36.3425 38.1997C36.2048 38.9371 35.9321 39.5072 35.5226 39.8158C33.1296 41.5627 24.4117 35.7667 24.4117 35.7667C24.4117 35.7667 15.6859 41.5522 13.2958 39.8029C10.9058 38.0537 13.715 28.0069 13.715 28.0069C13.715 28.0069 5.50305 21.4954 6.44314 18.6993C6.5948 18.2161 7.03109 17.8222 7.60969 17.473C8.11353 17.1627 8.75076 16.9256 9.44492 16.7063C12.8409 15.6489 17.7808 15.4508 17.7808 15.4508C17.7808 15.4508 21.4154 5.6631 24.3871 5.65902C27.3303 5.64602 31.0072 15.4491 31.0072 15.4491C31.0072 15.4491 38.9094 15.7747 41.5769 17.736C41.7583 17.8553 41.8738 17.9853 42.0178 18.1241C42.2099 18.3093 42.336 18.505 42.3875 18.7397C43.3157 21.5602 35.1214 28.0434 35.1214 28.0434L35.1019 28.006Z" fill="url(#paint0_linear_2410_5602)"/>
<g style="mix-blend-mode:soft-light" opacity="0.4">
<path d="M32.6754 26.8697C32.6754 26.8697 34.1479 32.1403 33.6386 34.7594C33.526 35.3173 33.3174 35.7827 32.9916 36.0239C31.1292 37.3752 24.3783 32.8834 24.3783 32.8834C24.3783 32.8834 17.6287 37.3534 15.765 36.0191C13.9013 34.6848 16.0716 26.873 16.0716 26.873C16.0716 26.873 9.70726 21.8468 10.4226 19.6671C10.5386 19.2976 10.8823 18.9995 11.3398 18.7372C11.7226 18.5139 12.2281 18.2979 12.7817 18.1281C15.4088 17.329 19.2169 17.1503 19.2169 17.1503C19.2169 17.1503 22.0329 9.57242 24.3444 9.57972C26.6274 9.57809 29.4717 17.1527 29.4717 17.1527C29.4717 17.1527 36.3543 17.4393 37.9898 19.2016C38.1339 19.3405 38.212 19.4899 38.2813 19.6678C39.009 21.8321 32.6469 26.8607 32.6469 26.8607L32.6754 26.8697Z" fill="#FFFF9D"/>
</g>
<path style="mix-blend-mode:multiply" opacity="0.6" d="M35.1014 28.0058C35.1014 28.0058 36.9979 34.8145 36.342 38.1995C36.2044 38.9369 35.9316 39.507 35.5221 39.8156C33.1291 41.5624 24.4112 35.7664 24.4112 35.7664C24.4112 35.7664 15.6854 41.552 13.2954 39.8027C10.9053 38.0534 13.7145 28.0067 13.7145 28.0067C13.7145 28.0067 5.50257 21.4951 6.44267 18.699C6.59432 18.2158 7.03061 17.8219 7.60921 17.4727C6.22859 21.4732 12.1311 25.4802 16.1177 26.825C16.1177 26.825 13.7723 33.3017 15.8914 35.7153C18.0194 38.1004 24.1461 33.6224 24.1461 33.6224C24.1461 33.6224 30.8584 37.54 33.5076 35.8736C36.1567 34.2071 32.9437 27.11 32.9437 27.11C32.9437 27.11 43.0943 21.8653 41.5569 17.6983C41.7383 17.8177 41.8538 17.9476 41.9978 18.0865C42.1899 18.2717 42.316 18.4674 42.3674 18.7021C43.2957 21.5226 35.1014 28.0058 35.1014 28.0058Z" fill="url(#paint1_linear_2410_5602)"/>
<path style="mix-blend-mode:multiply" d="M19.5259 16.4668C19.5259 16.4668 17.1052 15.1138 9.44527 16.7064C12.8413 15.649 17.7811 15.4508 17.7811 15.4508C17.7811 15.4508 21.4158 5.66317 24.3874 5.65909C21.508 6.06679 19.3976 14.5843 19.5348 16.4384L19.5259 16.4668Z" fill="url(#paint2_linear_2410_5602)"/>
<path style="mix-blend-mode:multiply" d="M36.3421 38.1997C36.2045 38.9371 35.9317 39.5072 35.5222 39.8158C33.1292 41.5627 24.4113 35.7666 24.4113 35.7666C24.4113 35.7666 15.6855 41.5522 13.2954 39.8029C10.9054 38.0536 13.7146 28.0069 13.7146 28.0069C13.7146 28.0069 5.50266 21.4954 6.44275 18.6992C6.59441 18.216 7.0307 17.8221 7.6093 17.4729C5.53748 20.2885 11.9333 26.0115 16.1463 26.8342C16.1463 26.8342 12.5396 35.0382 13.8787 38.1437C15.2178 41.2493 24.4338 34.3998 24.4338 34.3998C24.4338 34.3998 30.2697 39.4163 33.7613 38.9509C35.0693 38.7682 35.8756 38.4904 36.3795 38.1802L36.3421 38.1997Z" fill="url(#paint3_linear_2410_5602)"/>
<path style="mix-blend-mode:multiply" d="M35.1019 28.0062L32.9353 27.1388C40.4325 24.3711 41.9894 18.1153 41.9894 18.1153C42.1814 18.3005 42.3076 18.4962 42.359 18.7309C43.2873 21.5514 35.0929 28.0346 35.0929 28.0346L35.1019 28.0062Z" fill="url(#paint4_linear_2410_5602)"/>
<path style="mix-blend-mode:screen" opacity="0.5" d="M9.07054 21.5848C9.07054 21.5848 7.65286 18.8293 9.57942 17.3732C11.506 15.9171 19.6889 16.6431 19.6889 16.6431C19.6889 16.6431 21.25 7.48481 24.3589 7.24278C27.4677 7.00076 29.9153 16.6365 29.9153 16.6365C29.9153 16.6365 36.2078 16.1135 39.3825 17.9529C41.3656 19.1061 36.8905 23.1034 36.8905 23.1034C36.8905 23.1034 38.7661 20.9131 37.5541 19.0964C36.342 17.2797 28.2504 20.0482 28.2504 20.0482C28.2504 20.0482 27.8791 15.1544 24.2188 15.1609C21.0016 15.1504 20.5569 19.2573 20.5569 19.2573C20.5569 19.2573 8.46935 17.0248 9.04207 21.5759L9.07054 21.5848Z" fill="url(#paint5_linear_2410_5602)"/>
<g style="mix-blend-mode:soft-light">
<path d="M9.08821 17.8429C9.13368 18.7939 12.7379 17.7706 12.7379 17.7706C12.7379 17.7706 18.0571 17.1607 21.0992 17.9281C21.0992 17.9281 21.8533 14.2306 22.2619 12.8288C22.6706 11.4271 21.5737 10.2398 21.5737 10.2398C21.5737 10.2398 19.5456 13.9122 19.5346 16.4379C19.5346 16.4379 11.505 15.3229 9.05975 17.834L9.08821 17.8429Z" fill="#FFCCE0"/>
</g>
<g style="mix-blend-mode:soft-light">
<path d="M38.0355 18.0605C37.5083 18.6444 37.9399 19.5605 38.7139 19.5849C39.488 19.6092 39.4994 18.6761 39.4 18.3951C39.3095 18.0857 38.5253 17.4961 38.007 18.0516L38.0355 18.0605Z" fill="#FFFFE0"/>
</g>
<g style="mix-blend-mode:soft-light">
<path d="M20.0942 12.4611C19.104 17.7082 23.913 16.5322 26.2495 12.176C28.5859 7.81978 21.4293 5.41756 20.0942 12.4611Z" fill="#FFFFE0"/>
</g>
<g style="mix-blend-mode:soft-light">
<path d="M15.4683 29.4935C14.6786 33.3047 17.3919 31.5335 17.3923 28.942C17.3927 26.3506 15.9114 27.3844 15.4683 29.4935Z" fill="#FFFFE0"/>
</g>
<g style="mix-blend-mode:soft-light">
<path d="M7.4266 19.3514C8.07916 22.0541 10.4513 19.6762 12.7003 17.7905C14.262 16.5009 6.68184 16.2451 7.4266 19.3514Z" fill="#FFFFE0"/>
</g>
<path d="M21.324 12.1292C20.9077 14.153 24.3492 14.0466 24.3815 11.6525C24.4137 9.25838 21.7994 9.71805 21.324 12.1292Z" fill="#FFFFE0"/>
<path d="M29.5104 17.7273C29.5104 17.7273 33.1899 18.2576 37.2788 18.4793C37.2788 18.4793 34.3373 16.4945 29.5104 17.7273Z" fill="#FFFFE0"/>
<path d="M9.07045 19.4923C9.12186 19.727 9.79349 18.7825 12.7621 18.0906C15.7308 17.3986 19.6043 17.7089 19.6043 17.7089C19.6043 17.7089 17.4411 17.0299 13.0616 17.4352C8.85122 17.7999 8.98888 19.1545 9.04199 19.4834L9.07045 19.4923Z" fill="#FFFFE0"/>
<path d="M24.8315 5.73606C27.7063 6.63831 30.9784 15.44 30.9784 15.44C30.9784 15.44 35.982 15.6365 39.3691 16.6996C40.2515 16.9765 40.9932 17.303 41.557 17.6985C41.7384 17.8179 41.8539 17.9478 41.9979 18.0867C42.19 18.2718 42.3161 18.4676 42.3675 18.7023C43.2958 21.5227 35.1015 28.0059 35.1015 28.0059C35.1015 28.0059 36.998 34.8147 36.3421 38.1996C36.2045 38.937 35.9317 39.5071 35.5222 39.8157C34.8332 40.3176 33.5948 40.1788 32.2286 39.75C28.813 38.678 24.4398 35.7755 24.4398 35.7755C24.4398 35.7755 16.6558 40.9512 13.781 40.0489C13.6103 39.9953 13.4679 39.9506 13.3524 39.8207C10.9623 38.0714 13.7715 28.0247 13.7715 28.0247C13.7715 28.0247 5.5596 21.5132 6.4997 18.717C6.65135 18.2338 7.08764 17.8399 7.66624 17.4907C8.17008 17.1805 8.80731 16.9434 9.50147 16.7241C12.8975 15.6667 17.8373 15.4685 17.8373 15.4685C17.8373 15.4685 21.472 5.68085 24.4436 5.67678C24.6038 5.66459 24.7461 5.70926 24.8884 5.75392L24.8315 5.73606ZM25.0724 4.96861C24.8447 4.89714 24.608 4.8541 24.3909 4.84842C21.2965 4.84518 18.1746 12.2022 17.2099 14.6783C15.8432 14.749 12.1506 15.0576 9.32601 15.8884L9.28862 15.9079L9.21385 15.9469C8.41646 16.1962 7.73293 16.4813 7.20063 16.7826C6.40664 17.2203 5.87944 17.8042 5.68318 18.4295C4.72694 21.3767 10.7744 26.6157 12.814 28.2862C12.1428 30.8232 10.3497 38.6285 12.8447 40.442C13.0457 40.5987 13.2645 40.6986 13.5206 40.779C16.3385 41.6634 22.591 37.8805 24.4283 36.7086C25.6501 37.498 29.1218 39.5867 31.9966 40.489C33.8467 41.0696 35.1671 41.0469 36.0146 40.4386C36.5826 40.0236 36.9568 39.3293 37.1463 38.3271C37.7147 35.3207 36.4575 29.9615 36.0123 28.2918C38.0672 26.6261 44.0949 21.3676 43.1365 18.444C43.0175 18.1257 42.8612 17.8268 42.5731 17.5491C42.3811 17.3639 42.2086 17.2161 42.0077 17.0593C41.4529 16.6354 40.6542 16.2911 39.601 15.9606C36.7832 15.0762 32.9381 14.7749 31.5307 14.6766C30.7298 12.6455 27.8902 5.85299 25.0439 4.95967L25.0724 4.96861Z" fill="#BD6156"/>
<defs>
<linearGradient id="paint0_linear_2410_5602" x1="6.37008" y1="18.8325" x2="39.416" y2="29.2039" gradientUnits="userSpaceOnUse">
<stop stop-color="#FF9509"/>
<stop offset="1" stop-color="#FFC000"/>
</linearGradient>
<linearGradient id="paint1_linear_2410_5602" x1="23.9987" y1="39.5088" x2="23.9975" y2="16.8647" gradientUnits="userSpaceOnUse">
<stop stop-color="#DA91C8"/>
<stop offset="0.26" stop-color="#E2AFDD"/>
<stop offset="0.54" stop-color="#E9C8F0"/>
<stop offset="0.8" stop-color="#EDD7FB"/>
<stop offset="1" stop-color="#EFDDFF"/>
</linearGradient>
<linearGradient id="paint2_linear_2410_5602" x1="16.5227" y1="16.0908" x2="16.5221" y2="5.03691" gradientUnits="userSpaceOnUse">
<stop stop-color="#DA91C8"/>
<stop offset="0.26" stop-color="#E2AFDD"/>
<stop offset="0.54" stop-color="#E9C8F0"/>
<stop offset="0.8" stop-color="#EDD7FB"/>
<stop offset="1" stop-color="#EFDDFF"/>
</linearGradient>
<linearGradient id="paint3_linear_2410_5602" x1="20.9264" y1="39.5092" x2="20.9252" y2="16.8651" gradientUnits="userSpaceOnUse">
<stop stop-color="#DA91C8"/>
<stop offset="0.26" stop-color="#E2AFDD"/>
<stop offset="0.54" stop-color="#E9C8F0"/>
<stop offset="0.8" stop-color="#EDD7FB"/>
<stop offset="1" stop-color="#EFDDFF"/>
</linearGradient>
<linearGradient id="paint4_linear_2410_5602" x1="37.2627" y1="27.382" x2="37.2622" y2="17.4603" gradientUnits="userSpaceOnUse">
<stop stop-color="#DA91C8"/>
<stop offset="0.26" stop-color="#E2AFDD"/>
<stop offset="0.54" stop-color="#E9C8F0"/>
<stop offset="0.8" stop-color="#EDD7FB"/>
<stop offset="1" stop-color="#EFDDFF"/>
</linearGradient>
<linearGradient id="paint5_linear_2410_5602" x1="23.8355" y1="22.4666" x2="23.8347" y2="6.61571" gradientUnits="userSpaceOnUse">
<stop/>
<stop offset="0.72" stop-color="#B6B645"/>
<stop offset="1" stop-color="#FFFF61"/>
</linearGradient>
</defs>
</svg>
