<svg width="763" height="141" viewBox="0 0 763 141" fill="none" xmlns="http://www.w3.org/2000/svg">
<path d="M381.515 2.15283C385.256 4.63031 400.163 12.2879 439.849 12.2879C487.16 12.2879 556.085 7.93359 556.085 20.5462C556.085 20.5462 564.632 13.339 583.914 14.9156C600.375 16.2669 601.843 20.9716 601.843 26.8525C601.843 26.8525 646.536 23.0237 678.48 26.8525C702.222 29.7054 700.351 47.5732 706.424 53.5542C711.92 58.9846 731.864 67.5182 758.139 70.1458C731.864 72.7734 711.92 81.307 706.424 86.7374C700.351 92.7434 702.222 110.611 678.48 113.439C646.564 117.268 601.843 113.439 601.843 113.439C601.843 119.32 600.375 124.025 583.914 125.376C564.632 126.953 556.085 119.745 556.085 119.745C556.085 132.358 487.189 128.004 439.849 128.004C400.134 128.004 385.256 135.686 381.515 138.139C377.773 135.661 362.895 128.004 323.181 128.004C275.869 128.004 206.944 132.358 206.944 119.745C206.944 119.745 198.397 126.953 179.116 125.376C162.654 124.025 161.187 119.32 161.187 113.439C161.187 113.439 116.494 117.268 84.5495 113.439C60.8072 110.586 62.6778 92.7184 56.6056 86.7374C51.1089 81.307 31.1654 72.7734 4.89062 70.1458C31.1654 67.5182 51.0801 58.9846 56.6056 53.5542C62.6778 47.5482 60.8072 29.6803 84.5495 26.8525C116.494 23.0237 161.187 26.8525 161.187 26.8525C161.187 20.9716 162.683 16.2669 179.116 14.9156C198.368 13.339 206.944 20.5462 206.944 20.5462C206.944 7.93359 275.869 12.2879 323.181 12.2879C362.895 12.2879 377.773 4.60528 381.515 2.15283Z" fill="white"/>
<path d="M381.514 140.24C379.874 140.24 378.32 139.89 377.428 139.289C374.147 137.137 360.535 130.08 323.18 130.08C313.741 130.08 303.64 130.255 292.905 130.43C256.529 131.056 222.168 131.632 208.268 125.976C206.915 125.425 205.793 124.825 204.872 124.199C199.088 126.476 190.051 128.403 178.194 127.402C160.697 125.976 157.1 121.146 156.438 115.891C143.142 116.792 109.443 118.569 83.2254 115.415C63.3395 113.038 59.0227 102.327 55.8571 94.5195C54.7059 91.6917 53.6411 89.014 52.1159 87.5375C47.3099 82.7828 28.6326 74.6246 3.73925 72.1221C1.55208 71.8969 -0.00195312 71.071 -0.00195312 70.1201C-0.00195312 69.1691 1.55208 68.3433 3.73925 68.1181C28.6039 65.6406 47.3099 57.4575 52.0871 52.7027C53.6124 51.2012 54.6772 48.5235 55.8283 45.7207C58.9939 37.9129 63.3107 27.2272 83.1966 24.8248C109.414 21.6967 143.113 23.4484 156.409 24.3493C157.071 19.0941 160.64 14.2642 178.166 12.8378C190.022 11.8618 199.03 13.7637 204.843 16.041C205.764 15.3904 206.887 14.8148 208.239 14.2643C222.139 8.63363 256.501 9.20921 292.877 9.80981C303.582 9.98498 313.712 10.1602 323.152 10.1602C360.535 10.1602 374.118 3.1281 377.399 0.950925C378.291 0.375349 379.845 0 381.486 0C383.126 0 384.68 0.350324 385.572 0.950925C388.853 3.10308 402.494 10.1602 439.848 10.1602C449.288 10.1602 459.418 9.98498 470.123 9.80981C506.499 9.18418 540.861 8.6086 554.761 14.2643C556.113 14.8148 557.236 15.4154 558.157 16.041C563.941 13.7637 572.978 11.8618 584.834 12.8378C602.332 14.2642 605.929 19.0941 606.562 24.3493C619.858 23.4484 653.586 21.6717 679.775 24.8248C699.66 27.2022 703.977 37.9129 707.143 45.7207C708.294 48.5485 709.359 51.2012 710.884 52.7027C715.69 57.4324 734.367 65.6156 759.261 68.1181C761.448 68.3433 763.002 69.1691 763.002 70.1201C763.002 71.071 761.448 71.8969 759.261 72.1221C734.396 74.5996 715.69 82.7828 710.884 87.5375C709.359 89.039 708.294 91.6917 707.143 94.5195C704.006 102.327 699.66 113.038 679.775 115.415C653.557 118.544 619.858 116.792 606.562 115.891C605.929 121.146 602.332 125.976 584.834 127.402C572.978 128.378 563.941 126.451 558.157 124.199C557.236 124.85 556.113 125.425 554.761 125.976C540.861 131.607 506.528 131.031 470.123 130.43C459.418 130.255 449.288 130.08 439.848 130.08C402.494 130.08 388.882 137.137 385.572 139.289C384.68 139.865 383.126 140.24 381.486 140.24H381.514ZM323.152 125.976C356.794 125.976 373.917 131.356 381.514 134.86C389.112 131.356 406.235 125.976 439.848 125.976C449.46 125.976 460.166 126.151 470.526 126.326C501.751 126.852 537.12 127.452 548.027 123.023C550.214 122.147 551.221 121.096 551.221 119.77C551.221 118.819 552.775 117.993 554.962 117.768C557.149 117.543 559.423 117.993 560.43 118.844C560.718 119.069 567.682 124.65 582.992 123.373C595.051 122.372 597.008 119.645 597.008 113.463C597.008 112.838 597.67 112.262 598.792 111.862C599.914 111.461 601.411 111.311 602.821 111.436C603.253 111.461 646.766 115.115 677.156 111.461C691.142 109.785 694.711 100.951 697.588 93.8438C698.883 90.6406 700.006 87.8629 701.963 85.9359C706.711 81.2563 721.82 74.0991 743.001 70.1451C721.82 66.1912 706.711 59.059 701.963 54.3543C700.006 52.4024 698.883 49.6496 697.588 46.4464C694.711 39.3393 691.142 30.5055 677.156 28.8288C646.708 25.1751 603.253 28.8288 602.821 28.8539C601.382 28.979 599.914 28.8288 598.792 28.4284C597.67 28.028 597.008 27.4524 597.008 26.8268C597.008 20.6456 595.051 17.8929 582.992 16.9169C567.682 15.6657 560.718 21.2212 560.43 21.4714C559.394 22.3223 557.149 22.7477 554.962 22.5225C552.775 22.2973 551.25 21.4715 551.25 20.5205C551.25 19.1692 550.243 18.1431 548.055 17.2673C537.148 12.8378 501.78 13.4384 470.555 13.9639C460.224 14.1391 449.518 14.3143 439.877 14.3143C406.264 14.3143 389.141 8.93393 381.543 5.43043C373.946 8.93393 356.822 14.3143 323.18 14.3143C313.568 14.3143 302.863 14.1391 292.531 13.9639C261.307 13.4384 225.938 12.8378 215.031 17.2673C212.844 18.1431 211.836 19.1942 211.836 20.5205C211.836 21.4715 210.282 22.2973 208.095 22.5225C205.879 22.7477 203.635 22.2973 202.627 21.4464C202.34 21.2212 195.375 15.6406 180.065 16.9169C168.007 17.9179 166.05 20.6456 166.05 26.8268C166.05 27.4524 165.388 28.028 164.266 28.4284C163.143 28.8288 161.647 28.979 160.237 28.8539C159.805 28.8288 116.292 25.1751 85.9018 28.8288C71.9155 30.5055 68.3469 39.3393 65.4691 46.4464C64.1741 49.6496 63.0517 52.4274 61.0948 54.3794C56.3463 59.0591 41.2376 66.2162 20.0566 70.1702C41.2376 74.0991 56.3463 81.2562 61.0948 85.9609C63.0517 87.9129 64.1741 90.6657 65.4691 93.8689C68.3469 100.976 71.9155 109.81 85.9018 111.486C116.292 115.115 159.805 111.486 160.237 111.461C161.647 111.336 163.143 111.486 164.266 111.887C165.388 112.287 166.05 112.863 166.05 113.488C166.05 119.67 168.007 122.422 180.065 123.398C195.548 124.675 202.541 118.919 202.627 118.869C203.635 118.018 205.908 117.568 208.095 117.793C210.282 118.018 211.836 118.844 211.836 119.795C211.836 121.146 212.844 122.172 215.031 123.048C225.938 127.477 261.307 126.877 292.531 126.351C302.863 126.176 313.568 126.001 323.18 126.001L323.152 125.976Z" fill="#3E1A5B"/>
<mask id="path-3-inside-1_3751_8620" fill="white">
<path d="M381.513 129.58C381.254 129.58 380.966 129.554 380.765 129.479C370.922 126.201 352.965 122.272 323.179 122.272C313.308 122.272 302.574 122.447 292.156 122.623C281.479 122.798 270.601 122.998 260.615 122.998C227.951 122.998 221.879 120.871 220.785 120.22C220.641 120.145 220.555 120.02 220.555 119.92C220.555 117.242 216.152 114.84 210.051 114.239C208.986 114.139 207.892 114.089 206.799 114.089C201.619 114.089 197.014 115.29 194.712 117.217C194.309 117.517 190.856 119.895 184.495 119.895C183.603 119.895 182.682 119.845 181.704 119.77C175.747 119.269 174.797 118.819 174.797 113.488C174.797 111.762 172.984 110.135 169.79 109.009C166.653 107.933 162.394 107.482 158.451 107.808C158.278 107.808 139.4 109.384 118.593 109.384H118.564C106.65 109.384 96.4621 108.884 88.2602 107.908C79.6267 106.882 76.4323 98.9989 74.1012 93.2432C72.7198 89.7897 71.5111 86.8368 69.1225 84.4844C64.2877 79.7046 53.2944 74.5245 39.7397 70.5955C39.3944 70.4954 39.2217 70.3453 39.2217 70.1701C39.2217 69.9949 39.4231 69.8448 39.7397 69.7447C53.3231 65.8158 64.3165 60.6105 69.1225 55.8558C71.5111 53.5034 72.6911 50.5505 74.1012 47.097C76.4323 41.3413 79.5979 33.4584 88.2602 32.4074C96.4621 31.4314 106.678 30.9309 118.593 30.9309C138.651 30.9309 156.465 32.3573 158.422 32.5074C162.48 32.8578 166.653 32.4074 169.79 31.3062C172.984 30.2051 174.797 28.5785 174.797 26.8518C174.797 21.5215 175.747 21.071 181.675 20.5705C182.654 20.4954 183.603 20.4454 184.467 20.4454C191.201 20.4454 194.654 23.098 194.683 23.1231C197.014 25.1 201.676 26.3012 206.885 26.3012C207.95 26.3012 209.015 26.2512 210.022 26.1511C216.209 25.5255 220.526 23.2232 220.526 20.5455C220.526 20.4704 220.555 20.4204 220.612 20.3453C221.102 19.8448 225.418 17.3423 260.528 17.3423C270.514 17.3423 281.393 17.5175 291.926 17.6926H292.271C302.631 17.8678 313.365 18.043 323.093 18.043C352.878 18.043 370.865 14.114 380.678 10.8358C381.11 10.6856 381.743 10.6856 382.175 10.8358C392.017 14.114 409.975 18.043 439.761 18.043C449.517 18.043 460.222 17.8678 470.582 17.6926H470.956C481.461 17.5175 492.339 17.3173 502.325 17.3173C534.96 17.3173 541.061 19.4444 542.126 20.095C542.27 20.1701 542.356 20.2952 542.356 20.3953C542.356 23.073 546.759 25.4754 552.86 26.076C553.925 26.1761 555.018 26.2262 556.112 26.2262C561.292 26.2262 565.897 25.025 568.199 23.098C568.602 22.7977 572.055 20.4203 578.415 20.4203C579.307 20.4203 580.228 20.4704 581.207 20.5455C587.135 21.046 588.085 21.4964 588.085 26.8267C588.085 28.5535 589.898 30.2051 593.092 31.3062C596.229 32.3823 600.488 32.8328 604.431 32.4824C605.237 32.4074 623.857 30.9058 644.289 30.9058C656.204 30.9058 666.42 31.4063 674.622 32.3823C683.284 33.4083 686.45 41.2912 688.781 47.047C690.162 50.5004 691.371 53.4534 693.731 55.8057C698.565 60.5855 709.559 65.7657 723.142 69.6946C723.488 69.7947 723.66 69.9449 723.66 70.1201C723.66 70.2952 723.459 70.4454 723.142 70.5455C709.559 74.4744 698.565 79.6796 693.731 84.4344C691.342 86.7867 690.162 89.7397 688.781 93.1681C686.45 98.9489 683.255 106.832 674.622 107.858C666.42 108.834 656.204 109.334 644.289 109.334C623.828 109.334 605.237 107.808 604.46 107.758C600.431 107.407 596.229 107.858 593.092 108.959C589.898 110.06 588.085 111.687 588.085 113.413C588.085 118.744 587.135 119.194 581.207 119.695C580.228 119.77 579.279 119.82 578.415 119.82C571.911 119.82 568.458 117.342 568.084 117.067C565.753 115.115 561.148 113.914 555.997 113.914C554.903 113.914 553.838 113.964 552.774 114.064C546.73 114.665 542.327 117.042 542.327 119.745C542.327 119.82 542.298 119.87 542.241 119.945C541.723 120.445 537.435 122.948 502.325 122.948C492.339 122.948 481.461 122.773 470.956 122.598H470.611C460.251 122.422 449.517 122.222 439.761 122.222C409.975 122.222 392.017 126.151 382.175 129.429C381.945 129.504 381.686 129.529 381.427 129.529L381.513 129.58ZM323.15 121.246C352.907 121.246 371.21 125.1 381.513 128.428C391.816 125.1 410.119 121.246 439.847 121.246C449.632 121.246 460.395 121.421 470.784 121.597L471.1 122.122L471.158 121.597C481.662 121.772 492.512 121.947 502.44 121.947C533.578 121.947 539.248 119.97 540.025 119.595C540.198 116.466 545.205 113.789 552.342 113.088C553.58 112.963 554.846 112.913 556.112 112.913C562.184 112.913 567.623 114.339 570.357 116.617C570.645 116.817 573.437 118.819 578.53 118.819C579.25 118.819 580.056 118.794 580.862 118.719C585.322 118.343 585.783 118.318 585.783 113.463C585.783 111.411 587.941 109.509 591.682 108.208C595.366 106.932 600.402 106.406 605.035 106.807C605.812 106.882 624.173 108.358 644.404 108.358C656.117 108.358 666.103 107.883 674.075 106.907C681.241 106.056 684.522 97.9229 686.507 93.043C687.917 89.5395 689.155 86.5115 691.63 84.059C696.465 79.2792 707.17 74.1241 720.466 70.1451C707.199 66.1661 696.465 61.0109 691.63 56.2312C689.155 53.7787 687.917 50.7507 686.507 47.2472C684.55 42.3673 681.241 34.2342 674.075 33.3833C666.075 32.4324 656.117 31.9319 644.404 31.9319C624.173 31.9319 605.812 33.4334 605.035 33.4834C600.345 33.8838 595.337 33.3583 591.653 32.082C587.912 30.7807 585.754 28.8788 585.754 26.8267C585.754 21.9719 585.293 21.9219 580.833 21.5715C579.998 21.4964 579.221 21.4714 578.502 21.4714C573.494 21.4714 570.731 23.3983 570.415 23.5985C567.767 25.8508 562.299 27.2522 556.198 27.2522C554.932 27.2522 553.637 27.1771 552.4 27.052C545.378 26.3513 540.255 23.6486 540.025 20.5705C538.845 20.1451 532.082 18.3183 502.411 18.3183C492.483 18.3183 481.633 18.4934 471.129 18.6686L470.726 18.1681L470.784 18.6936C460.395 18.8688 449.632 19.044 439.847 19.044C410.119 19.044 391.787 15.1901 381.513 11.8618C371.239 15.1901 352.907 19.044 323.15 19.044C313.365 19.044 302.602 18.8688 292.213 18.6936L291.926 18.1681L291.868 18.6936C281.364 18.5184 270.514 18.3433 260.586 18.3433C229.447 18.3433 223.778 20.3202 223.001 20.6956C222.828 23.7987 217.792 26.4264 210.626 27.1521C209.418 27.2772 208.18 27.3273 206.914 27.3273C200.784 27.3273 195.287 25.9009 192.525 23.5735C192.525 23.5735 189.647 21.4714 184.495 21.4714C183.776 21.4714 182.97 21.4964 182.164 21.5715C177.704 21.9469 177.243 21.9719 177.243 26.8267C177.243 28.8788 175.085 30.7807 171.344 32.082C167.66 33.3583 162.624 33.8838 157.99 33.4834C156.034 33.3333 138.421 31.9069 118.593 31.9069C106.88 31.9069 96.8938 32.3823 88.9221 33.3583C81.7563 34.2091 78.4755 42.3423 76.4898 47.2222C75.0797 50.7257 73.8422 53.7537 71.3672 56.2061C66.5325 60.9859 55.8269 66.1411 42.56 70.1201C55.8269 74.099 66.5325 79.2542 71.3672 84.034C73.871 86.4864 75.0797 89.5145 76.4898 93.018C78.4467 97.8728 81.7275 106.031 88.9221 106.882C96.9225 107.833 106.88 108.333 118.564 108.333H118.593C139.371 108.333 157.789 106.782 157.962 106.782C162.653 106.381 167.631 106.907 171.344 108.183C175.085 109.484 177.243 111.386 177.243 113.438C177.243 118.293 177.704 118.343 182.164 118.694C182.97 118.769 183.776 118.794 184.495 118.794C189.503 118.794 192.266 116.867 192.582 116.667C195.259 114.414 200.698 113.013 206.799 113.013C208.065 113.013 209.36 113.088 210.626 113.213C217.648 113.914 222.771 116.617 222.972 119.695C224.152 120.12 230.915 121.947 260.586 121.947C270.514 121.947 281.364 121.772 291.868 121.597C302.458 121.421 313.25 121.221 323.15 121.221V121.246Z"/>
</mask>
<path d="M381.513 129.58C381.254 129.58 380.966 129.554 380.765 129.479C370.922 126.201 352.965 122.272 323.179 122.272C313.308 122.272 302.574 122.447 292.156 122.623C281.479 122.798 270.601 122.998 260.615 122.998C227.951 122.998 221.879 120.871 220.785 120.22C220.641 120.145 220.555 120.02 220.555 119.92C220.555 117.242 216.152 114.84 210.051 114.239C208.986 114.139 207.892 114.089 206.799 114.089C201.619 114.089 197.014 115.29 194.712 117.217C194.309 117.517 190.856 119.895 184.495 119.895C183.603 119.895 182.682 119.845 181.704 119.77C175.747 119.269 174.797 118.819 174.797 113.488C174.797 111.762 172.984 110.135 169.79 109.009C166.653 107.933 162.394 107.482 158.451 107.808C158.278 107.808 139.4 109.384 118.593 109.384H118.564C106.65 109.384 96.4621 108.884 88.2602 107.908C79.6267 106.882 76.4323 98.9989 74.1012 93.2432C72.7198 89.7897 71.5111 86.8368 69.1225 84.4844C64.2877 79.7046 53.2944 74.5245 39.7397 70.5955C39.3944 70.4954 39.2217 70.3453 39.2217 70.1701C39.2217 69.9949 39.4231 69.8448 39.7397 69.7447C53.3231 65.8158 64.3165 60.6105 69.1225 55.8558C71.5111 53.5034 72.6911 50.5505 74.1012 47.097C76.4323 41.3413 79.5979 33.4584 88.2602 32.4074C96.4621 31.4314 106.678 30.9309 118.593 30.9309C138.651 30.9309 156.465 32.3573 158.422 32.5074C162.48 32.8578 166.653 32.4074 169.79 31.3062C172.984 30.2051 174.797 28.5785 174.797 26.8518C174.797 21.5215 175.747 21.071 181.675 20.5705C182.654 20.4954 183.603 20.4454 184.467 20.4454C191.201 20.4454 194.654 23.098 194.683 23.1231C197.014 25.1 201.676 26.3012 206.885 26.3012C207.95 26.3012 209.015 26.2512 210.022 26.1511C216.209 25.5255 220.526 23.2232 220.526 20.5455C220.526 20.4704 220.555 20.4204 220.612 20.3453C221.102 19.8448 225.418 17.3423 260.528 17.3423C270.514 17.3423 281.393 17.5175 291.926 17.6926H292.271C302.631 17.8678 313.365 18.043 323.093 18.043C352.878 18.043 370.865 14.114 380.678 10.8358C381.11 10.6856 381.743 10.6856 382.175 10.8358C392.017 14.114 409.975 18.043 439.761 18.043C449.517 18.043 460.222 17.8678 470.582 17.6926H470.956C481.461 17.5175 492.339 17.3173 502.325 17.3173C534.96 17.3173 541.061 19.4444 542.126 20.095C542.27 20.1701 542.356 20.2952 542.356 20.3953C542.356 23.073 546.759 25.4754 552.86 26.076C553.925 26.1761 555.018 26.2262 556.112 26.2262C561.292 26.2262 565.897 25.025 568.199 23.098C568.602 22.7977 572.055 20.4203 578.415 20.4203C579.307 20.4203 580.228 20.4704 581.207 20.5455C587.135 21.046 588.085 21.4964 588.085 26.8267C588.085 28.5535 589.898 30.2051 593.092 31.3062C596.229 32.3823 600.488 32.8328 604.431 32.4824C605.237 32.4074 623.857 30.9058 644.289 30.9058C656.204 30.9058 666.42 31.4063 674.622 32.3823C683.284 33.4083 686.45 41.2912 688.781 47.047C690.162 50.5004 691.371 53.4534 693.731 55.8057C698.565 60.5855 709.559 65.7657 723.142 69.6946C723.488 69.7947 723.66 69.9449 723.66 70.1201C723.66 70.2952 723.459 70.4454 723.142 70.5455C709.559 74.4744 698.565 79.6796 693.731 84.4344C691.342 86.7867 690.162 89.7397 688.781 93.1681C686.45 98.9489 683.255 106.832 674.622 107.858C666.42 108.834 656.204 109.334 644.289 109.334C623.828 109.334 605.237 107.808 604.46 107.758C600.431 107.407 596.229 107.858 593.092 108.959C589.898 110.06 588.085 111.687 588.085 113.413C588.085 118.744 587.135 119.194 581.207 119.695C580.228 119.77 579.279 119.82 578.415 119.82C571.911 119.82 568.458 117.342 568.084 117.067C565.753 115.115 561.148 113.914 555.997 113.914C554.903 113.914 553.838 113.964 552.774 114.064C546.73 114.665 542.327 117.042 542.327 119.745C542.327 119.82 542.298 119.87 542.241 119.945C541.723 120.445 537.435 122.948 502.325 122.948C492.339 122.948 481.461 122.773 470.956 122.598H470.611C460.251 122.422 449.517 122.222 439.761 122.222C409.975 122.222 392.017 126.151 382.175 129.429C381.945 129.504 381.686 129.529 381.427 129.529L381.513 129.58ZM323.15 121.246C352.907 121.246 371.21 125.1 381.513 128.428C391.816 125.1 410.119 121.246 439.847 121.246C449.632 121.246 460.395 121.421 470.784 121.597L471.1 122.122L471.158 121.597C481.662 121.772 492.512 121.947 502.44 121.947C533.578 121.947 539.248 119.97 540.025 119.595C540.198 116.466 545.205 113.789 552.342 113.088C553.58 112.963 554.846 112.913 556.112 112.913C562.184 112.913 567.623 114.339 570.357 116.617C570.645 116.817 573.437 118.819 578.53 118.819C579.25 118.819 580.056 118.794 580.862 118.719C585.322 118.343 585.783 118.318 585.783 113.463C585.783 111.411 587.941 109.509 591.682 108.208C595.366 106.932 600.402 106.406 605.035 106.807C605.812 106.882 624.173 108.358 644.404 108.358C656.117 108.358 666.103 107.883 674.075 106.907C681.241 106.056 684.522 97.9229 686.507 93.043C687.917 89.5395 689.155 86.5115 691.63 84.059C696.465 79.2792 707.17 74.1241 720.466 70.1451C707.199 66.1661 696.465 61.0109 691.63 56.2312C689.155 53.7787 687.917 50.7507 686.507 47.2472C684.55 42.3673 681.241 34.2342 674.075 33.3833C666.075 32.4324 656.117 31.9319 644.404 31.9319C624.173 31.9319 605.812 33.4334 605.035 33.4834C600.345 33.8838 595.337 33.3583 591.653 32.082C587.912 30.7807 585.754 28.8788 585.754 26.8267C585.754 21.9719 585.293 21.9219 580.833 21.5715C579.998 21.4964 579.221 21.4714 578.502 21.4714C573.494 21.4714 570.731 23.3983 570.415 23.5985C567.767 25.8508 562.299 27.2522 556.198 27.2522C554.932 27.2522 553.637 27.1771 552.4 27.052C545.378 26.3513 540.255 23.6486 540.025 20.5705C538.845 20.1451 532.082 18.3183 502.411 18.3183C492.483 18.3183 481.633 18.4934 471.129 18.6686L470.726 18.1681L470.784 18.6936C460.395 18.8688 449.632 19.044 439.847 19.044C410.119 19.044 391.787 15.1901 381.513 11.8618C371.239 15.1901 352.907 19.044 323.15 19.044C313.365 19.044 302.602 18.8688 292.213 18.6936L291.926 18.1681L291.868 18.6936C281.364 18.5184 270.514 18.3433 260.586 18.3433C229.447 18.3433 223.778 20.3202 223.001 20.6956C222.828 23.7987 217.792 26.4264 210.626 27.1521C209.418 27.2772 208.18 27.3273 206.914 27.3273C200.784 27.3273 195.287 25.9009 192.525 23.5735C192.525 23.5735 189.647 21.4714 184.495 21.4714C183.776 21.4714 182.97 21.4964 182.164 21.5715C177.704 21.9469 177.243 21.9719 177.243 26.8267C177.243 28.8788 175.085 30.7807 171.344 32.082C167.66 33.3583 162.624 33.8838 157.99 33.4834C156.034 33.3333 138.421 31.9069 118.593 31.9069C106.88 31.9069 96.8938 32.3823 88.9221 33.3583C81.7563 34.2091 78.4755 42.3423 76.4898 47.2222C75.0797 50.7257 73.8422 53.7537 71.3672 56.2061C66.5325 60.9859 55.8269 66.1411 42.56 70.1201C55.8269 74.099 66.5325 79.2542 71.3672 84.034C73.871 86.4864 75.0797 89.5145 76.4898 93.018C78.4467 97.8728 81.7275 106.031 88.9221 106.882C96.9225 107.833 106.88 108.333 118.564 108.333H118.593C139.371 108.333 157.789 106.782 157.962 106.782C162.653 106.381 167.631 106.907 171.344 108.183C175.085 109.484 177.243 111.386 177.243 113.438C177.243 118.293 177.704 118.343 182.164 118.694C182.97 118.769 183.776 118.794 184.495 118.794C189.503 118.794 192.266 116.867 192.582 116.667C195.259 114.414 200.698 113.013 206.799 113.013C208.065 113.013 209.36 113.088 210.626 113.213C217.648 113.914 222.771 116.617 222.972 119.695C224.152 120.12 230.915 121.947 260.586 121.947C270.514 121.947 281.364 121.772 291.868 121.597C302.458 121.421 313.25 121.221 323.15 121.221V121.246Z" fill="#7F3F98" stroke="#7F3F98" stroke-width="2" mask="url(#path-3-inside-1_3751_8620)"/>
</svg>
