<svg width="51" height="52" viewBox="0 0 51 52" fill="none" xmlns="http://www.w3.org/2000/svg">
<g clip-path="url(#clip0_512_3633)">
<path d="M48.8375 40.9C50.11 41.2712 50.9934 42.4251 50.9934 43.7507V48.0483L50.9736 48.1002L25.4829 40.0419L41.5548 35.6993C43.3046 38.1695 45.8598 40.031 48.8375 40.9Z" fill="#7A5436"/>
<path d="M25.4829 40.0308L-0.0065918 48.0482V43.7444C-0.0065918 42.421 0.873756 41.2676 2.14387 40.8953C5.12897 40.0203 7.68793 38.1481 9.43448 35.6633L25.4829 40.0308Z" fill="#C9AD80"/>
<path d="M47.7089 5.7398L25.4829 34.3867V40.2074L50.9934 28.1769V7.96079C50.9934 6.2761 49.2989 5.11874 47.7296 5.73163L47.7089 5.7398Z" fill="#C9AD80"/>
<path d="M3.25691 5.67308C1.68766 5.06038 -0.0065918 6.21764 -0.0065918 7.90234V28.119L25.4829 40.2075V34.3867L3.25691 5.67308Z" fill="#A57D48"/>
<path d="M50.9934 48.1075C50.9934 49.9471 49.1423 51.2103 47.4292 50.5395L25.4977 41.9509L25.4927 41.9521L25.4877 41.9509L3.55265 50.4904C1.84046 51.1569 -0.0065918 49.8938 -0.0065918 48.0564V48.0481L20.587 40.0307L9.43448 35.6633L3.56859 33.3664C1.41214 32.522 -0.0065918 30.4427 -0.0065918 28.1269V28.1188L25.483 38.1057L50.9934 28.1769C50.9934 30.4967 49.5697 32.5787 47.408 33.4203L41.5547 35.6991L30.3998 40.0418L50.9736 48.1L50.9934 48.1075Z" fill="#8D663D"/>
<path d="M47.0926 4.03814L25.4828 13.0422L3.87318 4.03814C2.76722 3.57735 1.48983 4.31117 1.40895 5.50668C1.40606 5.54852 1.40466 5.59085 1.40466 5.63348V25.5664C1.40466 26.3294 1.87253 27.0143 2.58314 27.2918L20.8762 34.4348C22.5243 35.6314 24.0036 36.2298 25.4827 36.2298C26.9618 36.2298 28.441 35.6314 30.0893 34.4348L48.3824 27.2918C49.0931 27.0143 49.5609 26.3293 49.5609 25.5664V5.63358C49.5609 5.59095 49.5594 5.54862 49.5566 5.50678C49.476 4.31127 48.1986 3.57735 47.0926 4.03814Z" fill="#39BA92"/>
<path d="M25.4829 24.1553L29.1873 32.7987C27.7759 33.8569 26.6288 34.3865 25.4829 34.3865C24.337 34.3865 23.1899 33.8568 21.7786 32.7987L25.4829 24.1553Z" fill="#47423F"/>
<path d="M42.7698 1.92932L32.8521 4.21735C30.9851 4.64826 29.3305 5.6065 28.0488 6.92642C26.7672 8.24635 25.8583 9.92815 25.483 11.8075L8.19609 1.92932L3.25696 5.63359V5.67314V25.5666L25.483 31.5639L47.7089 25.5666L42.7698 1.92932Z" fill="#FEFBE1"/>
<path d="M18.1138 4.21715L8.19604 1.92932V21.6857L25.483 31.564V11.8075C24.7309 8.04882 21.8477 5.07907 18.1138 4.21715Z" fill="#D5D2BD"/>
<path d="M47.7089 5.73978V25.39H42.7698V1.92932L47.7089 5.63359V5.73978Z" fill="#D5D2BD"/>
<path d="M22.9171 26.6828C24.1987 28.0029 25.1076 29.6846 25.4829 31.5639C24.179 31.5639 22.8763 31.9763 21.7785 32.7986L3.25696 25.5666L8.19609 21.6857L18.1138 23.9738C19.9808 24.4047 21.6354 25.3628 22.9171 26.6828Z" fill="#B0A18D"/>
<path d="M47.709 25.5666L29.1873 32.7986C28.0896 31.9763 26.7869 31.5639 25.4829 31.5639C26.2349 27.8052 29.1181 24.8356 32.852 23.9738L42.7697 21.6857L47.709 25.5666Z" fill="#B0A18D"/>
<path d="M23.0135 17.7107C22.7673 17.7107 22.5218 17.6132 22.3395 17.42C21.1393 16.1474 19.6059 15.2675 17.9049 14.8751L11.692 13.4413C11.1936 13.3263 10.8828 12.8291 10.9978 12.3308C11.1128 11.8323 11.6101 11.5216 12.1084 11.6367L18.3214 13.0704C20.3796 13.5453 22.2351 14.6097 23.6869 16.149C24.0378 16.5211 24.0207 17.1073 23.6487 17.4582C23.4699 17.6269 23.2415 17.7107 23.0135 17.7107Z" fill="#2372B9"/>
<path d="M23.0135 12.1542C22.7673 12.1542 22.5218 12.0567 22.3395 11.8635C21.1393 10.5909 19.6059 9.71104 17.9049 9.31858L11.692 7.8849C11.1936 7.76995 10.8828 7.2727 10.9978 6.77435C11.1128 6.27591 11.6101 5.96543 12.1084 6.08028L18.3214 7.51395C20.3796 7.98889 22.2351 9.05332 23.6869 10.5926C24.0378 10.9647 24.0207 11.5509 23.6487 11.9018C23.4699 12.0706 23.2415 12.1542 23.0135 12.1542Z" fill="#2372B9"/>
<path d="M23.0135 23.267C22.7673 23.267 22.5218 23.1696 22.3395 22.9763C21.1393 21.7037 19.6059 20.8239 17.9049 20.4314L11.692 18.9977C11.1936 18.8828 10.8828 18.3855 10.9978 17.8872C11.1128 17.3887 11.6101 17.0783 12.1084 17.1931L18.3214 18.6268C20.3796 19.1017 22.2351 20.1661 23.6869 21.7054C24.0378 22.0775 24.0207 22.6637 23.6487 23.0147C23.4699 23.1834 23.2415 23.267 23.0135 23.267Z" fill="#2372B9"/>
<path d="M27.9524 12.1539C27.7245 12.1539 27.496 12.0703 27.3171 11.9015C26.945 11.5505 26.928 10.9645 27.2789 10.5923C28.7306 9.05311 30.5862 7.98858 32.6444 7.51365L38.8573 6.07997C39.3555 5.96452 39.8529 6.2757 39.968 6.77405C40.0829 7.27239 39.7722 7.76964 39.2738 7.88459L33.0608 9.31827C31.3598 9.71093 29.8263 10.5909 28.6261 11.8632C28.444 12.0565 28.1984 12.1539 27.9524 12.1539Z" fill="#2372B9"/>
<path d="M27.9524 17.7106C27.7245 17.7106 27.496 17.627 27.3171 17.4582C26.945 17.1072 26.928 16.5212 27.2789 16.149C28.7306 14.6098 30.5862 13.5453 32.6444 13.0703L38.8573 11.6367C39.3555 11.5216 39.8529 11.8324 39.968 12.3307C40.0829 12.8291 39.7722 13.3263 39.2738 13.4413L33.0608 14.875C31.3598 15.2676 29.8263 16.1476 28.6261 17.4199C28.444 17.6132 28.1984 17.7106 27.9524 17.7106Z" fill="#2372B9"/>
<path d="M27.9524 23.267C27.7245 23.267 27.496 23.1833 27.3171 23.0146C26.945 22.6636 26.928 22.0776 27.2789 21.7053C28.7306 20.1661 30.5862 19.1016 32.6444 18.6267L38.8573 17.193C39.3555 17.078 39.8529 17.3886 39.968 17.8871C40.0829 18.3854 39.7722 18.8827 39.2738 18.9976L33.0608 20.4313C31.3598 20.824 29.8263 21.7039 28.6261 22.9762C28.444 23.1696 28.1984 23.267 27.9524 23.267Z" fill="#2372B9"/>
</g>
<defs>
<clipPath id="clip0_512_3633">
<rect width="51" height="51" fill="white" transform="translate(-0.0065918 0.825562)"/>
</clipPath>
</defs>
</svg>
