<svg width="46" height="52" viewBox="0 0 46 52" fill="none" xmlns="http://www.w3.org/2000/svg">
<path d="M38.0979 27.5443V37.4198C38.0979 38.6598 37.0889 39.6687 35.8489 39.6687H26.4727C25.8166 39.6687 25.1999 39.9242 24.736 40.3881L19.1008 46.0234L24.5812 51.129C25.0826 51.5962 25.8999 51.2406 25.8999 50.5553V46.1627C25.8999 44.8635 26.9531 43.8103 28.2524 43.8103H40.0929C41.3921 43.8103 42.4453 42.757 42.4453 41.4578V27.5443H38.0979Z" fill="#39BA92"/>
<path d="M21.6723 43.4522L19.1008 46.0237L24.5812 51.1294C25.0826 51.5965 25.8999 51.2409 25.8999 50.5556V47.3907L21.6723 43.4522Z" fill="#3DB47D"/>
<path d="M29.984 27.5438C29.468 27.5438 29.0483 27.124 29.0483 26.6081V12.2766C29.0483 12.0587 29.1237 11.8585 29.249 11.6993H2.75821C1.45902 11.6993 0.405762 12.7526 0.405762 14.0518V37.4193C0.405762 38.7185 1.45902 39.7718 2.75821 39.7718H14.5988C15.898 39.7718 16.9512 40.825 16.9512 42.1242V46.4259C16.9512 47.1245 17.7958 47.4744 18.2899 46.9804L24.8094 40.4609C25.2506 40.0197 25.8489 39.7719 26.4728 39.7719H35.8491C37.1483 39.7719 38.2016 38.7186 38.2016 37.4194V27.5438H29.984Z" fill="#D2FFEA"/>
<path d="M5.08258 37.4193V14.0518C5.08258 12.7526 6.13584 11.6993 7.43503 11.6993H2.75821C1.45902 11.6993 0.405762 12.7526 0.405762 14.0518V37.4193C0.405762 38.7185 1.45902 39.7718 2.75821 39.7718H7.43503C6.13584 39.7718 5.08258 38.7185 5.08258 37.4193Z" fill="#39BA92"/>
<path d="M29.0479 12.2768C29.0479 11.7608 29.4677 11.3411 29.9836 11.3411H31.7571C30.7003 5.5102 25.5979 1.08807 19.4623 1.08807C12.561 1.08807 6.96643 6.6827 6.96643 13.584C6.96643 20.4853 12.561 26.0799 19.4623 26.0799C23.3127 26.0799 26.7557 24.3379 29.048 21.5997V12.2768H29.0479Z" fill="#99E6FC"/>
<path d="M16.2979 24.493C12.4798 22.355 9.8986 18.2713 9.8986 13.584C9.8986 8.8967 12.4798 4.81304 16.2979 2.67494C17.234 1.66481 18.3131 1.08807 19.4623 1.08807C12.561 1.08807 6.96643 6.6827 6.96643 13.584C6.96643 20.4853 12.561 26.0799 19.4623 26.0799C18.3131 26.0799 17.234 25.5032 16.2979 24.493Z" fill="#62DBFB"/>
<path d="M19.4634 26.0799C23.045 26.0799 25.9486 20.4853 25.9486 13.584C25.9486 6.68268 23.045 1.08807 19.4634 1.08807C15.8817 1.08807 12.9781 6.68268 12.9781 13.584C12.9781 20.4853 15.8817 26.0799 19.4634 26.0799Z" fill="#01D0FB"/>
<path d="M16.1045 13.584C16.1045 7.72122 18.2 2.80234 21.0265 1.45443C20.5258 1.21557 20.0023 1.08807 19.4634 1.08807C15.8816 1.08807 12.9781 6.6827 12.9781 13.584C12.9781 20.4853 15.8816 26.0799 19.4634 26.0799C20.0023 26.0799 20.5258 25.9524 21.0265 25.7135C18.2 24.3656 16.1045 19.4468 16.1045 13.584Z" fill="#01C0FA"/>
<path d="M29.0485 20.366C27.6855 22.2871 25.7622 23.7839 23.5166 24.6119C24.5001 23.412 25.3071 21.7806 25.8615 19.8514H29.0485V18.3573H26.2274C26.4849 17.1015 26.6428 15.7493 26.6839 14.3311H29.0484V12.837H26.6839C26.6428 11.4186 26.4849 10.0666 26.2273 8.81069H29.9024C29.9985 8.81069 30.0901 8.79187 30.1746 8.7588C30.5435 9.57439 30.8208 10.4397 30.9955 11.3412H32.5149C31.4464 5.10356 26.0007 0.341064 19.4629 0.341064C12.1607 0.341064 6.21997 6.28193 6.21997 13.584C6.21997 20.8862 12.1607 26.827 19.4629 26.827C23.2301 26.827 26.6348 25.2458 29.0485 22.7124V20.366ZM15.409 2.55626C14.4255 3.75615 13.6185 5.38744 13.0643 7.31656H9.52976C10.9032 5.14768 12.9665 3.45702 15.409 2.55626ZM8.75112 8.7589C8.83549 8.79197 8.92713 8.81079 9.02325 8.81079H12.6982C12.4406 10.0667 12.2827 11.4187 12.2416 12.8371H7.7384C7.82964 11.3919 8.18236 10.0166 8.75112 8.7589ZM8.75112 18.4092C8.18236 17.1514 7.82964 15.7762 7.7385 14.3311H12.2417C12.2828 15.7493 12.4407 17.1015 12.6983 18.3573H9.02335C8.92713 18.3573 8.83559 18.3761 8.75112 18.4092ZM9.52976 19.8514H13.0643C13.6186 21.7806 14.4256 23.4119 15.4091 24.6118C12.9664 23.7111 10.9031 22.0204 9.52976 19.8514ZM18.7159 25.2282C17.0253 24.7549 15.5408 22.7055 14.6396 19.8514H18.7159V25.2282ZM18.7159 18.3573H14.2386C13.9583 17.108 13.7832 15.749 13.7373 14.3311H18.7159V18.3573ZM18.7159 12.837H13.7373C13.7832 11.4189 13.9583 10.06 14.2386 8.81069H18.7159V12.837ZM18.7159 7.31656H14.6397C15.5409 4.46247 17.0253 2.41322 18.7159 1.93988V7.31656ZM29.3961 7.31656H25.8616C25.3072 5.38734 24.5002 3.75605 23.5167 2.55616C25.9594 3.45702 28.0227 5.14768 29.3961 7.31656ZM20.21 1.93988C21.9005 2.41322 23.3849 4.46247 24.2861 7.31656H20.21V1.93988ZM20.21 8.81069H24.6872C24.9675 10.06 25.1425 11.4189 25.1884 12.837H20.21V8.81069ZM20.21 14.3311H25.1884C25.1425 15.749 24.9675 17.108 24.6872 18.3573H20.21V14.3311ZM20.21 25.2282V19.8514H24.2862C23.3849 22.7056 21.9005 24.7549 20.21 25.2282Z" fill="#2372B9"/>
<path d="M29.6946 31.8637H9.23107C8.81839 31.8637 8.48401 31.5293 8.48401 31.1166C8.48401 30.704 8.81839 30.3696 9.23107 30.3696H29.6946C30.1073 30.3696 30.4417 30.704 30.4417 31.1166C30.4417 31.5293 30.1072 31.8637 29.6946 31.8637Z" fill="#39BA92"/>
<path d="M27.6783 35.3537H11.3662C10.9535 35.3537 10.6191 35.0193 10.6191 34.6066C10.6191 34.1939 10.9535 33.8596 11.3662 33.8596H27.6783C28.091 33.8596 28.4253 34.1939 28.4253 34.6066C28.4253 35.0193 28.091 35.3537 27.6783 35.3537Z" fill="#39BA92"/>
<path d="M44.3152 27.6436H29.9838C29.4121 27.6436 28.9485 27.1802 28.9485 26.6083V12.2769C28.9485 11.7052 29.412 11.2416 29.9838 11.2416H44.3152C44.8869 11.2416 45.3505 11.7051 45.3505 12.2769V26.6083C45.3505 27.1802 44.887 27.6436 44.3152 27.6436Z" fill="#E6FFF4"/>
<path d="M32.3606 26.6084V12.2769C32.3606 11.7052 32.8241 11.2416 33.3959 11.2416H29.9838C29.4121 11.2416 28.9485 11.7051 28.9485 12.2769V26.6083C28.9485 27.1801 29.412 27.6436 29.9838 27.6436H33.3959C32.8242 27.6436 32.3606 27.1802 32.3606 26.6084Z" fill="url(#paint0_linear_512_3659)"/>
<path d="M43.4088 23.298L39.7384 15.7435C39.6134 15.4862 39.3524 15.3229 39.0664 15.3229C38.7803 15.3229 38.5195 15.4862 38.3944 15.7435L34.7241 23.298C34.5438 23.6692 34.6985 24.1161 35.0696 24.2964C35.1748 24.3475 35.286 24.3717 35.3954 24.3717C35.6725 24.3716 35.9388 24.2168 36.068 23.9509L37.0262 21.9785H41.1066L42.0648 23.9509C42.2452 24.3219 42.692 24.4766 43.0632 24.2964C43.4344 24.1161 43.5891 23.6692 43.4088 23.298ZM37.7523 20.4845L39.0665 17.7795L40.3807 20.4845H37.7523Z" fill="#39BA92"/>
<defs>
<linearGradient id="paint0_linear_512_3659" x1="31.439" y1="24.9535" x2="31.439" y2="12.1121" gradientUnits="userSpaceOnUse">
<stop stop-color="#70C59E"/>
<stop offset="1" stop-color="#2473B9"/>
</linearGradient>
</defs>
</svg>
