<svg width="52" height="52" viewBox="0 0 52 52" fill="none" xmlns="http://www.w3.org/2000/svg">
<path fill-rule="evenodd" clip-rule="evenodd" d="M1.26233 3.94617C1.26233 3.39388 1.71004 2.94617 2.26233 2.94617H35.8241C36.3764 2.94617 36.8241 3.39388 36.8241 3.94617V42.1554C36.8241 42.7077 36.3764 43.1554 35.8241 43.1554H2.26233C1.71004 43.1554 1.26233 42.7077 1.26233 42.1554V3.94617Z" fill="#39BA92"/>
<path d="M29.0178 28.4139C34.8342 28.4139 39.55 33.1288 39.55 38.9452C39.55 44.7616 34.8343 49.4774 29.0178 49.4774C23.2015 49.4773 18.4866 44.7616 18.4866 38.9452C18.4867 33.1289 23.2015 28.414 29.0178 28.4139Z" fill="#CDEBFF" stroke="#2372B9" stroke-width="0.4"/>
<path d="M40.0829 41.031L45.5028 44.1619C47.2769 45.1862 47.8903 47.4755 46.8661 49.2498C45.8417 51.0235 43.5531 51.6363 41.7792 50.6121L36.3563 47.4802L36.2333 47.4099L36.3417 47.3181C38.1847 45.7558 39.4887 43.5771 39.9344 41.1003L39.9589 40.9597L40.0829 41.031Z" fill="#C49E6C" stroke="#967852" stroke-width="0.2"/>
<path d="M42.3982 1.03955C47.0073 1.03963 50.7439 4.77609 50.7439 9.38525C50.7439 11.5087 49.9504 13.4477 48.6443 14.9204C48.0034 15.6431 47.6903 16.4672 47.6902 17.4331C47.6902 18.3793 46.9168 19.1528 45.9705 19.1528H38.8259C37.8796 19.1528 37.1062 18.3793 37.1062 17.4331C37.1061 16.4672 36.793 15.6431 36.1521 14.9204C34.8459 13.4476 34.0525 11.5087 34.0525 9.38525C34.0524 4.77605 37.789 1.03955 42.3982 1.03955Z" fill="#FFC437" stroke="#D59E18" stroke-width="0.5"/>
<rect x="7.42371" y="10.1265" width="23.2056" height="1.76805" rx="0.884024" fill="#BCFDDF"/>
<rect x="7.42371" y="16.0935" width="23.2056" height="1.76805" rx="0.884024" fill="#BCFDDF"/>
<rect x="7.42371" y="22.1708" width="23.2056" height="1.76805" rx="0.884024" fill="#BCFDDF"/>
<path d="M39.8431 21.5468H45.9144C45.9735 21.5468 46.0219 21.595 46.0219 21.6542C46.0217 21.7132 45.9734 21.7605 45.9144 21.7606H39.8431C39.7841 21.7606 39.7359 21.7132 39.7357 21.6542C39.7357 21.595 39.784 21.5468 39.8431 21.5468Z" fill="#7B7B7B" stroke="#3C3C3C"/>
<path d="M40.5818 23.9752H45.1248C45.1839 23.9752 45.2322 24.0235 45.2322 24.0826C45.232 24.1417 45.1838 24.1891 45.1248 24.1891H40.5818C40.5227 24.1891 40.4745 24.1417 40.4744 24.0826C40.4744 24.0235 40.5226 23.9752 40.5818 23.9752Z" fill="#7B7B7B" stroke="#3C3C3C"/>
<path d="M7.42371 29.0701C7.42371 28.5782 7.82246 28.1794 8.31434 28.1794H24.6492C23.3315 28.7175 22.6737 29.1001 21.6786 29.9607H8.31434C7.82246 29.9607 7.42371 29.562 7.42371 29.0701Z" fill="#BCFDDF"/>
<path d="M7.48212 35.1707C7.45044 34.6429 7.8699 34.1975 8.39861 34.1975H18.4188C18.1425 34.823 17.9215 35.265 17.811 35.9832L8.40355 36.0338C7.91594 36.0364 7.51134 35.6574 7.48212 35.1707Z" fill="#BCFDDF"/>
<path d="M36.4517 38.1304C35.7806 32.9484 31.7103 31.4915 29.4063 31.4022C29.2276 31.3952 28.9738 31.4378 28.8167 31.5232C27.49 32.2446 29.9653 33.0106 31.362 33.585C32.7635 34.1613 33.6496 35.2348 34.1386 36.1803C34.4853 36.8509 34.7131 37.5636 34.783 38.3153C34.823 38.7455 34.8208 39.2827 35.112 39.6019C35.2349 39.7367 35.3765 39.7984 35.5239 39.8096C36.271 39.8664 36.5479 38.8735 36.4517 38.1304Z" fill="#B9E3FF" stroke="#B9E3FF" stroke-width="0.5"/>
</svg>
