<svg width="56" height="52" viewBox="0 0 56 52" fill="none" xmlns="http://www.w3.org/2000/svg">
<path d="M27.9373 24.5954V45.3337H2.92688C1.43699 45.3336 0.229858 44.1264 0.229858 42.6366V27.2924C0.229858 25.8026 1.43699 24.5953 2.92688 24.5953L27.9373 24.5954Z" fill="#39BA92"/>
<path d="M55.5264 27.2923V42.6364C55.5264 44.1262 54.3192 45.3334 52.8293 45.3334H27.9369V24.5953H52.8293C54.3192 24.5953 55.5264 25.8025 55.5264 27.2923Z" fill="#FE7678"/>
<path d="M52.8299 24.5953H49.4829C50.9727 24.5953 52.1799 25.8026 52.1799 27.2924V42.6365C52.1799 44.1263 50.9727 45.3336 49.4829 45.3336H52.8299C54.3197 45.3336 55.5269 44.1263 55.5269 42.6365V27.2923C55.5269 25.8025 54.3198 24.5953 52.8299 24.5953Z" fill="#FE5659"/>
<path d="M40.4953 23.4124C40.4953 16.4909 34.9221 10.8711 28.0184 10.796C21.2201 10.7221 15.5032 16.1718 15.2689 22.9665C15.1531 26.3245 16.3507 29.401 18.3873 31.7236C20.8445 34.5259 22.301 38.0639 22.301 41.7909V41.828L27.2858 44.249L33.4555 41.828V41.7893C33.4555 38.1479 34.7507 34.5985 37.2044 31.9078C39.2486 29.6663 40.4953 26.6854 40.4953 23.4124Z" fill="#FFE768"/>
<path d="M28.0181 10.796C27.4077 10.7894 26.8062 10.828 26.2164 10.9074C32.3877 11.7313 37.1479 17.0157 37.1479 23.4123C37.1479 26.6853 35.9012 29.6663 33.857 31.9079C31.4033 34.5986 30.1081 38.148 30.1081 41.7894V41.8281L31.3278 42.6628L33.455 41.8281V41.7894C33.455 38.148 34.7503 34.5986 37.204 31.9079C39.2481 29.6663 40.4949 26.6853 40.4949 23.4123C40.495 16.4909 34.9217 10.8711 28.0181 10.796Z" fill="#FFDD2B"/>
<path d="M26.4504 42.6617C26.0657 42.6617 25.7198 42.3941 25.6354 42.0027L23.8117 33.5348C23.7147 33.0843 24.0013 32.6403 24.4518 32.5433C24.903 32.4466 25.3463 32.7328 25.4433 33.1834L27.267 41.6514C27.364 42.1019 27.0775 42.5459 26.6269 42.6428C26.5677 42.6556 26.5086 42.6617 26.4504 42.6617Z" fill="#F3D460"/>
<path d="M29.306 42.6618C29.2478 42.6618 29.1886 42.6556 29.1294 42.6429C28.679 42.5459 28.3923 42.1019 28.4893 41.6514L30.313 33.1835C30.41 32.733 30.8543 32.4465 31.3045 32.5434C31.755 32.6403 32.0416 33.0843 31.9446 33.5348L30.1209 42.0028C30.0367 42.3941 29.6907 42.6618 29.306 42.6618Z" fill="#F3D460"/>
<path d="M33.4563 44.4892L32.8021 45.5217L33.4563 46.1581V46.3573C33.4563 46.9381 33.3673 47.4977 33.2037 48.0229L31.4235 48.676L32.3492 49.6919C31.3322 51.0537 29.7079 51.9349 27.8787 51.9349C27.2957 51.9349 26.7337 51.8459 26.2053 51.679C25.076 51.3241 24.1013 50.6198 23.4082 49.6919L23.9678 48.8574L22.5536 48.023C22.3901 47.4979 22.301 46.9382 22.301 46.3574V46.1582L23.2779 45.2092L22.301 44.4894V41.8269L30.1088 41.8274L33.4563 44.4892Z" fill="#2372B9"/>
<path d="M33.4557 44.4894L32.8016 45.5219L33.4557 46.1583V46.3575C33.4557 46.9383 33.3667 47.4979 33.2031 48.0231L31.4229 48.6762L32.3486 49.6921C31.3317 51.0539 29.7073 51.9351 27.8781 51.9351C27.2951 51.9351 26.7332 51.8461 26.2047 51.6792C28.4667 50.9682 30.1089 48.8543 30.1089 46.3575V41.8269H33.4556V44.4894H33.4557Z" fill="#135A99"/>
<path d="M27.1705 27.9497H21.2793C20.8887 27.9497 20.572 27.6331 20.572 27.2424V19.2517C20.572 18.8611 20.8887 18.5444 21.2793 18.5444H25.6659C26.8875 18.5444 27.8779 19.5348 27.8779 20.7564L28.8953 24.5956L27.8778 27.2424C27.8778 27.6331 27.5611 27.9497 27.1705 27.9497Z" fill="#FFF1AE"/>
<path d="M34.4759 27.9497H28.5847C28.1941 27.9497 27.8774 27.6331 27.8774 27.2424V20.7564C27.8774 19.5348 28.8678 18.5444 30.0894 18.5444H34.476C34.8667 18.5444 35.1833 18.8611 35.1833 19.2517V27.2424C35.1832 27.6331 34.8664 27.9497 34.4759 27.9497Z" fill="#F3D460"/>
<path d="M34.4759 27.9497H28.5847C28.1941 27.9497 27.8774 27.6331 27.8774 27.2424V20.7564C27.8774 19.5348 28.8678 18.5444 30.0894 18.5444H34.476C34.8667 18.5444 35.1833 18.8611 35.1833 19.2517V27.2424C35.1832 27.6331 34.8664 27.9497 34.4759 27.9497Z" fill="#F3D460"/>
<path d="M34.4759 27.9497H28.5847C28.1941 27.9497 27.8774 27.6331 27.8774 27.2424V20.7564C27.8774 19.5348 28.8678 18.5444 30.0894 18.5444H34.476C34.8667 18.5444 35.1833 18.8611 35.1833 19.2517V27.2424C35.1832 27.6331 34.8664 27.9497 34.4759 27.9497Z" fill="#FFCA00"/>
<path d="M7.76145 39.0729C7.4693 39.009 7.20589 38.8509 6.99442 38.6395L4.60629 36.2513C4.01973 35.6646 4.01973 34.7137 4.60639 34.1271C5.19295 33.5403 6.14391 33.5403 6.73068 34.1271L7.86459 35.2611C7.98642 35.383 8.18384 35.383 8.30567 35.2611L11.8261 31.7406C12.398 31.1687 13.3296 31.116 13.9277 31.6603C14.5664 32.2415 14.5839 33.231 13.9803 33.8347L9.14711 38.668C8.78963 39.0256 8.27046 39.1841 7.76145 39.0729Z" fill="white"/>
<path d="M48.075 35.4832C47.9122 35.3205 47.9122 35.0565 48.075 34.8937L49.5362 33.4325C50.1228 32.8459 50.1228 31.895 49.5362 31.3083C48.9497 30.7216 47.9986 30.7216 47.412 31.3083L45.9507 32.7696C45.788 32.9323 45.524 32.9323 45.3611 32.7696L43.9299 31.3383C43.358 30.7664 42.4264 30.7138 41.8282 31.2583C41.1896 31.8396 41.1721 32.8291 41.7757 33.4326L43.2368 34.8938C43.3996 35.0565 43.3996 35.3205 43.2368 35.4833L41.7757 36.9445C41.189 37.5311 41.189 38.482 41.7757 39.0687C42.0689 39.362 42.4534 39.5086 42.8378 39.5086C43.222 39.5086 43.6066 39.3619 43.8999 39.0687L45.3611 37.6074C45.5239 37.4447 45.7878 37.4447 45.9507 37.6074L47.412 39.0687C47.7052 39.3619 48.0897 39.5086 48.4741 39.5086C48.8584 39.5086 49.2429 39.3619 49.5362 39.0687C50.1228 38.482 50.1228 37.5311 49.5362 36.9445L48.075 35.4832Z" fill="#EEF5F6"/>
<path d="M4.78748 15.4427C5.02791 14.8945 5.66767 14.6444 6.21619 14.8851L8.30603 15.8021C8.85449 16.0426 9.10421 16.6823 8.86365 17.2308C8.68515 17.6375 8.28715 17.8792 7.87048 17.8793C7.7248 17.8793 7.5765 17.8497 7.43494 17.7875V17.7885L5.34509 16.8715C4.7967 16.631 4.54705 15.9912 4.78748 15.4427Z" fill="#F9E277" stroke="#F9E277" stroke-width="0.5"/>
<path d="M9.32703 8.49304C9.73279 8.05233 10.4197 8.02408 10.8602 8.42957L12.5389 9.97546C12.9795 10.381 13.0081 11.0681 12.6024 11.5087L12.6014 11.5077C12.3877 11.7397 12.0965 11.8583 11.8046 11.8583C11.5422 11.8583 11.2785 11.7629 11.0702 11.5712L9.3905 10.0253C8.95032 9.61974 8.92147 8.93345 9.32703 8.49304Z" fill="#F3D460" stroke="#F3D460" stroke-width="0.5"/>
<path d="M15.8771 3.39502C16.4037 3.10986 17.0617 3.30583 17.3468 3.83252L18.4337 5.84033C18.7186 6.36692 18.5227 7.02501 17.9962 7.31006C17.8326 7.39857 17.6552 7.4409 17.4806 7.44092C17.0961 7.44092 16.7219 7.23562 16.5255 6.87256L15.4396 4.86475C15.1547 4.33807 15.3504 3.67999 15.8771 3.39502Z" fill="#F9E277" stroke="#F9E277" stroke-width="0.5"/>
<path d="M23.728 0.700562C24.3187 0.601113 24.8776 1.00096 24.9761 1.59119L25.3521 3.84216C25.4507 4.43299 25.0512 4.99266 24.4604 5.09119L24.4595 5.09021C24.3992 5.10035 24.3392 5.10583 24.2808 5.10583C23.7928 5.10571 23.3582 4.77569 23.2329 4.29724L23.2124 4.19958L22.8364 1.94861C22.7377 1.35778 23.1373 0.798115 23.728 0.699585V0.700562Z" fill="#F3D460" stroke="#F3D460" stroke-width="0.5"/>
<path d="M30.7805 1.59119C30.879 1.00095 31.4376 0.600646 32.0295 0.700562L32.0286 0.701538C32.6193 0.800165 33.0187 1.35794 32.9202 1.94861L32.5442 4.19958C32.4557 4.73014 31.9963 5.10565 31.4758 5.10583C31.4169 5.10583 31.3567 5.10139 31.2961 5.09119C30.7055 4.99267 30.3063 4.43369 30.4045 3.84314L30.7805 1.59119Z" fill="#F9E277" stroke="#F9E277" stroke-width="0.5"/>
<path d="M38.4083 3.83252C38.6933 3.30559 39.3522 3.10984 39.879 3.39502C40.4057 3.68005 40.6013 4.33819 40.3165 4.86475L39.2296 6.87256C39.0331 7.23551 38.66 7.44088 38.2755 7.44092C38.101 7.44092 37.9236 7.39872 37.7599 7.31006C37.2331 7.02502 37.0374 6.36695 37.3224 5.84033L38.4083 3.83252Z" fill="#F3D460" stroke="#F3D460" stroke-width="0.5"/>
<path d="M44.9818 8.35925C45.4216 8.0294 46.0487 8.08012 46.4291 8.49304C46.8347 8.93358 46.8062 9.61969 46.3656 10.0253L44.6869 11.5721C44.4787 11.7638 44.2146 11.8582 43.9525 11.8583C43.6604 11.8583 43.3675 11.7409 43.1537 11.5087C42.7482 11.0682 42.7768 10.382 43.2172 9.97644L44.8969 8.43054L44.9818 8.35925Z" fill="#F9E277" stroke="#F9E277" stroke-width="0.5"/>
<path d="M49.5402 14.8851C50.0885 14.6451 50.7283 14.894 50.9689 15.4427C51.2091 15.9911 50.9598 16.631 50.4113 16.8715L48.3214 17.7875H48.3204C48.1794 17.8491 48.0318 17.8793 47.8859 17.8793C47.4691 17.8792 47.0711 17.6372 46.8927 17.2299C46.6524 16.6815 46.9018 16.0416 47.4503 15.8011L49.5402 14.8851Z" fill="#F3D460" stroke="#F3D460" stroke-width="0.5"/>
<path d="M30.1093 44.4894L30.5667 45.333L30.1093 46.1583H22.301V44.4894H30.1093Z" fill="#80BBF0"/>
<path d="M29.857 48.0227L30.1096 48.8571L29.0026 49.6915H23.4085C23.0357 49.1931 22.7443 48.6301 22.554 48.0226L29.857 48.0227Z" fill="#80BBF0"/>
<path d="M29.8568 48.0226H33.2036C33.0133 48.6301 32.7218 49.1931 32.3491 49.6915H29.0023C29.375 49.193 29.6665 48.6301 29.8568 48.0226Z" fill="#2885D8"/>
<path d="M30.1097 44.4891H33.4565V46.1581H30.1097V44.4891Z" fill="#2885D8"/>
</svg>
