<svg width="57" height="52" viewBox="0 0 57 52" fill="none" xmlns="http://www.w3.org/2000/svg">
<path d="M28.0912 0.872375H3.78202C3.44119 0.872375 3.11369 0.930273 2.8097 1.03776L1.83398 3.78948V27.2117C1.83398 28.8228 3.14001 30.1288 4.75107 30.1288H28.0912C29.7022 30.1288 31.0083 28.8228 31.0083 27.2117V3.78948C31.0083 2.1784 29.7022 0.872375 28.0912 0.872375Z" fill="#ECEAEC"/>
<path d="M2.81 26.1527V1.0365C1.67954 1.43827 0.865234 2.51996 0.865234 3.78821V28.0974C0.865234 29.7084 2.17126 31.0145 3.78232 31.0145H4.75465V36.4458C4.75465 37.3121 5.80206 37.746 6.41461 37.1335L12.5336 31.0145H28.0914C29.3596 31.0145 30.428 30.2002 30.8298 29.0697H5.72709C4.11602 29.0698 2.81 27.7638 2.81 26.1527Z" fill="#DBD8DB"/>
<path d="M53.9744 15.3232H29.6652C29.3244 15.3232 28.9969 15.3809 28.6929 15.4884L27.6842 18.2403V41.4732C27.6842 43.0843 28.9902 44.3903 30.6013 44.3903H53.9744L56.7257 43.5219C56.8344 43.2163 56.8915 42.8924 56.8915 42.5496V18.2403C56.8915 16.6293 55.5854 15.3232 53.9744 15.3232Z" fill="#39BA92"/>
<path d="M47.4487 37.6965C47.1183 37.2744 46.5067 37.1975 46.0833 37.5298C45.1366 38.2705 43.999 38.6617 42.793 38.6617C39.8445 38.6617 37.445 36.2626 37.445 33.3137C37.445 30.3648 39.8445 27.9657 42.793 27.9657H45.2238C45.7613 27.9657 46.1962 27.5304 46.1962 26.9934C46.1962 26.4564 45.7613 26.0211 45.2238 26.0211C45.2238 26.0211 42.3414 26.0211 42.3067 26.0211C41.2346 26.0211 40.362 25.1489 40.362 24.0763C40.362 23.0037 41.2346 22.1315 42.3067 22.1315C42.8594 22.1315 43.3874 22.368 43.7567 22.7801C44.1166 23.1813 44.732 23.214 45.1298 22.8556C45.5296 22.4975 45.5637 21.8828 45.2057 21.483C44.4679 20.6592 43.411 20.1868 42.3066 20.1868C40.1615 20.1868 38.4172 21.9316 38.4172 24.0762C38.4172 25.136 38.8455 26.0961 39.5354 26.7982C37.147 27.9973 35.5001 30.4638 35.5001 33.3137C35.5001 37.3352 38.7714 40.6065 42.7928 40.6065C44.4365 40.6065 45.9891 40.0723 47.2815 39.0615C47.7042 38.7306 47.7792 38.1195 47.4487 37.6965Z" fill="white"/>
<path d="M28.6929 40.605V15.4885C27.5625 15.8904 26.7482 16.9722 26.7482 18.2405V42.5496C26.7482 44.1607 28.0542 45.4667 29.6653 45.4667H45.223L51.342 51.5857C51.9546 52.1983 53.002 51.7645 53.002 50.8982V45.4668H53.9743C55.2425 45.4668 56.3238 44.6525 56.7256 43.5221H31.61C29.999 43.5221 28.6929 42.216 28.6929 40.605Z" fill="#2372B9"/>
<path d="M23.3994 23.8634L17.1834 7.54244C16.9754 7.0354 16.4874 6.70732 15.9386 6.70685H15.9376C15.3898 6.70685 14.9007 7.03353 14.6813 7.56525L8.47495 23.8634C8.28407 24.3653 8.53578 24.9269 9.03802 25.1183C9.53839 25.3087 10.1006 25.057 10.2925 24.5557L11.5995 21.123H20.2747L21.582 24.5557C21.73 24.9435 22.0985 25.1824 22.4907 25.1824C22.6055 25.1824 22.7233 25.1614 22.8363 25.1183C23.3387 24.9269 23.5902 24.3653 23.3994 23.8634ZM12.34 19.1781L15.9367 9.73214L19.5339 19.1781H12.34Z" fill="#2372B9"/>
</svg>
