<svg width="296" height="42" viewBox="0 0 296 42" fill="none" xmlns="http://www.w3.org/2000/svg">
<path fill-rule="evenodd" clip-rule="evenodd" d="M39.0353 30.9671C39.461 30.877 39.7803 30.5004 39.7803 30.0488V2.969C39.7803 2.35637 39.1977 1.90338 38.6001 2.06302L37.0801 2.46962V0.938727C37.0801 0.326099 36.4975 -0.126891 35.8999 0.032747L20.1981 4.24064L4.54534 0.0463911C4.45392 0.0163737 4.35569 0 4.25335 0C3.73487 0 3.31463 0.420244 3.31463 0.938727V2.46962L1.79465 2.06302C1.19703 1.90338 0.614424 2.35637 0.614424 2.969V30.0488C0.614424 30.4909 0.920056 30.8606 1.33075 30.9602C1.34849 30.9671 1.36759 30.9725 1.38533 30.978L7.99325 32.7722L0.685375 36.3866C0.367463 36.5435 0.165527 36.8723 0.165527 37.2325V40.5481C0.165527 40.8428 0.300606 41.1198 0.531194 41.2971C0.693561 41.4227 0.890039 41.4882 1.08925 41.4882C1.17248 41.4882 1.25707 41.4772 1.33894 41.4527L19.2934 36.3088L20.1558 36.1069L20.4682 36.1587L38.42 41.45C38.5046 41.4745 38.5905 41.4868 38.6765 41.4868C38.8743 41.4868 39.0695 41.4227 39.2318 41.2985C39.4638 41.1211 39.6002 40.8428 39.6002 40.5467V37.2311C39.6002 36.8778 39.4065 36.5558 39.0981 36.3947L32.2077 32.8008L37.7528 31.2945V31.3123L39.0353 30.9684V30.9671ZM9.16939 13.8749C9.70833 14.0195 10.1954 14.3742 10.542 14.8272C10.6634 14.9869 10.8163 15.0892 11.01 15.1411L19.8733 17.5165C20.0944 17.5752 20.299 17.5766 20.5201 17.5165L29.1664 15.152C29.4093 15.0851 29.644 15.122 29.8568 15.2557C30.1939 15.4658 30.6373 15.5313 31.1258 15.4003C32.1764 15.1179 33.0291 14.0372 33.0291 12.9866C33.0291 11.936 32.1764 11.3111 31.1258 11.5922C30.5868 11.7368 30.0997 12.0916 29.7531 12.5446C29.6303 12.7042 29.4789 12.8052 29.2851 12.8584L20.5214 15.2543C20.3004 15.3143 20.0971 15.313 19.8747 15.2543L13.8112 13.6293C13.5683 13.5638 13.3336 13.5993 13.1208 13.733C12.7838 13.9445 12.3403 14.0086 11.8532 13.8776C10.8012 13.5952 9.94847 12.5145 9.94847 11.4626C9.94847 10.4106 10.8012 9.78704 11.8532 10.0681C12.3922 10.2127 12.8793 10.5675 13.2258 11.0205C13.3473 11.1801 13.5001 11.2825 13.6938 11.3343L19.8761 12.9907C20.0971 13.0508 20.3018 13.0521 20.5228 12.9907L25.8741 11.5076C26.1169 11.4407 26.3516 11.4776 26.5645 11.6113C26.9015 11.8214 27.3449 11.8869 27.832 11.7559C28.884 11.4735 29.7368 10.3928 29.7368 9.34224C29.7368 8.29163 28.884 7.66672 27.832 7.94779C27.2931 8.09242 26.806 8.44717 26.4594 8.90016C26.338 9.0598 26.1852 9.16077 25.9914 9.21398L20.9853 10.603C20.7916 10.6562 20.6033 10.6166 20.4437 10.4952C20.284 10.3737 20.1994 10.2005 20.1994 9.99989V6.85079C20.1994 6.44965 20.46 6.10991 20.8475 6.00621L35.204 2.15989V27.2981L21.2991 31.0244C21.0276 31.0967 20.7629 31.0448 20.5405 30.8729C20.3181 30.701 20.1981 30.4609 20.1981 30.1798V27.3227C20.1981 26.9215 20.4587 26.5859 20.8462 26.4781L25.185 25.2665C25.4279 25.1983 25.6626 25.2365 25.8754 25.3702C26.2125 25.5803 26.6559 25.6458 27.143 25.5148C28.195 25.2324 29.0477 24.1517 29.0477 23.1011C29.0477 22.0505 28.195 21.4256 27.143 21.7067C26.604 21.8513 26.1169 22.2061 25.7704 22.6591C25.6489 22.8187 25.4961 22.9183 25.3024 22.9729L20.5201 24.3018C20.299 24.3632 20.0957 24.3619 19.8733 24.3018L15.398 23.1025C15.1551 23.037 14.9204 23.0725 14.7076 23.2062C14.3706 23.4177 13.9271 23.4818 13.4387 23.3508C12.3881 23.0684 11.5353 21.9878 11.5353 20.9358C11.5353 19.8838 12.3881 19.2603 13.4387 19.5413C13.9776 19.686 14.4647 20.0407 14.8113 20.4937C14.9341 20.6533 15.0855 20.7543 15.2807 20.8075L19.8747 22.0382C20.0957 22.0983 20.3004 22.0996 20.5214 22.0382L27.1621 20.2099C27.405 20.143 27.6396 20.1799 27.8525 20.3136C28.1895 20.5251 28.6343 20.5892 29.1214 20.4582C30.172 20.1772 31.0262 19.0965 31.0262 18.0446C31.0262 16.9926 30.1734 16.369 29.1214 16.6501C28.5825 16.7947 28.0954 17.1495 27.7488 17.6025C27.626 17.7621 27.4745 17.8631 27.2808 17.9163L20.5214 19.776C20.3004 19.8361 20.0971 19.8347 19.8747 19.776L11.1287 17.4319C10.8858 17.3664 10.6512 17.4019 10.4383 17.5356C10.1013 17.7457 9.65649 17.8099 9.16939 17.6803C8.11741 17.3978 7.26464 16.3172 7.26464 15.2666C7.26464 14.216 8.11741 13.5911 9.16939 13.8721V13.8749ZM30.348 13.7029C30.348 13.2745 30.696 12.8324 31.1258 12.7165C31.5542 12.6019 31.9035 12.8556 31.9035 13.2854C31.9035 13.7152 31.5555 14.1559 31.1258 14.2719C30.696 14.3865 30.348 14.1314 30.348 13.7029ZM27.0529 10.0613C27.0529 9.63286 27.4009 9.19079 27.8307 9.07481C28.2605 8.9602 28.6084 9.21398 28.6084 9.64378C28.6084 10.0722 28.2605 10.5143 27.8307 10.6303C27.4022 10.7449 27.0529 10.4897 27.0529 10.0613ZM26.3653 23.8202C26.3653 23.3918 26.7132 22.9497 27.143 22.8337C27.5728 22.7191 27.9207 22.9742 27.9207 23.4027C27.9207 23.8311 27.5728 24.2732 27.143 24.3891C26.7146 24.5038 26.3653 24.25 26.3653 23.8202ZM28.3423 18.7663C28.3423 18.3365 28.6903 17.8958 29.12 17.7799C29.5498 17.6652 29.8978 17.9204 29.8978 18.3488C29.8978 18.7773 29.5498 19.2193 29.12 19.3353C28.6903 19.4499 28.3423 19.1961 28.3423 18.7663ZM16.6328 35.1163L2.01296 39.3037V37.8178L10.7221 33.5117L10.7712 33.4872L16.6519 35.1108L16.6342 35.1163H16.6328ZM37.7528 37.8056V39.2955L23.6241 35.1313L23.6091 35.1272L29.5444 33.524L37.7541 37.8056H37.7528ZM29.4134 31.6138L21.7167 33.7041C21.7167 33.7041 21.7167 33.7041 21.7153 33.7041L20.1571 34.1271L18.1569 33.584L10.6593 31.5483L2.71701 29.3925V29.3884L2.49188 29.3284V4.19016L3.31463 4.4112V28.0185C3.31463 28.4333 3.59161 28.8126 4.01049 28.9245L19.9429 33.1938C20.0998 33.2375 20.269 33.2429 20.4382 33.1965L36.3351 28.9381C36.7608 28.8481 37.0801 28.4715 37.0801 28.0199V4.4112L37.9029 4.19016V29.3065L29.4134 31.6124V31.6138Z" fill="url(#paint0_linear_506_78122)"/>
<path fill-rule="evenodd" clip-rule="evenodd" d="M13.4389 20.6713C13.0104 20.5567 12.6611 20.8118 12.6611 21.2403C12.6611 21.6687 13.0091 22.1108 13.4389 22.2267C13.8687 22.3413 14.2166 22.0876 14.2166 21.6578C14.2166 21.228 13.8687 20.7873 13.4389 20.6713Z" fill="url(#paint1_linear_506_78122)"/>
<path fill-rule="evenodd" clip-rule="evenodd" d="M9.16932 16.5561C9.59776 16.6707 9.94705 16.4169 9.94705 15.9871C9.94705 15.5573 9.59912 15.1166 9.16932 15.0007C8.73953 14.886 8.3916 15.1398 8.3916 15.5696C8.3916 15.9994 8.73953 16.4401 9.16932 16.5547V16.5561Z" fill="url(#paint2_linear_506_78122)"/>
<path fill-rule="evenodd" clip-rule="evenodd" d="M11.8505 11.1953C11.4207 11.0807 11.0728 11.3358 11.0728 11.7642C11.0728 12.1927 11.4207 12.6347 11.8505 12.7507C12.2789 12.8653 12.6282 12.6115 12.6282 12.1818C12.6282 11.752 12.2803 11.3112 11.8505 11.1953Z" fill="url(#paint3_linear_506_78122)"/>
<path d="M64.3987 35.4616C62.5049 35.4616 60.7502 35.1218 59.1361 34.4423C57.5206 33.7628 56.1139 32.8159 54.9118 31.6016C53.7098 30.3872 52.7751 28.986 52.1079 27.3951C51.4394 25.8055 51.1064 24.0986 51.1064 22.2784C51.1064 20.4583 51.4394 18.7459 52.1079 17.1427C52.7751 15.5409 53.7098 14.1328 54.9118 12.9185C56.1139 11.7041 57.522 10.7518 59.1361 10.06C60.7502 9.36823 62.5049 9.02167 64.3987 9.02167C66.2925 9.02167 68.0404 9.36823 69.6436 10.06C71.2454 10.7518 72.6426 11.7055 73.8324 12.9185C75.0221 14.1328 75.9499 15.5409 76.6185 17.1427C77.2857 18.7446 77.62 20.4569 77.62 22.2784C77.62 24.1 77.268 25.9024 76.5639 27.541C75.8599 29.1797 74.8884 30.5946 73.6509 31.7844L77.1465 37.0648H71.6111L69.7896 34.37C68.9641 34.7098 68.1018 34.9772 67.204 35.1709C66.3048 35.3647 65.3702 35.4629 64.4001 35.4629L64.3987 35.4616ZM64.3987 30.727C65.467 30.727 66.4508 30.5578 67.3486 30.2167L64.2895 25.5913H69.825L70.9534 27.2668C71.8758 25.8341 72.3369 24.1709 72.3369 22.2771C72.3369 20.723 72.0149 19.3026 71.3723 18.016C70.7283 16.7293 69.8182 15.6978 68.6407 14.9201C67.4632 14.1437 66.0483 13.7549 64.3973 13.7549C62.7464 13.7549 61.3205 14.1437 60.1185 14.9201C58.9164 15.6978 57.9941 16.7293 57.3501 18.016C56.7061 19.3026 56.3854 20.723 56.3854 22.2771C56.3854 23.8312 56.7074 25.2147 57.3501 26.5014C57.9927 27.788 58.9164 28.8141 60.1185 29.5781C61.3205 30.3436 62.7464 30.7256 64.3973 30.7256L64.3987 30.727Z" fill="#39BA92"/>
<path d="M87.0154 35.4249C85.6551 35.4249 84.4298 35.1097 83.3369 34.4779C82.244 33.8462 81.3817 32.943 80.7514 31.7641C80.1196 30.5866 79.8044 29.2085 79.8044 27.6313V16.05H84.7205V26.4292C84.7205 28.0556 85.0479 29.2454 85.7042 29.9985C86.3592 30.7517 87.2938 31.1269 88.5081 31.1269C89.5519 31.1269 90.4688 30.7503 91.2575 29.9985C92.0461 29.2467 92.4418 28.057 92.4418 26.4292V16.05H97.3578V34.9882H92.5864V32.1475C92.1252 33.2404 91.4512 34.0591 90.5657 34.6062C89.6788 35.152 88.4958 35.4262 87.0154 35.4262V35.4249Z" fill="#39BA92"/>
<path d="M100.272 34.9882V16.0499H105.044V19.6561C105.359 18.2958 106.003 17.2588 106.975 16.5425C107.945 15.8262 109.256 15.5164 110.908 15.6133V20.2387H110.216C108.808 20.2387 107.619 20.689 106.647 21.5868C105.676 22.4859 105.19 23.7235 105.19 25.3021V34.9896H100.274L100.272 34.9882Z" fill="#39BA92"/>
<path d="M120.266 35.4618C118.542 35.4618 116.97 35.0183 115.55 34.1328C114.129 33.2473 113.001 32.0575 112.163 30.5635C111.325 29.0708 110.906 27.413 110.906 25.5915C110.906 24.2325 111.149 22.9513 111.635 21.7493C112.121 20.5472 112.788 19.4912 113.638 18.5811C114.488 17.671 115.477 16.9547 116.606 16.4321C117.734 15.9109 118.955 15.6489 120.266 15.6489C121.917 15.6489 123.204 15.9587 124.126 16.5781C125.049 17.1976 125.765 18.0162 126.275 19.0368V16.0501H131.156V34.9883H126.385V31.8924C125.874 32.9608 125.152 33.8231 124.218 34.478C123.283 35.133 121.965 35.4618 120.266 35.4618ZM121.067 31.0192C122.16 31.0192 123.1 30.7709 123.89 30.2729C124.679 29.7748 125.293 29.1131 125.73 28.2876C126.166 27.4621 126.385 26.5643 126.385 25.5929C126.385 24.6214 126.166 23.6868 125.73 22.8613C125.293 22.0358 124.679 21.3686 123.89 20.8583C123.102 20.348 122.16 20.0929 121.067 20.0929C119.974 20.0929 119.107 20.3426 118.318 20.8392C117.529 21.3372 116.915 21.999 116.479 22.8244C116.042 23.6499 115.823 24.5614 115.823 25.556C115.823 26.5507 116.041 27.3953 116.479 28.233C116.915 29.0708 117.528 29.7448 118.318 30.2538C119.107 30.7641 120.024 31.0192 121.067 31.0192Z" fill="#39BA92"/>
<path d="M134.069 34.9883V16.05H138.913V18.8184C139.907 16.6818 141.838 15.6134 144.703 15.6134C146.062 15.6134 147.289 15.93 148.382 16.5603C149.475 17.192 150.336 18.0898 150.968 19.2551C151.598 20.4203 151.914 21.8038 151.914 23.407V34.9883H146.998V24.6091C146.998 22.9581 146.622 21.7629 145.87 21.022C145.117 20.2811 144.133 19.9114 142.92 19.9114C141.876 19.9114 140.959 20.2825 140.171 21.022C139.382 21.7629 138.986 22.9581 138.986 24.6091V34.9883H134.07H134.069Z" fill="#39BA92"/>
<path d="M172.493 35.4616C170.599 35.4616 168.844 35.1218 167.23 34.4423C165.615 33.7628 164.207 32.8159 163.006 31.6016C161.804 30.3872 160.869 28.986 160.202 27.3951C159.533 25.8055 159.2 24.0986 159.2 22.2784C159.2 20.4583 159.522 18.7459 160.165 17.1427C160.808 15.5409 161.719 14.1328 162.897 12.9185C164.074 11.7041 165.477 10.7518 167.103 10.06C168.73 9.36823 170.527 9.02167 172.494 9.02167C174.582 9.02167 176.373 9.34913 177.866 10.0054C179.358 10.6617 180.675 11.6687 181.817 13.029L178.211 16.1617C176.681 14.5599 174.775 13.7576 172.493 13.7576C170.866 13.7576 169.451 14.1465 168.249 14.9228C167.047 15.7005 166.119 16.732 165.463 18.0187C164.807 19.3054 164.479 20.7257 164.479 22.2798C164.479 23.8339 164.807 25.2474 165.463 26.5232C166.119 27.7976 167.053 28.8181 168.267 29.5822C169.481 30.3477 170.926 30.7297 172.6 30.7297C173.839 30.7297 174.931 30.5237 175.878 30.1103C176.825 29.6982 177.675 29.0788 178.428 28.2533L182.143 31.4215C181.172 32.5867 179.878 33.5527 178.264 34.3168C176.649 35.0822 174.725 35.4643 172.491 35.4643L172.493 35.4616Z" fill="#2372B9"/>
<path d="M192.16 35.4617C190.217 35.4617 188.481 35.0114 186.952 34.1136C185.422 33.2158 184.225 32.0192 183.365 30.5265C182.502 29.0338 182.071 27.3761 182.071 25.5545C182.071 23.733 182.502 22.0712 183.365 20.5648C184.225 19.0599 185.422 17.8578 186.952 16.9587C188.481 16.0609 190.217 15.6106 192.16 15.6106C194.103 15.6106 195.868 16.0609 197.385 16.9587C198.903 17.8564 200.092 19.0585 200.955 20.5648C201.816 22.0698 202.247 23.733 202.247 25.5545C202.247 27.3761 201.816 29.0325 200.955 30.5265C200.092 32.0192 198.903 33.2158 197.385 34.1136C195.868 35.0114 194.126 35.4617 192.16 35.4617ZM192.16 30.9822C193.203 30.9822 194.113 30.7339 194.891 30.2359C195.668 29.7379 196.269 29.0761 196.694 28.2507C197.118 27.4252 197.331 26.5274 197.331 25.5559C197.331 24.5844 197.118 23.6498 196.694 22.8243C196.269 21.9988 195.668 21.3371 194.891 20.8391C194.113 20.3411 193.203 20.0927 192.16 20.0927C191.116 20.0927 190.204 20.3424 189.428 20.8391C188.65 21.3371 188.05 21.9988 187.626 22.8243C187.201 23.6498 186.988 24.5612 186.988 25.5559C186.988 26.5506 187.201 27.4265 187.626 28.2507C188.05 29.0761 188.652 29.7379 189.428 30.2359C190.204 30.7339 191.116 30.9822 192.16 30.9822Z" fill="#2372B9"/>
<path d="M204.433 34.9883V16.05H209.277V18.8184C210.271 16.6818 212.202 15.6134 215.067 15.6134C216.426 15.6134 217.653 15.93 218.746 16.5603C219.839 17.192 220.7 18.0898 221.331 19.2551C221.962 20.4203 222.278 21.8038 222.278 23.407V34.9883H217.362V24.6091C217.362 22.9581 216.986 21.7629 216.234 21.022C215.481 20.2811 214.498 19.9114 213.284 19.9114C212.24 19.9114 211.323 20.2825 210.535 21.022C209.746 21.7629 209.352 22.9581 209.352 24.6091V34.9883H204.436H204.433Z" fill="#2372B9"/>
<path d="M225.01 34.9883V16.05H229.853V18.8184C230.848 16.6818 232.779 15.6134 235.644 15.6134C237.003 15.6134 238.229 15.93 239.322 16.5603C240.415 17.192 241.276 18.0898 241.908 19.2551C242.538 20.4203 242.855 21.8038 242.855 23.407V34.9883H237.939V24.6091C237.939 22.9581 237.562 21.7629 236.81 21.022C236.057 20.2811 235.075 19.9114 233.861 19.9114C232.817 19.9114 231.9 20.2825 231.111 21.022C230.323 21.7629 229.928 22.9581 229.928 24.6091V34.9883H225.012H225.01Z" fill="#2372B9"/>
<path d="M254.656 35.4616C252.713 35.4616 251.002 35.0113 249.522 34.1136C248.04 33.2158 246.892 32.0192 246.079 30.5265C245.266 29.0338 244.859 27.376 244.859 25.5545C244.859 23.733 245.284 22.0643 246.134 20.547C246.984 19.0298 248.142 17.8223 249.612 16.9231C251.081 16.0253 252.762 15.5751 254.656 15.5751C256.55 15.5751 258.218 16.0253 259.663 16.9231C261.108 17.8209 262.237 19.0298 263.05 20.547C263.863 22.0643 264.27 23.7344 264.27 25.5545C264.27 25.8219 264.257 26.1003 264.233 26.3923C264.208 26.6842 264.171 26.9871 264.124 27.3023H249.957C250.224 28.4198 250.763 29.3299 251.578 30.0339C252.391 30.738 253.417 31.09 254.655 31.09C255.723 31.09 256.652 30.8471 257.441 30.3614C258.229 29.8756 258.843 29.2685 259.28 28.5399L263.105 31.4174C262.351 32.6072 261.223 33.5787 259.718 34.3305C258.213 35.0823 256.525 35.4589 254.656 35.4589V35.4616ZM254.582 19.8007C253.417 19.8007 252.421 20.1527 251.596 20.8568C250.77 21.5608 250.223 22.4832 249.957 23.6238H259.317C259.049 22.58 258.497 21.6823 257.659 20.9291C256.821 20.1773 255.795 19.8007 254.582 19.8007Z" fill="#2372B9"/>
<path d="M275.196 35.4617C273.836 35.4617 272.568 35.2066 271.391 34.6963C270.213 34.186 269.175 33.4765 268.277 32.5651C267.378 31.655 266.681 30.5989 266.183 29.3969C265.685 28.1948 265.436 26.9027 265.436 25.5178C265.436 23.6731 265.867 22.003 266.73 20.5103C267.591 19.0177 268.78 17.8211 270.299 16.9233C271.816 16.0255 273.534 15.5752 275.453 15.5752C277.176 15.552 278.718 15.8549 280.078 16.4853C281.437 17.117 282.518 17.9902 283.32 19.1077L279.532 22.2036C279.096 21.5473 278.531 21.0261 277.839 20.6372C277.147 20.2497 276.376 20.0546 275.526 20.0546C274.482 20.0546 273.571 20.3043 272.795 20.801C272.017 21.299 271.417 21.9607 270.992 22.7862C270.568 23.6117 270.355 24.5231 270.355 25.5178C270.355 26.5125 270.579 27.3939 271.029 28.2316C271.478 29.0694 272.097 29.7366 272.886 30.2346C273.675 30.7326 274.592 30.981 275.635 30.981C276.582 30.981 277.383 30.7681 278.039 30.3438C278.696 29.9194 279.265 29.3791 279.752 28.7228L283.321 31.8187C282.422 32.9608 281.311 33.8531 279.989 34.4957C278.666 35.1384 277.069 35.4604 275.2 35.4604L275.196 35.4617Z" fill="#2372B9"/>
<path d="M292.424 34.9883C290.553 34.9883 289.122 34.5271 288.126 33.6047C287.13 32.6824 286.633 31.1897 286.633 29.1253V20.2388H283.974V16.05H286.633V12.2255L291.549 11.7152V16.0486H295.555V20.2374H291.549V28.8688C291.549 30.034 292.059 30.6166 293.078 30.6166H295.118V34.9869H292.424V34.9883Z" fill="#2372B9"/>
<defs>
<linearGradient id="paint0_linear_506_78122" x1="19.9729" y1="4.11648" x2="19.9729" y2="41.6382" gradientUnits="userSpaceOnUse">
<stop stop-color="#70C59E"/>
<stop offset="0.49" stop-color="#39BA92"/>
<stop offset="1" stop-color="#2372B9"/>
</linearGradient>
<linearGradient id="paint1_linear_506_78122" x1="13.4389" y1="4.11667" x2="13.4389" y2="41.6385" gradientUnits="userSpaceOnUse">
<stop stop-color="#70C59E"/>
<stop offset="0.49" stop-color="#39BA92"/>
<stop offset="1" stop-color="#2372B9"/>
</linearGradient>
<linearGradient id="paint2_linear_506_78122" x1="9.16933" y1="4.11662" x2="9.16933" y2="41.6384" gradientUnits="userSpaceOnUse">
<stop stop-color="#70C59E"/>
<stop offset="0.49" stop-color="#39BA92"/>
<stop offset="1" stop-color="#2372B9"/>
</linearGradient>
<linearGradient id="paint3_linear_506_78122" x1="11.8505" y1="4.11662" x2="11.8505" y2="41.6384" gradientUnits="userSpaceOnUse">
<stop stop-color="#70C59E"/>
<stop offset="0.49" stop-color="#39BA92"/>
<stop offset="1" stop-color="#2372B9"/>
</linearGradient>
</defs>
</svg>
